<?xml version="1.0" encoding="UTF-8"?> <svg xmlns="http://www.w3.org/2000/svg" width="175" height="152" viewBox="0 0 175 152" fill="none"> <path d="M6.6203 114.284C4.05549 114.284 2.21271 115.955 1.09195 119.295C1.0704 119.36 1.00574 119.392 0.897976 119.392C0.790211 119.371 0.736328 119.328 0.736328 119.263C0.82254 118.401 0.919529 117.291 1.02729 115.933C1.13506 114.554 1.18894 113.519 1.18894 112.829C1.18894 112.722 1.24282 112.668 1.35059 112.668C1.47991 112.668 1.54457 112.722 1.54457 112.829C1.54457 113.304 2.15883 113.541 3.38735 113.541C5.24091 113.605 7.40698 113.638 9.88558 113.638C11.1572 113.638 12.5043 113.616 13.9268 113.573L16.1252 113.541C16.9442 113.541 17.5369 113.487 17.9033 113.379C18.2913 113.271 18.5391 113.056 18.6469 112.732C18.6684 112.646 18.7331 112.603 18.8409 112.603C18.9702 112.603 19.0348 112.646 19.0348 112.732C18.9702 113.379 18.8947 114.413 18.8085 115.836C18.7439 117.258 18.7115 118.401 18.7115 119.263C18.7115 119.328 18.6577 119.36 18.5499 119.36C18.4421 119.36 18.3775 119.328 18.3559 119.263C18.0326 117.603 17.4291 116.364 16.5455 115.545C15.6618 114.704 14.5734 114.284 13.2802 114.284C12.6551 114.284 12.2349 114.424 12.0193 114.704C11.8253 114.963 11.7284 115.47 11.7284 116.224V131.128C11.7284 131.796 11.793 132.281 11.9223 132.583C12.0517 132.884 12.2995 133.089 12.6659 133.197C13.0323 133.305 13.6142 133.359 14.4117 133.359C14.4764 133.359 14.5087 133.423 14.5087 133.553C14.5087 133.682 14.4764 133.747 14.4117 133.747C13.6358 133.747 13.0215 133.736 12.5689 133.714L9.88558 133.682L7.26689 133.714C6.81428 133.736 6.18924 133.747 5.39178 133.747C5.32712 133.747 5.29479 133.682 5.29479 133.553C5.29479 133.423 5.32712 133.359 5.39178 133.359C6.16769 133.359 6.73884 133.305 7.10524 133.197C7.4932 133.089 7.75183 132.884 7.88115 132.583C8.03202 132.259 8.10746 131.774 8.10746 131.128V116.159C8.10746 115.426 8.01047 114.931 7.81649 114.672C7.62251 114.413 7.22378 114.284 6.6203 114.284Z" fill="#E9E9E9"></path> <path d="M33.2598 113.185C34.2081 113.185 35.1996 113.271 36.2341 113.444C37.2687 113.594 38.0769 113.799 38.6588 114.058C38.8528 114.123 38.9714 114.209 39.0145 114.316C39.0791 114.403 39.133 114.564 39.1761 114.801L39.5641 119.295C39.5641 119.36 39.5102 119.403 39.4024 119.425C39.2947 119.446 39.23 119.414 39.2084 119.328C38.4756 117.625 37.495 116.31 36.2665 115.383C35.0379 114.457 33.6154 113.993 31.999 113.993C29.8652 113.993 28.2164 114.78 27.0525 116.353C25.8887 117.927 25.3068 120.039 25.3068 122.69C25.3068 124.673 25.6193 126.483 26.2443 128.121C26.8909 129.759 27.7853 131.063 28.9277 132.033C30.0915 132.981 31.4063 133.456 32.8719 133.456C34.2513 133.456 35.4798 133.003 36.5574 132.098C37.6566 131.171 38.6373 129.77 39.4994 127.895C39.521 127.809 39.5856 127.776 39.6934 127.798C39.8227 127.819 39.8874 127.863 39.8874 127.927L39.4024 132.324C39.3593 132.583 39.3054 132.755 39.2408 132.841C39.1977 132.906 39.0791 132.981 38.8851 133.068C36.9669 133.779 34.9948 134.134 32.9688 134.134C30.3394 134.134 28.141 133.617 26.3736 132.583C24.6063 131.527 23.3023 130.201 22.4618 128.606C21.6427 126.99 21.2332 125.309 21.2332 123.563C21.2332 121.515 21.7828 119.705 22.882 118.131C24.0028 116.558 25.4792 115.34 27.3112 114.478C29.1647 113.616 31.1476 113.185 33.2598 113.185Z" fill="#E9E9E9"></path> <path d="M64.8884 128.606C64.8884 128.563 64.9315 128.541 65.0177 128.541C65.0824 128.541 65.1363 128.563 65.1794 128.606C65.244 128.628 65.2764 128.649 65.2764 128.671C65.0609 130.352 64.9531 131.882 64.9531 133.262C64.9531 133.434 64.9208 133.563 64.8561 133.65C64.7914 133.714 64.6621 133.747 64.4681 133.747H50.1785C50.1138 133.747 50.0815 133.682 50.0815 133.553C50.0815 133.423 50.1138 133.359 50.1785 133.359C50.8682 133.359 51.3639 133.305 51.6657 133.197C51.989 133.089 52.2045 132.884 52.3122 132.583C52.42 132.259 52.4739 131.774 52.4739 131.128V116.159C52.4739 115.513 52.42 115.039 52.3122 114.737C52.2045 114.435 51.989 114.23 51.6657 114.123C51.3424 113.993 50.8466 113.929 50.1785 113.929C50.1138 113.929 50.0815 113.864 50.0815 113.735C50.0815 113.605 50.1138 113.541 50.1785 113.541H63.8862C64.1017 113.541 64.2095 113.638 64.2095 113.832L64.2742 118.131C64.2742 118.174 64.2095 118.207 64.0802 118.228C63.9724 118.25 63.9078 118.228 63.8862 118.164C63.5414 116.914 62.9594 115.987 62.1404 115.383C61.3214 114.78 60.2438 114.478 58.9075 114.478H57.9376C57.291 114.478 56.8168 114.618 56.5151 114.898C56.2133 115.179 56.0625 115.61 56.0625 116.192V122.787H58.7458C59.9959 122.787 60.955 122.571 61.6231 122.14C62.2913 121.709 62.6254 121.106 62.6254 120.33C62.6254 120.265 62.6792 120.233 62.787 120.233C62.9163 120.233 62.981 120.265 62.981 120.33L62.9487 123.239L62.981 124.791C63.0241 125.524 63.0456 126.106 63.0456 126.537C63.0456 126.58 62.981 126.602 62.8517 126.602C62.7223 126.602 62.6577 126.58 62.6577 126.537C62.6577 125.653 62.3128 124.964 61.6231 124.468C60.955 123.951 59.9851 123.692 58.7135 123.692H56.0625V130.999C56.0625 131.624 56.181 132.087 56.4181 132.389C56.6552 132.69 57.0324 132.841 57.5496 132.841H58.6165C60.2976 132.841 61.6447 132.496 62.6577 131.807C63.6707 131.117 64.4143 130.05 64.8884 128.606Z" fill="#E9E9E9"></path> <path d="M85.1512 117.679C85.1512 116.515 84.8818 115.599 84.343 114.931C83.8257 114.263 83.0929 113.929 82.1446 113.929C82.1014 113.929 82.0799 113.864 82.0799 113.735C82.0799 113.605 82.1014 113.541 82.1446 113.541L83.6964 113.573C84.5154 113.616 85.1727 113.638 85.6685 113.638C86.078 113.638 86.6707 113.616 87.4466 113.573L88.9337 113.541C88.9769 113.541 88.9984 113.605 88.9984 113.735C88.9984 113.864 88.9769 113.929 88.9337 113.929C88.0932 113.929 87.4358 114.263 86.9616 114.931C86.4875 115.599 86.2504 116.515 86.2504 117.679V126.666C86.2504 128.175 85.9163 129.501 85.2482 130.643C84.58 131.785 83.6317 132.669 82.4032 133.294C81.1962 133.897 79.7953 134.199 78.2004 134.199C76.6054 134.199 75.1937 133.897 73.9652 133.294C72.7367 132.69 71.7668 131.818 71.0555 130.675C70.3658 129.511 70.021 128.154 70.021 126.602V116.159C70.021 115.513 69.9563 115.039 69.827 114.737C69.7192 114.435 69.5037 114.23 69.1804 114.123C68.8787 113.993 68.3937 113.929 67.7256 113.929C67.6609 113.929 67.6286 113.864 67.6286 113.735C67.6286 113.605 67.6609 113.541 67.7256 113.541L69.4391 113.573C70.4305 113.616 71.2172 113.638 71.7991 113.638C72.4457 113.638 73.2647 113.616 74.2562 113.573L75.905 113.541C75.9696 113.541 76.0019 113.605 76.0019 113.735C76.0019 113.864 75.9696 113.929 75.905 113.929C75.2368 113.929 74.7411 113.993 74.4178 114.123C74.1161 114.252 73.9005 114.478 73.7712 114.801C73.6634 115.103 73.6096 115.577 73.6096 116.224V125.47C73.6096 128.035 74.1161 129.932 75.129 131.16C76.142 132.389 77.5753 133.003 79.4289 133.003C81.2178 133.003 82.6187 132.464 83.6317 131.386C84.6447 130.287 85.1512 128.725 85.1512 126.699V117.679Z" fill="#E9E9E9"></path> <path d="M112.312 133.359C112.355 133.359 112.377 133.423 112.377 133.553C112.377 133.682 112.355 133.747 112.312 133.747H106.557C106.083 133.747 105.2 132.863 103.906 131.096C102.613 129.307 101.051 126.817 99.2186 123.627C99.0462 123.649 98.7983 123.66 98.475 123.66C97.6344 123.66 97.0417 123.649 96.6969 123.627V131.128C96.6969 131.796 96.7508 132.281 96.8585 132.583C96.9663 132.884 97.171 133.089 97.4728 133.197C97.7961 133.305 98.3026 133.359 98.9923 133.359C99.0354 133.359 99.0569 133.423 99.0569 133.553C99.0569 133.682 99.0354 133.747 98.9923 133.747C98.281 133.747 97.7206 133.736 97.3111 133.714L94.8541 133.682L92.494 133.714C92.063 133.736 91.481 133.747 90.7482 133.747C90.6836 133.747 90.6513 133.682 90.6513 133.553C90.6513 133.423 90.6836 133.359 90.7482 133.359C91.4379 133.359 91.9337 133.305 92.2354 133.197C92.5587 133.089 92.7742 132.884 92.882 132.583C93.0113 132.259 93.076 131.774 93.076 131.128V116.159C93.076 115.513 93.0221 115.039 92.9143 114.737C92.8066 114.435 92.591 114.23 92.2677 114.123C91.9444 113.993 91.4487 113.929 90.7806 113.929C90.7375 113.929 90.7159 113.864 90.7159 113.735C90.7159 113.605 90.7375 113.541 90.7806 113.541L92.494 113.573C93.4855 113.616 94.2722 113.638 94.8541 113.638C95.4791 113.638 96.1688 113.605 96.9232 113.541C97.1603 113.519 97.462 113.497 97.8284 113.476C98.2164 113.454 98.669 113.444 99.1862 113.444C101.169 113.444 102.699 113.81 103.777 114.543C104.876 115.254 105.426 116.256 105.426 117.549C105.426 118.541 105.124 119.489 104.521 120.394C103.917 121.3 103.13 122.032 102.161 122.593C103.885 125.309 105.329 127.431 106.493 128.962C107.678 130.492 108.723 131.613 109.629 132.324C110.555 133.014 111.45 133.359 112.312 133.359ZM96.6969 122.69C97.2141 122.776 97.8392 122.819 98.572 122.819C99.3479 122.819 99.9621 122.701 100.415 122.464C100.867 122.226 101.191 121.817 101.385 121.235C101.6 120.653 101.708 119.834 101.708 118.778C101.708 117.011 101.449 115.793 100.932 115.125C100.415 114.457 99.6712 114.123 98.7013 114.123C97.9685 114.123 97.4512 114.284 97.1495 114.607C96.8477 114.931 96.6969 115.47 96.6969 116.224V122.69Z" fill="#E9E9E9"></path> <path d="M122.314 134.134C120.309 134.134 118.52 133.671 116.947 132.744C115.395 131.796 114.188 130.524 113.326 128.929C112.486 127.313 112.065 125.556 112.065 123.66C112.065 121.44 112.626 119.543 113.746 117.97C114.867 116.375 116.3 115.179 118.046 114.381C119.814 113.584 121.613 113.185 123.445 113.185C125.493 113.185 127.292 113.67 128.844 114.64C130.396 115.588 131.582 116.849 132.401 118.422C133.241 119.996 133.661 121.666 133.661 123.433C133.661 125.395 133.144 127.194 132.11 128.832C131.075 130.47 129.685 131.764 127.939 132.712C126.215 133.66 124.34 134.134 122.314 134.134ZM123.381 133.326C124.588 133.326 125.665 132.981 126.614 132.292C127.583 131.58 128.338 130.557 128.877 129.22C129.415 127.863 129.685 126.246 129.685 124.371C129.685 122.388 129.383 120.621 128.78 119.069C128.176 117.496 127.303 116.267 126.161 115.383C125.019 114.5 123.682 114.058 122.152 114.058C120.191 114.058 118.682 114.801 117.626 116.289C116.57 117.754 116.042 119.813 116.042 122.464C116.042 124.554 116.354 126.429 116.979 128.089C117.626 129.727 118.499 131.009 119.598 131.936C120.719 132.863 121.98 133.326 123.381 133.326Z" fill="#E9E9E9"></path> <path d="M142.217 130.999C142.217 131.688 142.292 132.195 142.443 132.518C142.594 132.82 142.874 133.035 143.283 133.165C143.714 133.294 144.393 133.359 145.32 133.359C145.385 133.359 145.417 133.423 145.417 133.553C145.417 133.682 145.385 133.747 145.32 133.747C144.437 133.747 143.747 133.736 143.251 133.714L140.438 133.682L138.078 133.714C137.647 133.736 137.065 133.747 136.333 133.747C136.268 133.747 136.236 133.682 136.236 133.553C136.236 133.423 136.268 133.359 136.333 133.359C137.022 133.359 137.518 133.305 137.82 133.197C138.143 133.089 138.359 132.884 138.466 132.583C138.574 132.259 138.628 131.774 138.628 131.128V116.159C138.628 115.513 138.574 115.039 138.466 114.737C138.359 114.435 138.143 114.23 137.82 114.123C137.496 113.993 137.001 113.929 136.333 113.929C136.268 113.929 136.236 113.864 136.236 113.735C136.236 113.605 136.268 113.541 136.333 113.541L138.046 113.573C139.037 113.616 139.824 113.638 140.406 113.638C140.923 113.638 141.538 113.605 142.249 113.541C142.529 113.519 142.885 113.497 143.316 113.476C143.747 113.454 144.243 113.444 144.803 113.444C147.001 113.444 148.736 113.907 150.008 114.834C151.28 115.739 151.915 117.151 151.915 119.069C151.915 120.405 151.571 121.537 150.881 122.464C150.191 123.39 149.297 124.091 148.198 124.565C147.12 125.039 146.01 125.276 144.868 125.276C144.286 125.276 143.779 125.222 143.348 125.115C143.305 125.115 143.283 125.061 143.283 124.953C143.283 124.888 143.294 124.824 143.316 124.759C143.359 124.694 143.402 124.673 143.445 124.694C143.768 124.78 144.135 124.824 144.544 124.824C145.536 124.824 146.355 124.36 147.001 123.433C147.669 122.507 148.004 121.192 148.004 119.489C148.004 117.787 147.637 116.472 146.904 115.545C146.193 114.618 145.148 114.155 143.768 114.155C143.165 114.155 142.755 114.295 142.54 114.575C142.324 114.855 142.217 115.405 142.217 116.224V130.999Z" fill="#E9E9E9"></path> <path d="M174.421 133.359C174.528 133.359 174.582 133.423 174.582 133.553C174.582 133.682 174.528 133.747 174.421 133.747C173.989 133.747 173.321 133.725 172.416 133.682C171.468 133.639 170.789 133.617 170.379 133.617C169.841 133.617 169.183 133.639 168.407 133.682C167.674 133.725 167.093 133.747 166.661 133.747C166.575 133.747 166.532 133.682 166.532 133.553C166.532 133.423 166.575 133.359 166.661 133.359C167.222 133.359 167.621 133.305 167.858 133.197C168.116 133.068 168.246 132.852 168.246 132.55C168.246 132.184 168.03 131.57 167.599 130.708L164.237 124.08H158.482L156.187 129.156C155.907 129.781 155.766 130.363 155.766 130.902C155.766 131.677 156.036 132.281 156.575 132.712C157.135 133.143 157.879 133.359 158.805 133.359C158.913 133.359 158.967 133.423 158.967 133.553C158.967 133.682 158.913 133.747 158.805 133.747C158.417 133.747 157.857 133.725 157.124 133.682C156.305 133.639 155.594 133.617 154.991 133.617C154.409 133.617 153.708 133.639 152.889 133.682C152.156 133.725 151.564 133.747 151.111 133.747C151.025 133.747 150.982 133.682 150.982 133.553C150.982 133.423 151.025 133.359 151.111 133.359C151.714 133.359 152.221 133.24 152.63 133.003C153.04 132.744 153.449 132.302 153.859 131.677C154.268 131.031 154.753 130.083 155.314 128.832L162.329 113.411C162.372 113.347 162.469 113.314 162.62 113.314C162.793 113.314 162.89 113.347 162.911 113.411L170.994 129.317C171.748 130.848 172.373 131.904 172.869 132.486C173.364 133.068 173.882 133.359 174.421 133.359ZM158.902 123.175H163.784L161.198 118.067L158.902 123.175Z" fill="#E9E9E9"></path> <path d="M12.5636 144.311H9.78948V151.904H8.63559V144.311H5.85547V143.337H12.5636V144.311Z" fill="#E9E9E9"></path> <path d="M18.1815 147.486C18.5163 147.486 18.8113 147.446 19.0663 147.367C19.3254 147.283 19.5407 147.167 19.7121 147.02C19.8874 146.868 20.019 146.689 20.1066 146.482C20.1943 146.274 20.2382 146.045 20.2382 145.794C20.2382 145.284 20.0708 144.899 19.736 144.64C19.4012 144.381 18.8989 144.252 18.2293 144.252H16.9618V147.486H18.1815ZM22.1394 151.904H21.1111C20.8998 151.904 20.7444 151.823 20.6447 151.659L18.4206 148.598C18.3529 148.503 18.2791 148.435 18.1994 148.395C18.1237 148.351 18.0041 148.329 17.8407 148.329H16.9618V151.904H15.8079V143.337H18.2293C18.7714 143.337 19.2397 143.393 19.6343 143.504C20.0289 143.612 20.3538 143.769 20.6089 143.977C20.8679 144.184 21.0593 144.435 21.1828 144.73C21.3064 145.021 21.3682 145.348 21.3682 145.71C21.3682 146.013 21.3203 146.296 21.2247 146.559C21.129 146.822 20.9895 147.06 20.8062 147.271C20.6268 147.478 20.4056 147.656 20.1425 147.803C19.8834 147.95 19.5885 148.062 19.2577 148.138C19.4051 148.222 19.5327 148.343 19.6403 148.503L22.1394 151.904Z" fill="#E9E9E9"></path> <path d="M29.8275 148.724L28.4823 145.238C28.4425 145.134 28.4006 145.015 28.3568 144.879C28.3129 144.74 28.2711 144.592 28.2312 144.437C28.1475 144.76 28.0618 145.029 27.9741 145.244L26.6289 148.724H29.8275ZM32.2429 151.904H31.3461C31.2425 151.904 31.1588 151.879 31.095 151.827C31.0312 151.775 30.9834 151.709 30.9515 151.629L30.1504 149.561H26.306L25.5049 151.629C25.481 151.701 25.4351 151.765 25.3674 151.821C25.2996 151.877 25.2159 151.904 25.1163 151.904H24.2195L27.6453 143.337H28.8171L32.2429 151.904Z" fill="#E9E9E9"></path> <path d="M42.2843 143.337V151.904H41.7044C41.6127 151.904 41.535 151.888 41.4712 151.857C41.4114 151.825 41.3516 151.771 41.2919 151.695L36.3355 145.238C36.3435 145.338 36.3494 145.435 36.3534 145.531C36.3574 145.627 36.3594 145.716 36.3594 145.8V151.904H35.343V143.337H35.9409C35.9927 143.337 36.0365 143.341 36.0724 143.349C36.1083 143.353 36.1402 143.363 36.1681 143.379C36.196 143.391 36.2239 143.411 36.2518 143.439C36.2797 143.462 36.3096 143.494 36.3415 143.534L41.2978 149.985C41.2899 149.882 41.2819 149.782 41.2739 149.686C41.2699 149.587 41.2679 149.493 41.2679 149.405V143.337H42.2843Z" fill="#E9E9E9"></path> <path d="M50.83 144.676C50.7941 144.736 50.7543 144.782 50.7104 144.814C50.6706 144.842 50.6208 144.855 50.561 144.855C50.4932 144.855 50.4135 144.822 50.3218 144.754C50.2301 144.686 50.1146 144.612 49.9751 144.533C49.8395 144.449 49.6741 144.373 49.4788 144.305C49.2875 144.238 49.0543 144.204 48.7793 144.204C48.5202 144.204 48.291 144.24 48.0917 144.311C47.8964 144.379 47.731 144.473 47.5955 144.592C47.464 144.712 47.3643 144.853 47.2966 145.017C47.2288 145.176 47.1949 145.35 47.1949 145.537C47.1949 145.776 47.2527 145.975 47.3683 146.135C47.4879 146.29 47.6433 146.424 47.8347 146.535C48.03 146.647 48.2492 146.745 48.4923 146.828C48.7394 146.908 48.9906 146.992 49.2456 147.08C49.5047 147.167 49.7558 147.267 49.999 147.379C50.2461 147.486 50.4653 147.624 50.6566 147.791C50.8519 147.958 51.0074 148.164 51.123 148.407C51.2425 148.65 51.3023 148.949 51.3023 149.304C51.3023 149.678 51.2386 150.031 51.111 150.362C50.9835 150.689 50.7961 150.974 50.549 151.217C50.3059 151.46 50.0049 151.651 49.6462 151.791C49.2915 151.93 48.8869 152 48.4325 152C47.8745 152 47.3683 151.9 46.9139 151.701C46.4596 151.498 46.0709 151.225 45.7481 150.882L46.0829 150.332C46.1148 150.288 46.1526 150.252 46.1965 150.224C46.2443 150.192 46.2961 150.177 46.3519 150.177C46.4038 150.177 46.4615 150.198 46.5253 150.242C46.5931 150.282 46.6688 150.334 46.7525 150.398C46.8362 150.462 46.9319 150.531 47.0395 150.607C47.1471 150.683 47.2687 150.753 47.4042 150.816C47.5437 150.88 47.7011 150.934 47.8765 150.978C48.0519 151.018 48.2492 151.037 48.4684 151.037C48.7434 151.037 48.9886 151 49.2038 150.924C49.419 150.848 49.6004 150.743 49.7479 150.607C49.8993 150.468 50.0149 150.302 50.0946 150.111C50.1743 149.919 50.2142 149.706 50.2142 149.471C50.2142 149.212 50.1544 149.001 50.0348 148.837C49.9193 148.67 49.7658 148.53 49.5745 148.419C49.3832 148.307 49.1639 148.214 48.9168 148.138C48.6697 148.058 48.4186 147.978 48.1635 147.899C47.9084 147.815 47.6573 147.719 47.4102 147.612C47.163 147.504 46.9438 147.365 46.7525 147.193C46.5612 147.022 46.4057 146.809 46.2862 146.553C46.1706 146.294 46.1128 145.975 46.1128 145.597C46.1128 145.294 46.1706 145.001 46.2862 144.718C46.4057 144.435 46.5771 144.184 46.8003 143.965C47.0275 143.745 47.3045 143.57 47.6314 143.439C47.9622 143.307 48.3409 143.241 48.7673 143.241C49.2456 143.241 49.6801 143.317 50.0707 143.468C50.4653 143.62 50.8121 143.839 51.111 144.126L50.83 144.676Z" fill="#E9E9E9"></path> <path d="M57.4421 147.779C57.773 147.779 58.0639 147.735 58.315 147.648C58.5701 147.56 58.7834 147.438 58.9548 147.283C59.1301 147.123 59.2617 146.934 59.3494 146.715C59.437 146.496 59.4809 146.254 59.4809 145.991C59.4809 145.445 59.3115 145.019 58.9727 144.712C58.6379 144.405 58.1277 144.252 57.4421 144.252H56.067V147.779H57.4421ZM57.4421 143.337C57.9842 143.337 58.4545 143.401 58.8531 143.528C59.2557 143.652 59.5885 143.829 59.8516 144.06C60.1146 144.291 60.3099 144.57 60.4375 144.897C60.569 145.224 60.6348 145.589 60.6348 145.991C60.6348 146.39 60.565 146.755 60.4255 147.086C60.286 147.416 60.0808 147.701 59.8097 147.941C59.5427 148.18 59.2098 148.367 58.8113 148.503C58.4167 148.634 57.9603 148.7 57.4421 148.7H56.067V151.904H54.9131V143.337H57.4421Z" fill="#E9E9E9"></path> <path d="M71.9835 147.624C71.9835 148.265 71.8818 148.855 71.6786 149.393C71.4753 149.927 71.1883 150.388 70.8176 150.774C70.4469 151.161 70.0005 151.462 69.4784 151.677C68.9602 151.888 68.3863 151.994 67.7565 151.994C67.1267 151.994 66.5528 151.888 66.0346 151.677C65.5165 151.462 65.072 151.161 64.7014 150.774C64.3307 150.388 64.0437 149.927 63.8404 149.393C63.6371 148.855 63.5355 148.265 63.5355 147.624C63.5355 146.982 63.6371 146.394 63.8404 145.86C64.0437 145.322 64.3307 144.859 64.7014 144.473C65.072 144.082 65.5165 143.779 66.0346 143.564C66.5528 143.349 67.1267 143.241 67.7565 143.241C68.3863 143.241 68.9602 143.349 69.4784 143.564C70.0005 143.779 70.4469 144.082 70.8176 144.473C71.1883 144.859 71.4753 145.322 71.6786 145.86C71.8818 146.394 71.9835 146.982 71.9835 147.624ZM70.7937 147.624C70.7937 147.098 70.7219 146.625 70.5785 146.207C70.435 145.788 70.2317 145.435 69.9686 145.148C69.7056 144.857 69.3867 144.634 69.012 144.479C68.6374 144.323 68.2188 144.246 67.7565 144.246C67.2981 144.246 66.8816 144.323 66.5069 144.479C66.1323 144.634 65.8114 144.857 65.5444 145.148C65.2813 145.435 65.078 145.788 64.9345 146.207C64.791 146.625 64.7193 147.098 64.7193 147.624C64.7193 148.15 64.791 148.622 64.9345 149.041C65.078 149.455 65.2813 149.808 65.5444 150.099C65.8114 150.386 66.1323 150.607 66.5069 150.762C66.8816 150.914 67.2981 150.99 67.7565 150.99C68.2188 150.99 68.6374 150.914 69.012 150.762C69.3867 150.607 69.7056 150.386 69.9686 150.099C70.2317 149.808 70.435 149.455 70.5785 149.041C70.7219 148.622 70.7937 148.15 70.7937 147.624Z" fill="#E9E9E9"></path> <path d="M77.9895 147.486C78.3243 147.486 78.6192 147.446 78.8743 147.367C79.1334 147.283 79.3487 147.167 79.52 147.02C79.6954 146.868 79.827 146.689 79.9146 146.482C80.0023 146.274 80.0462 146.045 80.0462 145.794C80.0462 145.284 79.8788 144.899 79.544 144.64C79.2091 144.381 78.7069 144.252 78.0373 144.252H76.7698V147.486H77.9895ZM81.9474 151.904H80.9191C80.7078 151.904 80.5524 151.823 80.4527 151.659L78.2286 148.598C78.1609 148.503 78.0871 148.435 78.0074 148.395C77.9317 148.351 77.8121 148.329 77.6487 148.329H76.7698V151.904H75.6159V143.337H78.0373C78.5794 143.337 79.0477 143.393 79.4423 143.504C79.8369 143.612 80.1618 143.769 80.4169 143.977C80.6759 144.184 80.8673 144.435 80.9908 144.73C81.1144 145.021 81.1762 145.348 81.1762 145.71C81.1762 146.013 81.1283 146.296 81.0327 146.559C80.937 146.822 80.7975 147.06 80.6142 147.271C80.4348 147.478 80.2136 147.656 79.9505 147.803C79.6914 147.95 79.3965 148.062 79.0657 148.138C79.2131 148.222 79.3407 148.343 79.4483 148.503L81.9474 151.904Z" fill="#E9E9E9"></path> <path d="M90.5988 144.311H87.8247V151.904H86.6708V144.311H83.8907V143.337H90.5988V144.311Z" fill="#E9E9E9"></path> <path d="M104.528 150.135C104.592 150.135 104.648 150.161 104.696 150.212L105.156 150.709C104.805 151.115 104.379 151.432 103.877 151.659C103.378 151.886 102.774 152 102.065 152C101.451 152 100.893 151.894 100.391 151.683C99.8887 151.468 99.4602 151.169 99.1055 150.786C98.7507 150.4 98.4757 149.937 98.2804 149.399C98.0851 148.861 97.9875 148.269 97.9875 147.624C97.9875 146.978 98.0891 146.386 98.2924 145.848C98.4956 145.31 98.7806 144.848 99.1473 144.461C99.518 144.074 99.9604 143.775 100.475 143.564C100.989 143.349 101.557 143.241 102.179 143.241C102.788 143.241 103.326 143.339 103.793 143.534C104.259 143.729 104.67 143.995 105.024 144.329L104.642 144.861C104.618 144.901 104.586 144.935 104.546 144.963C104.51 144.987 104.46 144.999 104.397 144.999C104.325 144.999 104.237 144.961 104.134 144.885C104.03 144.806 103.894 144.718 103.727 144.622C103.56 144.527 103.35 144.441 103.099 144.365C102.848 144.285 102.539 144.246 102.173 144.246C101.73 144.246 101.326 144.323 100.959 144.479C100.592 144.63 100.275 144.851 100.008 145.142C99.7452 145.433 99.5399 145.788 99.3925 146.207C99.245 146.625 99.1712 147.098 99.1712 147.624C99.1712 148.158 99.247 148.634 99.3984 149.053C99.5539 149.471 99.7631 149.826 100.026 150.117C100.293 150.404 100.606 150.623 100.965 150.774C101.328 150.926 101.718 151.002 102.137 151.002C102.392 151.002 102.621 150.988 102.824 150.96C103.032 150.928 103.221 150.88 103.392 150.816C103.568 150.753 103.729 150.673 103.877 150.577C104.028 150.477 104.177 150.36 104.325 150.224C104.393 150.165 104.46 150.135 104.528 150.135Z" fill="#E9E9E9"></path> <path d="M116.226 147.624C116.226 148.265 116.125 148.855 115.921 149.393C115.718 149.927 115.431 150.388 115.06 150.774C114.69 151.161 114.243 151.462 113.721 151.677C113.203 151.888 112.629 151.994 111.999 151.994C111.369 151.994 110.795 151.888 110.277 151.677C109.759 151.462 109.315 151.161 108.944 150.774C108.573 150.388 108.286 149.927 108.083 149.393C107.88 148.855 107.778 148.265 107.778 147.624C107.778 146.982 107.88 146.394 108.083 145.86C108.286 145.322 108.573 144.859 108.944 144.473C109.315 144.082 109.759 143.779 110.277 143.564C110.795 143.349 111.369 143.241 111.999 143.241C112.629 143.241 113.203 143.349 113.721 143.564C114.243 143.779 114.69 144.082 115.06 144.473C115.431 144.859 115.718 145.322 115.921 145.86C116.125 146.394 116.226 146.982 116.226 147.624ZM115.036 147.624C115.036 147.098 114.965 146.625 114.821 146.207C114.678 145.788 114.474 145.435 114.211 145.148C113.948 144.857 113.629 144.634 113.255 144.479C112.88 144.323 112.462 144.246 111.999 144.246C111.541 144.246 111.124 144.323 110.75 144.479C110.375 144.634 110.054 144.857 109.787 145.148C109.524 145.435 109.321 145.788 109.177 146.207C109.034 146.625 108.962 147.098 108.962 147.624C108.962 148.15 109.034 148.622 109.177 149.041C109.321 149.455 109.524 149.808 109.787 150.099C110.054 150.386 110.375 150.607 110.75 150.762C111.124 150.914 111.541 150.99 111.999 150.99C112.462 150.99 112.88 150.914 113.255 150.762C113.629 150.607 113.948 150.386 114.211 150.099C114.474 149.808 114.678 149.455 114.821 149.041C114.965 148.622 115.036 148.15 115.036 147.624Z" fill="#E9E9E9"></path> <path d="M128.773 143.337V151.904H127.757V145.609C127.757 145.525 127.759 145.435 127.763 145.34C127.771 145.244 127.778 145.146 127.786 145.047L124.845 150.404C124.753 150.583 124.614 150.673 124.426 150.673H124.259C124.072 150.673 123.932 150.583 123.84 150.404L120.839 145.023C120.863 145.234 120.875 145.429 120.875 145.609V151.904H119.859V143.337H120.714C120.817 143.337 120.897 143.347 120.953 143.367C121.009 143.387 121.062 143.442 121.114 143.534L124.074 148.807C124.121 148.903 124.167 149.003 124.211 149.106C124.259 149.21 124.303 149.316 124.343 149.423C124.383 149.316 124.424 149.21 124.468 149.106C124.512 148.999 124.56 148.897 124.612 148.801L127.517 143.534C127.565 143.442 127.617 143.387 127.673 143.367C127.733 143.347 127.814 143.337 127.918 143.337H128.773Z" fill="#E9E9E9"></path> <path d="M135.466 147.779C135.797 147.779 136.087 147.735 136.339 147.648C136.594 147.56 136.807 147.438 136.978 147.283C137.154 147.123 137.285 146.934 137.373 146.715C137.461 146.496 137.504 146.254 137.504 145.991C137.504 145.445 137.335 145.019 136.996 144.712C136.661 144.405 136.151 144.252 135.466 144.252H134.091V147.779H135.466ZM135.466 143.337C136.008 143.337 136.478 143.401 136.877 143.528C137.279 143.652 137.612 143.829 137.875 144.06C138.138 144.291 138.333 144.57 138.461 144.897C138.593 145.224 138.658 145.589 138.658 145.991C138.658 146.39 138.589 146.755 138.449 147.086C138.31 147.416 138.104 147.701 137.833 147.941C137.566 148.18 137.233 148.367 136.835 148.503C136.44 148.634 135.984 148.7 135.466 148.7H134.091V151.904H132.937V143.337H135.466Z" fill="#E9E9E9"></path> <path d="M146.045 148.724L144.7 145.238C144.66 145.134 144.619 145.015 144.575 144.879C144.531 144.74 144.489 144.592 144.449 144.437C144.365 144.76 144.28 145.029 144.192 145.244L142.847 148.724H146.045ZM148.461 151.904H147.564C147.46 151.904 147.377 151.879 147.313 151.827C147.249 151.775 147.201 151.709 147.169 151.629L146.368 149.561H142.524L141.723 151.629C141.699 151.701 141.653 151.765 141.585 151.821C141.518 151.877 141.434 151.904 141.334 151.904H140.437L143.863 143.337H145.035L148.461 151.904Z" fill="#E9E9E9"></path> <path d="M158.502 143.337V151.904H157.922C157.831 151.904 157.753 151.888 157.689 151.857C157.629 151.825 157.57 151.771 157.51 151.695L152.553 145.238C152.561 145.338 152.567 145.435 152.571 145.531C152.575 145.627 152.577 145.716 152.577 145.8V151.904H151.561V143.337H152.159C152.211 143.337 152.254 143.341 152.29 143.349C152.326 143.353 152.358 143.363 152.386 143.379C152.414 143.391 152.442 143.411 152.47 143.439C152.498 143.462 152.527 143.494 152.559 143.534L157.516 149.985C157.508 149.882 157.5 149.782 157.492 149.686C157.488 149.587 157.486 149.493 157.486 149.405V143.337H158.502Z" fill="#E9E9E9"></path> <path d="M165.882 148.491V151.904H164.722V148.491L161.583 143.337H162.6C162.703 143.337 162.785 143.363 162.845 143.415C162.905 143.462 162.956 143.526 163 143.606L164.961 146.936C165.033 147.076 165.099 147.207 165.159 147.331C165.218 147.45 165.27 147.572 165.314 147.695C165.358 147.572 165.408 147.45 165.464 147.331C165.519 147.207 165.581 147.076 165.649 146.936L167.604 143.606C167.64 143.538 167.69 143.476 167.753 143.421C167.817 143.365 167.899 143.337 167.999 143.337H169.021L165.882 148.491Z" fill="#E9E9E9"></path> <g clip-path="url(#clip0_642_36)"> <path fill-rule="evenodd" clip-rule="evenodd" d="M103.811 23.9416C108.859 21.0061 111.334 17.1984 111.173 11.3167C111.152 7.54093 111.141 3.77578 111.141 0C104.59 6.73613 93.2248 16.8688 82.3786 26.0582C74.1171 33.0577 71.2994 38.6087 81.3933 49.8829C76.4854 43.5332 78.1571 38.7257 85.0582 34.7904C91.2521 31.2379 97.6389 27.5366 103.811 23.9416Z" fill="url(#paint0_linear_642_36)"></path> <path d="M71.0845 52.2334C74.1814 52.7333 79.7859 53.3821 81.3933 49.8829C71.2994 38.6087 74.1171 33.0577 82.3786 26.0582C93.2248 16.8688 104.59 6.73613 111.141 0C98.6748 9.26041 86.2334 18.5421 73.8171 27.8451C69.7769 31.452 67.268 36.4475 66.798 41.8208C66.6051 45.5646 67.6124 50.1062 71.0845 52.2334Z" fill="url(#paint1_linear_642_36)"></path> <path d="M81.3731 49.883C81.3731 49.883 80.623 49.2768 79.3799 48.1812C73.5075 42.9802 65.8348 34.9394 73.7968 27.8452C71.2423 29.8065 68.9833 32.1202 67.0886 34.7161C61.4841 42.1932 62.5557 54.2438 62.8236 63.2206C62.9522 67.5494 68.0959 68.5386 71.3964 66.773C74.9649 64.8798 78.8012 62.7526 82.284 60.8806C87.6313 58.0196 85.0594 52.776 81.3731 49.883Z" fill="url(#paint2_linear_642_36)"></path> <path fill-rule="evenodd" clip-rule="evenodd" d="M70.3693 76.5788C65.322 79.5356 62.8466 83.3326 63.0074 89.2143C63.0288 92.9937 63.0395 96.7659 63.0395 100.531C70.3229 93.3026 77.0908 87.2405 89.6586 75.9832C92.0365 73.8532 95.779 71.3644 96.6232 70.5818C102.801 64.8543 96.9762 54.819 92.8088 50.6375C97.7274 56.9766 96.045 61.7947 89.1546 65.73C82.9285 69.2825 76.5525 72.9838 70.3693 76.5788Z" fill="url(#paint3_linear_642_36)"></path> <path d="M103.118 48.287C100.031 47.7765 94.4162 47.1277 92.8088 50.6375C96.9762 54.819 102.801 64.8543 96.6232 70.5818C95.779 71.3644 92.0365 73.8532 89.6586 75.9832C77.0908 87.2405 70.3229 93.3026 63.0395 100.531C75.5059 91.2706 87.9544 81.9925 100.385 72.6966C104.432 69.0818 106.942 64.0736 107.404 58.689C107.597 54.9451 106.59 50.4142 103.118 48.287Z" fill="url(#paint4_linear_642_36)"></path> <path d="M92.8099 50.659C92.8099 50.659 93.56 51.2547 94.8031 52.3608C100.686 57.5618 108.348 65.592 100.386 72.6968C102.936 70.7301 105.194 68.4172 107.094 65.826C112.731 58.3808 111.638 46.2876 111.381 37.3109C111.252 32.9926 106.119 31.9929 102.808 33.7584C99.2074 35.6623 95.371 37.7895 91.8883 39.6508C86.5517 42.5438 89.1878 47.7554 92.8099 50.659Z" fill="url(#paint5_linear_642_36)"></path> </g> <defs> <linearGradient id="paint0_linear_642_36" x1="124.577" y1="26.2404" x2="72.9683" y2="36.7798" gradientUnits="userSpaceOnUse"> <stop stop-color="#6219FF"></stop> <stop offset="1" stop-color="#190050"></stop> </linearGradient> <linearGradient id="paint1_linear_642_36" x1="111.286" y1="2.68663e-06" x2="72.0591" y2="36.7652" gradientUnits="userSpaceOnUse"> <stop stop-color="#1F025C"></stop> <stop offset="0.447917" stop-color="#8951FF"></stop> <stop offset="0.651042" stop-color="#AB83FF"></stop> <stop offset="1" stop-color="#4400D6"></stop> </linearGradient> <linearGradient id="paint2_linear_642_36" x1="89.5066" y1="48.9683" x2="62.5361" y2="47.133" gradientUnits="userSpaceOnUse"> <stop offset="0.06" stop-color="#DDDDDD"></stop> <stop offset="0.28" stop-color="#F7F7F7"></stop> <stop offset="0.64" stop-color="#D6D6D6"></stop> <stop offset="1" stop-color="#939393"></stop> </linearGradient> <linearGradient id="paint3_linear_642_36" x1="62.9104" y1="81.4406" x2="104.957" y2="59.631" gradientUnits="userSpaceOnUse"> <stop stop-color="#FF0101"></stop> <stop offset="0.432292" stop-color="#FF5151"></stop> <stop offset="0.723958" stop-color="#EE3737"></stop> <stop offset="1" stop-color="#7C0101"></stop> </linearGradient> <linearGradient id="paint4_linear_642_36" x1="62.8962" y1="98.9976" x2="99.7296" y2="70.4087" gradientUnits="userSpaceOnUse"> <stop stop-color="#5C0000"></stop> <stop offset="1" stop-color="#FF0000"></stop> <stop offset="1" stop-color="#FF0000"></stop> </linearGradient> <linearGradient id="paint5_linear_642_36" x1="113.569" y1="45.0112" x2="91.4284" y2="59.1782" gradientUnits="userSpaceOnUse"> <stop offset="0.06" stop-color="#DFDFDF"></stop> <stop offset="0.286458" stop-color="#F7F7F7"></stop> <stop offset="0.64" stop-color="#D0D0D0"></stop> <stop offset="0.993848" stop-color="#8F8F8F"></stop> </linearGradient> <clipPath id="clip0_642_36"> <rect width="49.0689" height="100.531" fill="white" transform="translate(62.5547)"></rect> </clipPath> </defs> </svg> 