<?xml version="1.0" encoding="UTF-8"?> <svg xmlns="http://www.w3.org/2000/svg" width="179" height="128" viewBox="0 0 179 128" fill="none"> <g clip-path="url(#clip0_642_92)"> <path fill-rule="evenodd" clip-rule="evenodd" d="M104.248 20.9219C108.658 18.3567 110.821 15.0292 110.681 9.88936C110.662 6.58981 110.653 3.29955 110.653 0C104.928 5.88652 94.9962 14.7412 85.518 22.7715C78.2986 28.8882 75.8362 33.7391 84.657 43.5912C80.3681 38.0424 81.8289 33.8413 87.8597 30.4023C93.2724 27.298 98.8536 24.0635 104.248 20.9219Z" fill="url(#paint0_linear_642_92)"></path> <path d="M75.6484 45.6453C78.3547 46.0822 83.2523 46.6491 84.657 43.5912C75.8362 33.7391 78.2986 28.8882 85.518 22.7715C94.9962 14.7412 104.928 5.88652 110.653 0C99.7588 8.09242 88.8867 16.2034 78.0363 24.333C74.5057 27.485 72.3133 31.8504 71.9026 36.546C71.734 39.8177 72.6143 43.7864 75.6484 45.6453Z" fill="url(#paint1_linear_642_92)"></path> <path d="M84.6395 43.5912C84.6395 43.5912 83.984 43.0614 82.8977 42.1041C77.7659 37.5591 71.061 30.5324 78.0188 24.333C75.7864 26.0469 73.8124 28.0688 72.1566 30.3373C67.259 36.8713 68.1954 47.402 68.4296 55.2465C68.5419 59.0294 73.0369 59.8938 75.9211 58.3509C79.0395 56.6965 82.392 54.8376 85.4355 53.2018C90.1083 50.7015 87.8609 46.1193 84.6395 43.5912Z" fill="url(#paint2_linear_642_92)"></path> <path fill-rule="evenodd" clip-rule="evenodd" d="M75.0238 66.9201C70.6131 69.504 68.4499 72.8221 68.5904 77.962C68.6091 81.2646 68.6185 84.5611 68.6185 87.8513C74.9833 81.5346 80.8975 76.2371 91.8802 66.3997C93.9582 64.5383 97.2287 62.3634 97.9664 61.6795C103.365 56.6744 98.2749 47.9048 94.633 44.2508C98.9314 49.7903 97.4611 54.0007 91.4398 57.4397C85.999 60.5441 80.4271 63.7786 75.0238 66.9201Z" fill="url(#paint3_linear_642_92)"></path> <path d="M103.642 42.1967C100.945 41.7506 96.0377 41.1836 94.633 44.2508C98.2749 47.9048 103.365 56.6744 97.9664 61.6795C97.2287 62.3634 93.9582 64.5383 91.8802 66.3997C80.8975 76.2371 74.9833 81.5346 68.6185 87.8513C79.5125 79.7589 90.3909 71.651 101.254 63.5276C104.791 60.3688 106.984 55.9922 107.387 51.2867C107.556 48.0151 106.676 44.0556 103.642 42.1967Z" fill="url(#paint4_linear_642_92)"></path> <path d="M94.6324 44.2696C94.6324 44.2696 95.2879 44.7901 96.3742 45.7567C101.515 50.3018 108.211 57.3191 101.253 63.5278C103.481 61.8092 105.455 59.7879 107.115 57.5236C112.041 51.0174 111.086 40.4496 110.861 32.605C110.749 28.8314 106.263 27.9578 103.369 29.5006C100.223 31.1644 96.8705 33.0233 93.8271 34.6498C89.1636 37.1779 91.4672 41.7322 94.6324 44.2696Z" fill="url(#paint5_linear_642_92)"></path> </g> <path d="M2.66231 126.546C2.88428 126.546 3.0755 126.521 3.23596 126.47C3.39642 126.419 3.52746 126.349 3.62908 126.258C3.73338 126.164 3.8096 126.054 3.85774 125.929C3.90588 125.8 3.92994 125.66 3.92994 125.507C3.92994 125.211 3.82431 124.977 3.61304 124.805C3.40176 124.632 3.08486 124.545 2.66231 124.545H1.41875V126.546H2.66231ZM1.41875 122.03V123.991H2.44569C2.66499 123.991 2.85486 123.967 3.01532 123.919C3.17846 123.871 3.31217 123.804 3.41647 123.718C3.52345 123.633 3.60234 123.53 3.65315 123.409C3.70396 123.286 3.72937 123.153 3.72937 123.008C3.72937 122.669 3.62774 122.421 3.4245 122.266C3.22125 122.108 2.90568 122.03 2.47778 122.03H1.41875ZM2.47778 121.416C2.83079 121.416 3.13433 121.451 3.38839 121.52C3.64513 121.59 3.85506 121.689 4.0182 121.817C4.18401 121.945 4.30569 122.103 4.38324 122.29C4.4608 122.475 4.49958 122.683 4.49958 122.916C4.49958 123.058 4.47684 123.194 4.43138 123.325C4.38859 123.454 4.32307 123.574 4.23482 123.686C4.14656 123.799 4.03424 123.9 3.89785 123.991C3.76414 124.079 3.60635 124.152 3.4245 124.208C3.84704 124.288 4.16395 124.439 4.37522 124.661C4.58917 124.88 4.69614 125.169 4.69614 125.528C4.69614 125.771 4.65068 125.993 4.55975 126.193C4.4715 126.394 4.34045 126.567 4.16662 126.711C3.99546 126.855 3.78419 126.968 3.53281 127.048C3.28142 127.125 2.99527 127.164 2.67435 127.164H0.644531V121.416H2.47778Z" fill="#E9E9E9"></path> <path d="M9.24555 124.874V127.164H8.46732V124.874L6.36128 121.416H7.04324C7.11277 121.416 7.16759 121.433 7.20771 121.468C7.24782 121.5 7.28259 121.543 7.31201 121.596L8.62778 123.831C8.67592 123.924 8.72004 124.013 8.76016 124.095C8.80027 124.176 8.83504 124.257 8.86446 124.34C8.89387 124.257 8.9273 124.176 8.96474 124.095C9.00218 124.013 9.04364 123.924 9.0891 123.831L10.4009 121.596C10.4249 121.551 10.4584 121.509 10.5011 121.472C10.5439 121.434 10.5988 121.416 10.6656 121.416H11.3516L9.24555 124.874Z" fill="#E9E9E9"></path> <path d="M20.2677 126.53L20.2637 127.164H16.7215V121.416H20.2637V122.05H17.4998V123.959H19.7382V124.569H17.4998V126.53H20.2677Z" fill="#E9E9E9"></path> <path d="M26.0575 126.51V127.164H22.7961V121.416H23.5703V126.51H26.0575Z" fill="#E9E9E9"></path> <path d="M31.4142 125.03L30.5116 122.691C30.4849 122.622 30.4568 122.542 30.4274 122.451C30.3979 122.357 30.3699 122.258 30.3431 122.154C30.287 122.37 30.2295 122.551 30.1706 122.695L29.268 125.03H31.4142ZM33.0348 127.164H32.4331C32.3636 127.164 32.3074 127.147 32.2646 127.112C32.2218 127.077 32.1897 127.033 32.1683 126.98L31.6308 125.592H29.0514L28.5139 126.98C28.4978 127.028 28.4671 127.071 28.4216 127.108C28.3761 127.145 28.32 127.164 28.2531 127.164H27.6514L29.95 121.416H30.7362L33.0348 127.164Z" fill="#E9E9E9"></path> <path d="M37.253 126.546C37.4749 126.546 37.6662 126.521 37.8266 126.47C37.9871 126.419 38.1181 126.349 38.2197 126.258C38.324 126.164 38.4003 126.054 38.4484 125.929C38.4965 125.8 38.5206 125.66 38.5206 125.507C38.5206 125.211 38.415 124.977 38.2037 124.805C37.9924 124.632 37.6755 124.545 37.253 124.545H36.0094V126.546H37.253ZM36.0094 122.03V123.991H37.0364C37.2556 123.991 37.4455 123.967 37.606 123.919C37.7691 123.871 37.9028 123.804 38.0071 123.718C38.1141 123.633 38.193 123.53 38.2438 123.409C38.2946 123.286 38.32 123.153 38.32 123.008C38.32 122.669 38.2184 122.421 38.0152 122.266C37.8119 122.108 37.4963 122.03 37.0684 122.03H36.0094ZM37.0684 121.416C37.4215 121.416 37.725 121.451 37.9791 121.52C38.2358 121.59 38.4457 121.689 38.6089 121.817C38.7747 121.945 38.8963 122.103 38.9739 122.29C39.0515 122.475 39.0902 122.683 39.0902 122.916C39.0902 123.058 39.0675 123.194 39.022 123.325C38.9793 123.454 38.9137 123.574 38.8255 123.686C38.7372 123.799 38.6249 123.9 38.4885 123.991C38.3548 124.079 38.197 124.152 38.0152 124.208C38.4377 124.288 38.7546 124.439 38.9659 124.661C39.1798 124.88 39.2868 125.169 39.2868 125.528C39.2868 125.771 39.2413 125.993 39.1504 126.193C39.0622 126.394 38.9311 126.567 38.7573 126.711C38.5861 126.855 38.3749 126.968 38.1235 127.048C37.8721 127.125 37.5859 127.164 37.265 127.164H35.2352V121.416H37.0684Z" fill="#E9E9E9"></path> <path d="M47.1773 124.292C47.1773 124.723 47.1091 125.118 46.9727 125.479C46.8363 125.838 46.6438 126.147 46.395 126.406C46.1463 126.665 45.8468 126.867 45.4965 127.012C45.1488 127.154 44.7637 127.224 44.3412 127.224C43.9186 127.224 43.5335 127.154 43.1858 127.012C42.8382 126.867 42.54 126.665 42.2913 126.406C42.0426 126.147 41.85 125.838 41.7136 125.479C41.5772 125.118 41.509 124.723 41.509 124.292C41.509 123.861 41.5772 123.467 41.7136 123.109C41.85 122.748 42.0426 122.437 42.2913 122.178C42.54 121.916 42.8382 121.713 43.1858 121.568C43.5335 121.424 43.9186 121.352 44.3412 121.352C44.7637 121.352 45.1488 121.424 45.4965 121.568C45.8468 121.713 46.1463 121.916 46.395 122.178C46.6438 122.437 46.8363 122.748 46.9727 123.109C47.1091 123.467 47.1773 123.861 47.1773 124.292ZM46.379 124.292C46.379 123.939 46.3309 123.622 46.2346 123.341C46.1383 123.06 46.0019 122.824 45.8254 122.631C45.6489 122.436 45.435 122.286 45.1836 122.182C44.9322 122.078 44.6514 122.025 44.3412 122.025C44.0336 122.025 43.7541 122.078 43.5028 122.182C43.2514 122.286 43.0361 122.436 42.8569 122.631C42.6804 122.824 42.544 123.06 42.4477 123.341C42.3515 123.622 42.3033 123.939 42.3033 124.292C42.3033 124.645 42.3515 124.962 42.4477 125.243C42.544 125.521 42.6804 125.758 42.8569 125.953C43.0361 126.145 43.2514 126.294 43.5028 126.398C43.7541 126.5 44.0336 126.55 44.3412 126.55C44.6514 126.55 44.9322 126.5 45.1836 126.398C45.435 126.294 45.6489 126.145 45.8254 125.953C46.0019 125.758 46.1383 125.521 46.2346 125.243C46.3309 124.962 46.379 124.645 46.379 124.292Z" fill="#E9E9E9"></path> <path d="M51.3274 124.2C51.5521 124.2 51.75 124.173 51.9211 124.119C52.095 124.063 52.2394 123.986 52.3544 123.887C52.472 123.785 52.5603 123.665 52.6191 123.526C52.678 123.387 52.7074 123.233 52.7074 123.064C52.7074 122.722 52.5951 122.464 52.3704 122.29C52.1458 122.116 51.8088 122.03 51.3595 122.03H50.5091V124.2H51.3274ZM53.983 127.164H53.2931C53.1513 127.164 53.047 127.109 52.9802 127L51.4879 124.946C51.4424 124.882 51.3929 124.836 51.3395 124.809C51.2886 124.78 51.2084 124.765 51.0988 124.765H50.5091V127.164H49.7349V121.416H51.3595C51.7232 121.416 52.0375 121.453 52.3022 121.528C52.567 121.6 52.7849 121.706 52.9561 121.845C53.1299 121.984 53.2583 122.153 53.3412 122.35C53.4241 122.546 53.4656 122.765 53.4656 123.008C53.4656 123.212 53.4335 123.401 53.3693 123.578C53.3051 123.754 53.2115 123.914 53.0885 124.055C52.9681 124.194 52.8197 124.313 52.6432 124.412C52.4694 124.511 52.2715 124.586 52.0495 124.637C52.1484 124.693 52.234 124.775 52.3062 124.882L53.983 127.164Z" fill="#E9E9E9"></path> <path d="M59.2618 125.03L58.3592 122.691C58.3324 122.622 58.3044 122.542 58.2749 122.451C58.2455 122.357 58.2175 122.258 58.1907 122.154C58.1345 122.37 58.077 122.551 58.0182 122.695L57.1156 125.03H59.2618ZM60.8824 127.164H60.2807C60.2112 127.164 60.155 127.147 60.1122 127.112C60.0694 127.077 60.0373 127.033 60.0159 126.98L59.4784 125.592H56.899L56.3615 126.98C56.3454 127.028 56.3147 127.071 56.2692 127.108C56.2237 127.145 56.1676 127.164 56.1007 127.164H55.499L57.7976 121.416H58.5838L60.8824 127.164Z" fill="#E9E9E9"></path> <path d="M66.4058 122.07H64.5445V127.164H63.7703V122.07H61.9049V121.416H66.4058V122.07Z" fill="#E9E9E9"></path> <path d="M72.2491 126.53L72.2451 127.164H68.703V121.416H72.2451V122.05H69.4812V123.959H71.7196V124.569H69.4812V126.53H72.2491Z" fill="#E9E9E9"></path> <path d="M79.7598 124.292C79.7598 124.723 79.6916 125.114 79.5552 125.467C79.4188 125.82 79.2263 126.123 78.9776 126.374C78.7289 126.625 78.4293 126.821 78.079 126.96C77.7313 127.096 77.3462 127.164 76.9237 127.164H74.7775V121.416H76.9237C77.3462 121.416 77.7313 121.485 78.079 121.624C78.4293 121.761 78.7289 121.956 78.9776 122.21C79.2263 122.461 79.4188 122.764 79.5552 123.117C79.6916 123.47 79.7598 123.861 79.7598 124.292ZM78.9615 124.292C78.9615 123.939 78.9134 123.623 78.8171 123.345C78.7208 123.067 78.5845 122.832 78.4079 122.639C78.2314 122.447 78.0175 122.3 77.7661 122.198C77.5147 122.096 77.2339 122.046 76.9237 122.046H75.5558V126.534H76.9237C77.2339 126.534 77.5147 126.484 77.7661 126.382C78.0175 126.28 78.2314 126.135 78.4079 125.945C78.5845 125.752 78.7208 125.517 78.8171 125.239C78.9134 124.961 78.9615 124.645 78.9615 124.292Z" fill="#E9E9E9"></path> <path d="M88.7624 122.314C88.7384 122.354 88.7116 122.385 88.6822 122.407C88.6554 122.425 88.622 122.435 88.5819 122.435C88.5364 122.435 88.483 122.412 88.4214 122.366C88.3599 122.321 88.2824 122.272 88.1888 122.218C88.0978 122.162 87.9869 122.111 87.8558 122.066C87.7275 122.02 87.571 121.997 87.3865 121.997C87.2126 121.997 87.0589 122.021 86.9252 122.07C86.7941 122.115 86.6831 122.178 86.5922 122.258C86.5039 122.338 86.4371 122.433 86.3916 122.543C86.3462 122.65 86.3234 122.766 86.3234 122.892C86.3234 123.052 86.3622 123.186 86.4398 123.293C86.52 123.397 86.6243 123.487 86.7527 123.562C86.8837 123.637 87.0308 123.702 87.1939 123.758C87.3597 123.812 87.5282 123.868 87.6994 123.927C87.8732 123.986 88.0417 124.053 88.2048 124.128C88.3706 124.2 88.5177 124.292 88.6461 124.404C88.7771 124.517 88.8814 124.654 88.959 124.817C89.0392 124.981 89.0793 125.181 89.0793 125.419C89.0793 125.671 89.0365 125.907 88.951 126.129C88.8654 126.349 88.7397 126.54 88.5739 126.703C88.4107 126.866 88.2088 126.994 87.9681 127.088C87.7301 127.182 87.4587 127.228 87.1538 127.228C86.7794 127.228 86.4398 127.162 86.1349 127.028C85.83 126.891 85.5693 126.708 85.3527 126.478L85.5773 126.109C85.5987 126.08 85.6241 126.056 85.6535 126.037C85.6856 126.016 85.7204 126.005 85.7578 126.005C85.7926 126.005 85.8314 126.02 85.8741 126.049C85.9196 126.076 85.9704 126.111 86.0266 126.153C86.0827 126.196 86.1469 126.243 86.2191 126.294C86.2913 126.345 86.3729 126.391 86.4638 126.434C86.5574 126.477 86.6631 126.513 86.7807 126.542C86.8984 126.569 87.0308 126.583 87.1779 126.583C87.3624 126.583 87.5269 126.557 87.6713 126.506C87.8157 126.456 87.9374 126.385 88.0363 126.294C88.138 126.2 88.2155 126.089 88.269 125.961C88.3225 125.832 88.3492 125.689 88.3492 125.532C88.3492 125.358 88.3091 125.216 88.2289 125.106C88.1513 124.994 88.0484 124.9 87.92 124.826C87.7916 124.751 87.6446 124.688 87.4787 124.637C87.3129 124.583 87.1444 124.53 86.9733 124.477C86.8021 124.42 86.6337 124.356 86.4678 124.284C86.302 124.212 86.1549 124.118 86.0266 124.003C85.8982 123.888 85.7939 123.745 85.7137 123.574C85.6361 123.4 85.5974 123.186 85.5974 122.932C85.5974 122.729 85.6361 122.532 85.7137 122.342C85.7939 122.153 85.9089 121.984 86.0587 121.837C86.2111 121.69 86.397 121.572 86.6163 121.484C86.8382 121.396 87.0923 121.352 87.3785 121.352C87.6994 121.352 87.9909 121.402 88.253 121.504C88.5177 121.606 88.7504 121.753 88.951 121.945L88.7624 122.314Z" fill="#E9E9E9"></path> <path d="M95.1685 126.53L95.1645 127.164H91.6224V121.416H95.1645V122.05H92.4006V123.959H94.639V124.569H92.4006V126.53H95.1685Z" fill="#E9E9E9"></path> <path d="M99.2895 124.2C99.5142 124.2 99.7121 124.173 99.8832 124.119C100.057 124.063 100.201 123.986 100.316 123.887C100.434 123.785 100.522 123.665 100.581 123.526C100.64 123.387 100.669 123.233 100.669 123.064C100.669 122.722 100.557 122.464 100.333 122.29C100.108 122.116 99.7709 122.03 99.3216 122.03H98.4712V124.2H99.2895ZM101.945 127.164H101.255C101.113 127.164 101.009 127.109 100.942 127L99.45 124.946C99.4045 124.882 99.355 124.836 99.3016 124.809C99.2507 124.78 99.1705 124.765 99.0609 124.765H98.4712V127.164H97.697V121.416H99.3216C99.6853 121.416 99.9996 121.453 100.264 121.528C100.529 121.6 100.747 121.706 100.918 121.845C101.092 121.984 101.22 122.153 101.303 122.35C101.386 122.546 101.428 122.765 101.428 123.008C101.428 123.212 101.396 123.401 101.331 123.578C101.267 123.754 101.174 123.914 101.051 124.055C100.93 124.194 100.782 124.313 100.605 124.412C100.431 124.511 100.234 124.586 100.012 124.637C100.111 124.693 100.196 124.775 100.268 124.882L101.945 127.164Z" fill="#E9E9E9"></path> <path d="M108.696 121.416L106.353 127.164H105.655L103.312 121.416H103.934C104.004 121.416 104.06 121.433 104.102 121.468C104.145 121.503 104.177 121.547 104.199 121.6L105.819 125.656C105.854 125.747 105.888 125.846 105.92 125.953C105.954 126.06 105.985 126.172 106.012 126.29C106.039 126.172 106.067 126.06 106.096 125.953C106.126 125.846 106.158 125.747 106.192 125.656L107.809 121.6C107.825 121.555 107.856 121.513 107.901 121.476C107.95 121.436 108.007 121.416 108.074 121.416H108.696Z" fill="#E9E9E9"></path> <path d="M111.674 127.164H110.896V121.416H111.674V127.164Z" fill="#E9E9E9"></path> <path d="M118.624 125.977C118.667 125.977 118.705 125.994 118.737 126.029L119.046 126.362C118.81 126.635 118.524 126.847 118.187 127C117.853 127.152 117.448 127.228 116.972 127.228C116.56 127.228 116.185 127.158 115.848 127.016C115.511 126.871 115.224 126.671 114.986 126.414C114.748 126.155 114.563 125.844 114.432 125.483C114.301 125.122 114.236 124.725 114.236 124.292C114.236 123.859 114.304 123.462 114.44 123.101C114.577 122.74 114.768 122.429 115.014 122.17C115.263 121.91 115.56 121.71 115.905 121.568C116.25 121.424 116.631 121.352 117.048 121.352C117.457 121.352 117.818 121.417 118.131 121.548C118.444 121.679 118.719 121.857 118.957 122.082L118.701 122.439C118.685 122.465 118.663 122.488 118.636 122.507C118.612 122.523 118.579 122.531 118.536 122.531C118.488 122.531 118.429 122.506 118.36 122.455C118.29 122.401 118.199 122.342 118.087 122.278C117.974 122.214 117.834 122.157 117.666 122.106C117.497 122.052 117.29 122.025 117.044 122.025C116.747 122.025 116.476 122.078 116.229 122.182C115.983 122.284 115.771 122.432 115.592 122.627C115.415 122.822 115.277 123.06 115.178 123.341C115.08 123.622 115.03 123.939 115.03 124.292C115.03 124.65 115.081 124.97 115.182 125.251C115.287 125.532 115.427 125.77 115.604 125.965C115.783 126.157 115.993 126.304 116.234 126.406C116.477 126.508 116.739 126.558 117.02 126.558C117.191 126.558 117.345 126.549 117.481 126.53C117.62 126.509 117.747 126.477 117.862 126.434C117.98 126.391 118.088 126.338 118.187 126.274C118.289 126.207 118.389 126.128 118.488 126.037C118.533 125.997 118.579 125.977 118.624 125.977Z" fill="#E9E9E9"></path> <path d="M124.938 126.53L124.934 127.164H121.392V121.416H124.934V122.05H122.17V123.959H124.409V124.569H122.17V126.53H124.938Z" fill="#E9E9E9"></path> <path d="M131.934 126.234C131.972 126.295 131.984 126.354 131.97 126.41C131.96 126.464 131.924 126.505 131.862 126.534L131.629 126.647L130.631 125.086V124.994L131.629 123.434L131.862 123.546C131.924 123.575 131.96 123.618 131.97 123.674C131.984 123.728 131.972 123.785 131.934 123.847L131.3 124.894C131.263 124.961 131.226 125.009 131.188 125.038C131.226 125.073 131.263 125.122 131.3 125.187L131.934 126.234ZM133.122 126.234C133.159 126.295 133.171 126.354 133.158 126.41C133.147 126.464 133.111 126.505 133.049 126.534L132.817 126.647L131.818 125.086V124.994L132.817 123.434L133.049 123.546C133.111 123.575 133.147 123.618 133.158 123.674C133.171 123.728 133.159 123.785 133.122 123.847L132.488 124.894C132.45 124.961 132.413 125.009 132.376 125.038C132.413 125.073 132.45 125.122 132.488 125.187L133.122 126.234Z" fill="#E9E9E9"></path> <path d="M139.393 126.53L139.389 127.164H135.847V121.416H139.389V122.05H136.625V123.959H138.864V124.569H136.625V126.53H139.393Z" fill="#E9E9E9"></path> <path d="M144.14 126.546C144.378 126.546 144.591 126.506 144.778 126.426C144.965 126.346 145.123 126.234 145.251 126.089C145.382 125.945 145.481 125.772 145.548 125.572C145.618 125.371 145.652 125.15 145.652 124.91V121.416H146.427V124.91C146.427 125.241 146.373 125.549 146.266 125.832C146.162 126.116 146.011 126.362 145.813 126.571C145.618 126.776 145.378 126.938 145.095 127.056C144.811 127.174 144.493 127.232 144.14 127.232C143.787 127.232 143.469 127.174 143.185 127.056C142.902 126.938 142.661 126.776 142.463 126.571C142.265 126.362 142.113 126.116 142.006 125.832C141.902 125.549 141.85 125.241 141.85 124.91V121.416H142.624V124.906C142.624 125.146 142.657 125.367 142.724 125.568C142.794 125.768 142.893 125.941 143.021 126.085C143.152 126.23 143.311 126.343 143.498 126.426C143.688 126.506 143.902 126.546 144.14 126.546Z" fill="#E9E9E9"></path> <path d="M150.858 124.2C151.083 124.2 151.281 124.173 151.452 124.119C151.626 124.063 151.77 123.986 151.885 123.887C152.003 123.785 152.091 123.665 152.15 123.526C152.209 123.387 152.238 123.233 152.238 123.064C152.238 122.722 152.126 122.464 151.901 122.29C151.677 122.116 151.34 122.03 150.89 122.03H150.04V124.2H150.858ZM153.514 127.164H152.824C152.682 127.164 152.578 127.109 152.511 127L151.019 124.946C150.973 124.882 150.924 124.836 150.87 124.809C150.819 124.78 150.739 124.765 150.63 124.765H150.04V127.164H149.266V121.416H150.89C151.254 121.416 151.568 121.453 151.833 121.528C152.098 121.6 152.316 121.706 152.487 121.845C152.661 121.984 152.789 122.153 152.872 122.35C152.955 122.546 152.996 122.765 152.996 123.008C152.996 123.212 152.964 123.401 152.9 123.578C152.836 123.754 152.742 123.914 152.619 124.055C152.499 124.194 152.35 124.313 152.174 124.412C152 124.511 151.802 124.586 151.58 124.637C151.679 124.693 151.765 124.775 151.837 124.882L153.514 127.164Z" fill="#E9E9E9"></path> <path d="M160.996 124.292C160.996 124.723 160.928 125.118 160.792 125.479C160.655 125.838 160.463 126.147 160.214 126.406C159.965 126.665 159.666 126.867 159.315 127.012C158.968 127.154 158.583 127.224 158.16 127.224C157.738 127.224 157.352 127.154 157.005 127.012C156.657 126.867 156.359 126.665 156.11 126.406C155.861 126.147 155.669 125.838 155.533 125.479C155.396 125.118 155.328 124.723 155.328 124.292C155.328 123.861 155.396 123.467 155.533 123.109C155.669 122.748 155.861 122.437 156.11 122.178C156.359 121.916 156.657 121.713 157.005 121.568C157.352 121.424 157.738 121.352 158.16 121.352C158.583 121.352 158.968 121.424 159.315 121.568C159.666 121.713 159.965 121.916 160.214 122.178C160.463 122.437 160.655 122.748 160.792 123.109C160.928 123.467 160.996 123.861 160.996 124.292ZM160.198 124.292C160.198 123.939 160.15 123.622 160.053 123.341C159.957 123.06 159.821 122.824 159.644 122.631C159.468 122.436 159.254 122.286 159.002 122.182C158.751 122.078 158.47 122.025 158.16 122.025C157.853 122.025 157.573 122.078 157.322 122.182C157.07 122.286 156.855 122.436 156.676 122.631C156.499 122.824 156.363 123.06 156.267 123.341C156.17 123.622 156.122 123.939 156.122 124.292C156.122 124.645 156.17 124.962 156.267 125.243C156.363 125.521 156.499 125.758 156.676 125.953C156.855 126.145 157.07 126.294 157.322 126.398C157.573 126.5 157.853 126.55 158.16 126.55C158.47 126.55 158.751 126.5 159.002 126.398C159.254 126.294 159.468 126.145 159.644 125.953C159.821 125.758 159.957 125.521 160.053 125.243C160.15 124.962 160.198 124.645 160.198 124.292Z" fill="#E9E9E9"></path> <path d="M165.251 124.396C165.473 124.396 165.668 124.367 165.836 124.308C166.007 124.249 166.151 124.168 166.266 124.063C166.383 123.956 166.471 123.829 166.53 123.682C166.589 123.535 166.619 123.373 166.619 123.197C166.619 122.83 166.505 122.544 166.278 122.338C166.053 122.132 165.711 122.03 165.251 122.03H164.328V124.396H165.251ZM165.251 121.416C165.614 121.416 165.93 121.459 166.197 121.544C166.467 121.627 166.691 121.746 166.867 121.901C167.044 122.056 167.175 122.243 167.26 122.463C167.349 122.682 167.393 122.927 167.393 123.197C167.393 123.464 167.346 123.709 167.252 123.931C167.159 124.153 167.021 124.344 166.839 124.505C166.66 124.665 166.437 124.791 166.169 124.882C165.904 124.97 165.598 125.014 165.251 125.014H164.328V127.164H163.554V121.416H165.251Z" fill="#E9E9E9"></path> <path d="M172.47 125.03L171.567 122.691C171.54 122.622 171.512 122.542 171.483 122.451C171.453 122.357 171.425 122.258 171.398 122.154C171.342 122.37 171.285 122.551 171.226 122.695L170.323 125.03H172.47ZM174.09 127.164H173.488C173.419 127.164 173.363 127.147 173.32 127.112C173.277 127.077 173.245 127.033 173.224 126.98L172.686 125.592H170.107L169.569 126.98C169.553 127.028 169.522 127.071 169.477 127.108C169.432 127.145 169.375 127.164 169.308 127.164H168.707L171.005 121.416H171.792L174.09 127.164Z" fill="#E9E9E9"></path> <path d="M177.414 124.994V125.086L176.415 126.647L176.182 126.534C176.121 126.505 176.083 126.464 176.07 126.41C176.059 126.354 176.073 126.295 176.11 126.234L176.744 125.187C176.765 125.154 176.784 125.126 176.8 125.102C176.819 125.076 176.839 125.054 176.86 125.038C176.839 125.025 176.819 125.006 176.8 124.982C176.784 124.955 176.765 124.926 176.744 124.894L176.11 123.847C176.073 123.785 176.059 123.728 176.07 123.674C176.083 123.618 176.121 123.575 176.182 123.546L176.415 123.434L177.414 124.994ZM178.601 124.994V125.086L177.602 126.647L177.37 126.534C177.308 126.505 177.271 126.464 177.257 126.41C177.247 126.354 177.26 126.295 177.297 126.234L177.931 125.187C177.953 125.154 177.971 125.126 177.987 125.102C178.006 125.076 178.026 125.054 178.048 125.038C178.026 125.025 178.006 125.006 177.987 124.982C177.971 124.955 177.953 124.926 177.931 124.894L177.297 123.847C177.26 123.785 177.247 123.728 177.257 123.674C177.271 123.618 177.308 123.575 177.37 123.546L177.602 123.434L178.601 124.994Z" fill="#E9E9E9"></path> <path d="M10.3119 110.819C10.3119 110.786 10.3424 110.769 10.4036 110.769C10.4494 110.769 10.4876 110.786 10.5181 110.819C10.564 110.835 10.5869 110.852 10.5869 110.868C10.4341 112.121 10.3577 113.267 10.3577 114.305C10.3577 114.437 10.3348 114.536 10.289 114.602C10.2431 114.652 10.1515 114.676 10.014 114.676H0.068746C0.0229153 114.676 0 114.627 0 114.528C0 114.429 0.0229153 114.38 0.068746 114.38C0.58816 114.38 0.962443 114.338 1.1916 114.256C1.43603 114.174 1.59643 114.017 1.67282 113.786C1.76448 113.539 1.81031 113.168 1.81031 112.673V101.224C1.81031 100.73 1.76448 100.367 1.67282 100.136C1.59643 99.9056 1.43603 99.749 1.1916 99.6666C0.947166 99.5677 0.572883 99.5182 0.068746 99.5182C0.0229153 99.5182 0 99.4687 0 99.3698C0 99.2709 0.0229153 99.2215 0.068746 99.2215H9.60152C9.75429 99.2215 9.83067 99.2956 9.83067 99.444L9.8765 102.659C9.8765 102.692 9.83067 102.716 9.73901 102.733C9.66263 102.749 9.61679 102.733 9.60152 102.683C9.23487 100.804 8.17313 99.8644 6.41629 99.8644H5.49968C4.94971 99.8644 4.56015 99.9715 4.331 100.186C4.10184 100.4 3.98726 100.763 3.98726 101.274V106.318H6.18714C7.86759 106.318 8.70782 105.708 8.70782 104.488C8.70782 104.439 8.74601 104.414 8.8224 104.414C8.91406 104.414 8.95989 104.439 8.95989 104.488L8.93697 106.64L8.95989 107.802C8.99044 108.33 9.00572 108.758 9.00572 109.088C9.00572 109.121 8.95989 109.137 8.86823 109.137C8.77657 109.137 8.73074 109.121 8.73074 109.088C8.73074 107.67 7.87523 106.961 6.16422 106.961H3.98726V112.574C3.98726 113.118 4.07893 113.498 4.26225 113.712C4.46085 113.926 4.80458 114.033 5.29344 114.033H6.41629C8.46339 114.033 9.76193 112.962 10.3119 110.819Z" fill="#E9E9E9"></path> <path d="M15.1671 101.843C15.1671 102.453 15.3046 102.997 15.5795 103.475C15.8698 103.936 16.2212 104.34 16.6337 104.686C17.0614 105.032 17.6343 105.445 18.3523 105.923C19.1314 106.45 19.7425 106.904 20.1855 107.283C20.6438 107.662 21.0258 108.132 21.3313 108.692C21.6521 109.236 21.8125 109.879 21.8125 110.621C21.8125 111.462 21.6063 112.212 21.1938 112.871C20.7966 113.531 20.2237 114.05 19.4752 114.429C18.7419 114.792 17.9016 114.973 16.9545 114.973C16.3128 114.973 15.6483 114.882 14.9608 114.701C14.2887 114.52 13.7769 114.297 13.4255 114.033C13.288 113.934 13.2116 113.778 13.1964 113.564L13.0589 109.805V109.78C13.0589 109.714 13.0971 109.681 13.1734 109.681C13.2498 109.665 13.2957 109.69 13.3109 109.755C13.8151 111.124 14.388 112.245 15.0296 113.118C15.6865 113.992 16.5191 114.429 17.5274 114.429C18.1843 114.429 18.7342 114.239 19.1773 113.86C19.6203 113.465 19.8418 112.813 19.8418 111.907C19.8418 111.181 19.689 110.547 19.3835 110.003C19.0932 109.459 18.7266 109.005 18.2836 108.643C17.8558 108.28 17.2676 107.835 16.5191 107.307C15.7858 106.796 15.2129 106.368 14.8004 106.022C14.388 105.659 14.0366 105.222 13.7463 104.711C13.4561 104.184 13.3109 103.574 13.3109 102.881C13.3109 102.024 13.5324 101.299 13.9755 100.705C14.4185 100.112 14.9914 99.6748 15.6941 99.3946C16.4121 99.0978 17.1607 98.9495 17.9398 98.9495C18.4592 98.9495 18.9787 99.0072 19.4981 99.1226C20.0175 99.2215 20.4529 99.3533 20.8042 99.5182C20.9417 99.5677 21.0334 99.6336 21.0792 99.716C21.1251 99.782 21.148 99.8726 21.148 99.988L21.2167 103.351C21.2167 103.4 21.1709 103.442 21.0792 103.475C21.0028 103.491 20.957 103.466 20.9417 103.4C20.6362 102.395 20.2237 101.488 19.7043 100.68C19.2002 99.8561 18.4363 99.444 17.4128 99.444C16.7253 99.444 16.1753 99.6583 15.7629 100.087C15.3657 100.516 15.1671 101.101 15.1671 101.843Z" fill="#E9E9E9"></path> <path d="M39.4997 114.775C39.0261 114.775 38.4761 114.751 37.8498 114.701C37.6206 114.685 37.3304 114.668 36.979 114.652C36.6276 114.635 36.2304 114.627 35.7874 114.627L34.1604 114.652C33.8702 114.668 33.4653 114.676 32.9459 114.676C32.9154 114.676 32.9001 114.627 32.9001 114.528C32.9001 114.429 32.9154 114.38 32.9459 114.38C33.4653 114.38 33.8396 114.338 34.0688 114.256C34.3132 114.174 34.4812 114.017 34.5729 113.786C34.6646 113.539 34.7104 113.168 34.7104 112.673V101.224C34.7104 100.73 34.6646 100.367 34.5729 100.136C34.4965 99.9056 34.3361 99.749 34.0917 99.6666C33.8473 99.5677 33.473 99.5182 32.9688 99.5182C32.9383 99.5182 32.923 99.4688 32.923 99.3699C32.923 99.271 32.9383 99.2215 32.9688 99.2215L34.1833 99.2462C34.8555 99.2792 35.3902 99.2957 35.7874 99.2957C36.3985 99.2957 37.0172 99.271 37.6436 99.2215C38.4074 99.1885 38.9192 99.172 39.1789 99.172C40.7371 99.172 42.1197 99.5017 43.3266 100.161C44.5334 100.821 45.4653 101.719 46.1222 102.856C46.7944 103.994 47.1305 105.272 47.1305 106.689C47.1305 108.288 46.7868 109.706 46.0993 110.942C45.4119 112.162 44.4876 113.11 43.3266 113.786C42.1655 114.446 40.8899 114.775 39.4997 114.775ZM39.2705 114.281C40.3247 114.281 41.2565 114.009 42.0662 113.465C42.8912 112.921 43.5328 112.121 43.9911 111.066C44.4494 109.995 44.6786 108.717 44.6786 107.233C44.6786 105.816 44.457 104.538 44.014 103.4C43.5863 102.247 42.9752 101.34 42.1808 100.68C41.3864 100.005 40.4621 99.6666 39.408 99.6666C38.7664 99.6666 38.2699 99.7078 37.9185 99.7902C37.5672 99.8727 37.3075 100.029 37.1394 100.26C36.9867 100.474 36.9103 100.812 36.9103 101.274V112.401C36.9103 113.077 37.0707 113.564 37.3915 113.86C37.7123 114.141 38.3387 114.281 39.2705 114.281Z" fill="#E9E9E9"></path> <path d="M59.2343 110.819C59.2343 110.786 59.2649 110.769 59.326 110.769C59.3718 110.769 59.41 110.786 59.4405 110.819C59.4864 110.835 59.5093 110.852 59.5093 110.868C59.3565 112.121 59.2801 113.267 59.2801 114.305C59.2801 114.437 59.2572 114.536 59.2114 114.602C59.1656 114.652 59.0739 114.676 58.9364 114.676H48.9911C48.9453 114.676 48.9224 114.627 48.9224 114.528C48.9224 114.429 48.9453 114.38 48.9911 114.38C49.5106 114.38 49.8848 114.338 50.114 114.256C50.3584 114.174 50.5188 114.017 50.5952 113.786C50.6869 113.539 50.7327 113.168 50.7327 112.673V101.224C50.7327 100.73 50.6869 100.367 50.5952 100.136C50.5188 99.9056 50.3584 99.749 50.114 99.6666C49.8696 99.5677 49.4953 99.5182 48.9911 99.5182C48.9453 99.5182 48.9224 99.4688 48.9224 99.3699C48.9224 99.271 48.9453 99.2215 48.9911 99.2215H58.5239C58.6767 99.2215 58.7531 99.2957 58.7531 99.444L58.7989 102.659C58.7989 102.692 58.7531 102.716 58.6614 102.733C58.585 102.749 58.5392 102.733 58.5239 102.683C58.1573 100.804 57.0955 99.8644 55.3387 99.8644H54.4221C53.8721 99.8644 53.4826 99.9716 53.2534 100.186C53.0242 100.4 52.9097 100.763 52.9097 101.274V106.318H55.1095C56.79 106.318 57.6302 105.708 57.6302 104.489C57.6302 104.439 57.6684 104.414 57.7448 104.414C57.8365 104.414 57.8823 104.439 57.8823 104.489L57.8594 106.64L57.8823 107.802C57.9129 108.33 57.9281 108.758 57.9281 109.088C57.9281 109.121 57.8823 109.137 57.7906 109.137C57.699 109.137 57.6531 109.121 57.6531 109.088C57.6531 107.67 56.7976 106.961 55.0866 106.961H52.9097V112.574C52.9097 113.119 53.0013 113.498 53.1847 113.712C53.3833 113.926 53.727 114.033 54.2158 114.033H55.3387C57.3858 114.033 58.6843 112.962 59.2343 110.819Z" fill="#E9E9E9"></path> <path d="M64.0895 101.843C64.0895 102.453 64.227 102.997 64.502 103.475C64.7922 103.936 65.1436 104.34 65.5561 104.686C65.9838 105.033 66.5567 105.445 67.2747 105.923C68.0538 106.45 68.6649 106.904 69.1079 107.283C69.5662 107.662 69.9482 108.132 70.2537 108.692C70.5745 109.236 70.7349 109.879 70.7349 110.621C70.7349 111.462 70.5287 112.212 70.1162 112.871C69.719 113.531 69.1461 114.05 68.3976 114.429C67.6643 114.792 66.824 114.973 65.8769 114.973C65.2352 114.973 64.5707 114.882 63.8832 114.701C63.2111 114.52 62.6993 114.297 62.3479 114.033C62.2104 113.935 62.134 113.778 62.1188 113.564L61.9813 109.805V109.78C61.9813 109.714 62.0195 109.681 62.0958 109.681C62.1722 109.665 62.2181 109.69 62.2333 109.756C62.7375 111.124 63.3104 112.245 63.952 113.119C64.6089 113.992 65.4415 114.429 66.4498 114.429C67.1067 114.429 67.6566 114.239 68.0997 113.86C68.5427 113.465 68.7642 112.814 68.7642 111.907C68.7642 111.181 68.6114 110.547 68.3059 110.003C68.0156 109.459 67.649 109.005 67.206 108.643C66.7782 108.28 66.1901 107.835 65.4415 107.307C64.7082 106.796 64.1353 106.368 63.7228 106.022C63.3104 105.659 62.959 105.222 62.6687 104.711C62.3785 104.184 62.2333 103.574 62.2333 102.881C62.2333 102.024 62.4549 101.299 62.8979 100.705C63.3409 100.112 63.9138 99.6748 64.6165 99.3946C65.3345 99.0979 66.0831 98.9495 66.8622 98.9495C67.3817 98.9495 67.9011 99.0072 68.4205 99.1226C68.9399 99.2215 69.3753 99.3534 69.7267 99.5182C69.8641 99.5677 69.9558 99.6336 70.0016 99.7161C70.0475 99.782 70.0704 99.8727 70.0704 99.9881L70.1391 103.351C70.1391 103.4 70.0933 103.442 70.0016 103.475C69.9253 103.491 69.8794 103.466 69.8641 103.4C69.5586 102.395 69.1461 101.488 68.6267 100.68C68.1226 99.8562 67.3587 99.444 66.3352 99.444C65.6477 99.444 65.0978 99.6584 64.6853 100.087C64.2881 100.516 64.0895 101.101 64.0895 101.843Z" fill="#E9E9E9"></path> <path d="M76.7121 112.673C76.7121 113.184 76.7503 113.555 76.8266 113.786C76.903 114.017 77.0558 114.174 77.2849 114.256C77.5294 114.338 77.9113 114.38 78.4307 114.38C78.4765 114.38 78.4995 114.429 78.4995 114.528C78.4995 114.627 78.4765 114.676 78.4307 114.676C77.9418 114.676 77.5523 114.668 77.262 114.652L75.5663 114.627L73.9164 114.652C73.6261 114.668 73.2289 114.676 72.7248 114.676C72.679 114.676 72.6561 114.627 72.6561 114.528C72.6561 114.429 72.679 114.38 72.7248 114.38C73.2442 114.38 73.6185 114.338 73.8476 114.256C74.0921 114.174 74.2601 114.017 74.3518 113.786C74.4434 113.539 74.4893 113.168 74.4893 112.673V101.224C74.4893 100.73 74.4434 100.367 74.3518 100.136C74.2601 99.9056 74.0921 99.749 73.8476 99.6666C73.6185 99.5677 73.2442 99.5182 72.7248 99.5182C72.679 99.5182 72.6561 99.4688 72.6561 99.3699C72.6561 99.271 72.679 99.2215 72.7248 99.2215L73.9164 99.2462C74.5886 99.2792 75.1385 99.2957 75.5663 99.2957C76.0399 99.2957 76.6128 99.2792 77.2849 99.2462L78.4307 99.2215C78.4765 99.2215 78.4995 99.271 78.4995 99.3699C78.4995 99.4688 78.4765 99.5182 78.4307 99.5182C77.9266 99.5182 77.5523 99.5677 77.3079 99.6666C77.0787 99.7655 76.9183 99.9386 76.8266 100.186C76.7503 100.417 76.7121 100.779 76.7121 101.274V112.673Z" fill="#E9E9E9"></path> <path d="M88.6021 114.973C86.9216 114.973 85.455 114.627 84.2023 113.935C82.9649 113.242 82.0177 112.302 81.3608 111.116C80.7039 109.912 80.3755 108.577 80.3755 107.11C80.3755 105.527 80.7497 104.118 81.4983 102.881C82.2622 101.628 83.301 100.664 84.6148 99.9881C85.9439 99.2957 87.4334 98.9495 89.0833 98.9495C89.8013 98.9495 90.5193 99.0154 91.2373 99.1473C91.9553 99.2792 92.5359 99.4605 92.9789 99.6913C93.1011 99.7573 93.1775 99.8232 93.208 99.8891C93.2539 99.9551 93.2844 100.079 93.2997 100.26L93.5747 103.475C93.5747 103.524 93.5365 103.557 93.4601 103.574C93.3837 103.59 93.3303 103.565 93.2997 103.499C92.8414 102.263 92.1539 101.299 91.2373 100.606C90.3207 99.9139 89.2437 99.5677 88.0063 99.5677C86.3258 99.5677 85.0349 100.161 84.1336 101.348C83.2322 102.519 82.7816 104.134 82.7816 106.195C82.7816 107.81 83.0566 109.253 83.6065 110.522C84.1565 111.791 84.9127 112.781 85.8751 113.489C86.8529 114.198 87.9452 114.553 89.152 114.553C89.8242 114.553 90.3436 114.479 90.7103 114.33C91.0769 114.182 91.3443 113.893 91.5123 113.465C91.6956 113.036 91.7873 112.401 91.7873 111.561C91.7873 110.703 91.7415 110.11 91.6498 109.78C91.5581 109.434 91.3519 109.203 91.0311 109.088C90.7256 108.972 90.1832 108.915 89.4041 108.915C89.3124 108.915 89.2666 108.849 89.2666 108.717C89.2666 108.668 89.2742 108.626 89.2895 108.593C89.3201 108.544 89.3506 108.519 89.3812 108.519C90.6492 108.602 91.6651 108.643 92.4289 108.643C93.1928 108.643 93.9872 108.618 94.8121 108.569C94.8427 108.569 94.8656 108.593 94.8809 108.643C94.9114 108.676 94.9267 108.709 94.9267 108.742C94.9267 108.857 94.8885 108.915 94.8121 108.915C94.5066 108.898 94.2927 108.956 94.1705 109.088C94.0483 109.203 93.9642 109.451 93.9184 109.83C93.8879 110.209 93.8726 110.868 93.8726 111.808C93.8726 112.55 93.8955 113.077 93.9413 113.391C94.0024 113.704 94.033 113.902 94.033 113.984C94.033 114.083 94.0101 114.149 93.9643 114.182C93.9337 114.198 93.8649 114.231 93.758 114.281C91.8331 114.742 90.1145 114.973 88.6021 114.973Z" fill="#E9E9E9"></path> <path d="M111.879 99.2215C111.91 99.2215 111.925 99.271 111.925 99.3699C111.925 99.4688 111.91 99.5182 111.879 99.5182C111.268 99.5182 110.795 99.7573 110.459 100.235C110.123 100.697 109.954 101.365 109.954 102.238V115.023C109.954 115.072 109.916 115.105 109.84 115.121C109.764 115.138 109.71 115.13 109.68 115.097L98.9322 101.62V111.684C98.9322 112.558 99.0926 113.226 99.4134 113.687C99.7342 114.149 100.2 114.38 100.811 114.38C100.842 114.38 100.857 114.429 100.857 114.528C100.857 114.627 100.842 114.676 100.811 114.676C100.399 114.676 100.086 114.668 99.8717 114.652L98.6572 114.627L97.3052 114.652C97.0608 114.668 96.7094 114.676 96.2511 114.676C96.2053 114.676 96.1824 114.627 96.1824 114.528C96.1824 114.429 96.2053 114.38 96.2511 114.38C96.908 114.38 97.4122 114.149 97.7635 113.687C98.1302 113.226 98.3135 112.558 98.3135 111.684V100.854C97.8858 100.359 97.4962 100.013 97.1448 99.815C96.8087 99.6171 96.4574 99.5182 96.0907 99.5182C96.0602 99.5182 96.0449 99.4688 96.0449 99.3699C96.0449 99.271 96.0602 99.2215 96.0907 99.2215L97.0073 99.2462C97.2059 99.2627 97.4886 99.271 97.8552 99.271L99.3218 99.2462C99.5051 99.2297 99.7266 99.2215 99.9863 99.2215C100.109 99.2215 100.2 99.2545 100.261 99.3204C100.322 99.3864 100.414 99.5182 100.536 99.7161C100.796 100.095 100.987 100.359 101.109 100.507L109.336 110.992V102.238C109.336 101.365 109.175 100.697 108.855 100.235C108.534 99.7573 108.075 99.5182 107.48 99.5182C107.449 99.5182 107.434 99.4688 107.434 99.3699C107.434 99.271 107.449 99.2215 107.48 99.2215L108.419 99.2462C108.908 99.2792 109.313 99.2957 109.634 99.2957C109.939 99.2957 110.352 99.2792 110.871 99.2462L111.879 99.2215Z" fill="#E9E9E9"></path> <path d="M121.98 99.7408C121.048 99.7408 120.277 100.054 119.666 100.68C119.07 101.29 118.612 102.222 118.291 103.475C118.291 103.508 118.245 103.524 118.154 103.524C118.077 103.524 118.039 103.499 118.039 103.45C118.1 102.807 118.169 101.983 118.245 100.977C118.322 99.9551 118.36 99.1885 118.36 98.6775C118.36 98.5951 118.398 98.5539 118.474 98.5539C118.566 98.5539 118.612 98.5951 118.612 98.6775C118.612 99.0402 119.04 99.2215 119.895 99.2215C121.209 99.271 122.744 99.2957 124.501 99.2957C125.402 99.2957 126.357 99.2792 127.365 99.2462L128.924 99.2215C129.504 99.2215 129.924 99.1803 130.184 99.0979C130.459 99.0154 130.635 98.8506 130.711 98.6033C130.726 98.5374 130.772 98.5044 130.849 98.5044C130.925 98.5044 130.963 98.5374 130.963 98.6033C130.917 99.1143 130.872 99.8892 130.826 100.928C130.78 101.966 130.757 102.807 130.757 103.45C130.757 103.499 130.711 103.524 130.619 103.524C130.543 103.524 130.497 103.499 130.482 103.45C130.329 102.181 129.97 101.249 129.405 100.656C128.84 100.046 128.076 99.7408 127.113 99.7408C126.686 99.7408 126.365 99.782 126.151 99.8644C125.952 99.9468 125.815 100.095 125.738 100.31C125.677 100.507 125.647 100.829 125.647 101.274V112.673C125.647 113.184 125.693 113.555 125.784 113.786C125.876 114.017 126.059 114.174 126.334 114.256C126.609 114.338 127.045 114.38 127.64 114.38C127.686 114.38 127.709 114.429 127.709 114.528C127.709 114.627 127.686 114.676 127.64 114.676C127.106 114.676 126.686 114.668 126.38 114.652L124.501 114.627L122.714 114.652C122.393 114.668 121.95 114.676 121.385 114.676C121.354 114.676 121.339 114.627 121.339 114.528C121.339 114.429 121.354 114.38 121.385 114.38C121.98 114.38 122.416 114.338 122.691 114.256C122.981 114.174 123.172 114.017 123.264 113.786C123.371 113.539 123.424 113.168 123.424 112.673V101.224C123.424 100.796 123.386 100.483 123.309 100.285C123.233 100.087 123.096 99.9468 122.897 99.8644C122.698 99.782 122.393 99.7408 121.98 99.7408Z" fill="#E9E9E9"></path> <path d="M142.779 110.819C142.779 110.786 142.81 110.769 142.871 110.769C142.917 110.769 142.955 110.786 142.986 110.819C143.031 110.835 143.054 110.852 143.054 110.868C142.902 112.121 142.825 113.267 142.825 114.305C142.825 114.437 142.802 114.536 142.757 114.602C142.711 114.652 142.619 114.676 142.482 114.676H132.536C132.49 114.676 132.468 114.627 132.468 114.528C132.468 114.429 132.49 114.38 132.536 114.38C133.056 114.38 133.43 114.338 133.659 114.256C133.904 114.174 134.064 114.017 134.14 113.786C134.232 113.539 134.278 113.168 134.278 112.673V101.224C134.278 100.73 134.232 100.367 134.14 100.136C134.064 99.9056 133.904 99.749 133.659 99.6666C133.415 99.5677 133.04 99.5182 132.536 99.5182C132.49 99.5182 132.468 99.4688 132.468 99.3699C132.468 99.271 132.49 99.2215 132.536 99.2215H142.069C142.222 99.2215 142.298 99.2957 142.298 99.444L142.344 102.659C142.344 102.692 142.298 102.716 142.207 102.733C142.13 102.749 142.084 102.733 142.069 102.683C141.702 100.804 140.641 99.8644 138.884 99.8644H137.967C137.417 99.8644 137.028 99.9716 136.799 100.186C136.569 100.4 136.455 100.763 136.455 101.274V106.318H138.655C140.335 106.318 141.175 105.708 141.175 104.489C141.175 104.439 141.214 104.414 141.29 104.414C141.382 104.414 141.427 104.439 141.427 104.489L141.405 106.64L141.427 107.802C141.458 108.33 141.473 108.758 141.473 109.088C141.473 109.121 141.427 109.137 141.336 109.137C141.244 109.137 141.198 109.121 141.198 109.088C141.198 107.67 140.343 106.961 138.632 106.961H136.455V112.574C136.455 113.119 136.546 113.498 136.73 113.712C136.928 113.926 137.272 114.033 137.761 114.033H138.884C140.931 114.033 142.229 112.962 142.779 110.819Z" fill="#E9E9E9"></path> <path d="M160.169 114.38C160.246 114.38 160.284 114.429 160.284 114.528C160.284 114.627 160.246 114.676 160.169 114.676C159.879 114.676 159.413 114.66 158.771 114.627C158.13 114.594 157.664 114.577 157.374 114.577C156.992 114.577 156.541 114.594 156.022 114.627C155.502 114.66 155.097 114.676 154.807 114.676C154.746 114.676 154.715 114.627 154.715 114.528C154.715 114.429 154.746 114.38 154.807 114.38C155.25 114.38 155.571 114.33 155.77 114.231C155.983 114.116 156.09 113.935 156.09 113.687C156.09 113.44 155.961 113.02 155.701 112.426L153.226 107.011H149.078L147.314 111.289C147.115 111.783 147.016 112.228 147.016 112.624C147.016 113.201 147.207 113.638 147.589 113.935C147.971 114.231 148.505 114.38 149.193 114.38C149.269 114.38 149.307 114.429 149.307 114.528C149.307 114.627 149.269 114.676 149.193 114.676C148.918 114.676 148.521 114.66 148.001 114.627C147.421 114.594 146.917 114.577 146.489 114.577C146.076 114.577 145.595 114.594 145.045 114.627C144.556 114.66 144.151 114.676 143.831 114.676C143.754 114.676 143.716 114.627 143.716 114.528C143.716 114.429 143.754 114.38 143.831 114.38C144.258 114.38 144.617 114.289 144.908 114.108C145.198 113.926 145.481 113.605 145.756 113.143C146.031 112.665 146.359 111.965 146.741 111.041L151.668 99.0731C151.698 99.0237 151.767 98.999 151.874 98.999C151.981 98.999 152.042 99.0237 152.057 99.0731L157.672 111.289C158.206 112.476 158.649 113.292 159.001 113.737C159.367 114.165 159.757 114.38 160.169 114.38ZM149.33 106.393H152.951L151.049 102.238L149.33 106.393Z" fill="#E9E9E9"></path> <path d="M178.867 114.38C178.897 114.38 178.913 114.429 178.913 114.528C178.913 114.627 178.897 114.676 178.867 114.676C178.363 114.676 177.958 114.668 177.652 114.652L176.002 114.627L174.398 114.652C174.123 114.668 173.734 114.676 173.23 114.676C173.199 114.676 173.184 114.627 173.184 114.528C173.184 114.429 173.199 114.38 173.23 114.38C173.902 114.38 174.352 114.297 174.582 114.132C174.811 113.967 174.925 113.621 174.925 113.094L174.902 112.673L174.444 102.189L169.563 114.503C169.533 114.569 169.471 114.602 169.38 114.602C169.303 114.602 169.235 114.569 169.174 114.503L163.445 102.288L163.238 111.684C163.223 112.558 163.376 113.226 163.697 113.687C164.033 114.149 164.529 114.38 165.186 114.38C165.232 114.38 165.255 114.429 165.255 114.528C165.255 114.627 165.232 114.676 165.186 114.676C164.774 114.676 164.453 114.668 164.224 114.652L162.964 114.627L161.612 114.652C161.382 114.668 161.062 114.676 160.649 114.676C160.603 114.676 160.58 114.627 160.58 114.528C160.58 114.429 160.603 114.38 160.649 114.38C161.275 114.38 161.757 114.149 162.093 113.687C162.444 113.226 162.627 112.558 162.643 111.684L162.849 101.051C162.574 100.524 162.268 100.136 161.932 99.8891C161.612 99.6419 161.237 99.5182 160.809 99.5182C160.764 99.5182 160.741 99.4688 160.741 99.3699C160.741 99.271 160.764 99.2215 160.809 99.2215L161.795 99.2462C161.993 99.2627 162.253 99.271 162.574 99.271L163.651 99.2462C163.773 99.2297 163.926 99.2215 164.109 99.2215C164.308 99.2215 164.468 99.3039 164.591 99.4688C164.713 99.6171 164.904 99.9633 165.163 100.507L170.205 111.116L174.765 99.8397C174.857 99.6089 174.956 99.4523 175.063 99.3699C175.17 99.271 175.3 99.2215 175.452 99.2215C175.559 99.2215 175.697 99.2297 175.865 99.2462C176.033 99.2627 176.239 99.271 176.484 99.271L177.721 99.2462C177.92 99.2297 178.217 99.2215 178.615 99.2215C178.645 99.2215 178.661 99.271 178.661 99.3699C178.661 99.4688 178.645 99.5182 178.615 99.5182C177.881 99.5182 177.347 99.6666 177.011 99.9633C176.69 100.244 176.545 100.713 176.575 101.373L177.102 112.673C177.133 113.184 177.186 113.555 177.263 113.786C177.354 114.017 177.515 114.174 177.744 114.256C177.973 114.338 178.347 114.38 178.867 114.38Z" fill="#E9E9E9"></path> <defs> <linearGradient id="paint0_linear_642_92" x1="122.394" y1="22.9308" x2="77.2946" y2="32.1409" gradientUnits="userSpaceOnUse"> <stop stop-color="#6219FF"></stop> <stop offset="1" stop-color="#190050"></stop> </linearGradient> <linearGradient id="paint1_linear_642_92" x1="110.78" y1="2.34777e-06" x2="76.5001" y2="32.1281" gradientUnits="userSpaceOnUse"> <stop stop-color="#1F025C"></stop> <stop offset="0.447917" stop-color="#8951FF"></stop> <stop offset="0.651042" stop-color="#AB83FF"></stop> <stop offset="1" stop-color="#4400D6"></stop> </linearGradient> <linearGradient id="paint2_linear_642_92" x1="91.7471" y1="42.7919" x2="68.1783" y2="41.1881" gradientUnits="userSpaceOnUse"> <stop offset="0.06" stop-color="#DDDDDD"></stop> <stop offset="0.28" stop-color="#F7F7F7"></stop> <stop offset="0.64" stop-color="#D6D6D6"></stop> <stop offset="1" stop-color="#939393"></stop> </linearGradient> <linearGradient id="paint3_linear_642_92" x1="68.5057" y1="71.1687" x2="105.249" y2="52.1099" gradientUnits="userSpaceOnUse"> <stop stop-color="#FF0101"></stop> <stop offset="0.432292" stop-color="#FF5151"></stop> <stop offset="0.723958" stop-color="#EE3737"></stop> <stop offset="1" stop-color="#7C0101"></stop> </linearGradient> <linearGradient id="paint4_linear_642_92" x1="68.4932" y1="86.5113" x2="100.681" y2="61.5282" gradientUnits="userSpaceOnUse"> <stop stop-color="#5C0000"></stop> <stop offset="1" stop-color="#FF0000"></stop> <stop offset="1" stop-color="#FF0000"></stop> </linearGradient> <linearGradient id="paint5_linear_642_92" x1="112.773" y1="39.3341" x2="93.4252" y2="51.7143" gradientUnits="userSpaceOnUse"> <stop offset="0.06" stop-color="#DFDFDF"></stop> <stop offset="0.286458" stop-color="#F7F7F7"></stop> <stop offset="0.64" stop-color="#D0D0D0"></stop> <stop offset="0.993848" stop-color="#8F8F8F"></stop> </linearGradient> <clipPath id="clip0_642_92"> <rect width="42.88" height="87.8517" fill="white" transform="translate(68.1953)"></rect> </clipPath> </defs> </svg> 