<?xml version="1.0" encoding="UTF-8"?> <svg xmlns="http://www.w3.org/2000/svg" width="241" height="139" viewBox="0 0 241 139" fill="none"> <path d="M13.412 116.491C13.412 116.452 13.4511 116.433 13.5292 116.433C13.5877 116.433 13.6365 116.452 13.6756 116.491C13.7341 116.511 13.7634 116.53 13.7634 116.55C13.5682 118.072 13.4706 119.459 13.4706 120.708C13.4706 120.864 13.4413 120.981 13.3827 121.059C13.3242 121.118 13.207 121.147 13.0313 121.147H0.0878516C0.0292839 121.147 0 121.089 0 120.972C0 120.854 0.0292839 120.796 0.0878516 120.796C0.712575 120.796 1.16159 120.747 1.43491 120.649C1.72775 120.552 1.92298 120.366 2.02059 120.093C2.1182 119.8 2.16701 119.361 2.16701 118.775V105.217C2.16701 104.631 2.1182 104.202 2.02059 103.928C1.92298 103.655 1.72775 103.47 1.43491 103.372C1.14207 103.255 0.693052 103.196 0.0878516 103.196C0.0292839 103.196 0 103.138 0 103.021C0 102.903 0.0292839 102.845 0.0878516 102.845H12.5042C12.6995 102.845 12.7971 102.933 12.7971 103.108L12.8556 107.003C12.8556 107.042 12.7971 107.071 12.6799 107.091C12.5823 107.111 12.5237 107.091 12.5042 107.032C12.1919 105.9 11.6648 105.061 10.9229 104.514C10.181 103.967 9.20491 103.694 7.9945 103.694H7.11599C6.53031 103.694 6.10081 103.821 5.8275 104.075C5.55418 104.329 5.41752 104.719 5.41752 105.246V111.22H7.84808C8.9804 111.22 9.84915 111.025 10.4544 110.634C11.0596 110.244 11.3622 109.697 11.3622 108.994C11.3622 108.936 11.411 108.907 11.5086 108.907C11.6257 108.907 11.6843 108.936 11.6843 108.994L11.655 111.63L11.6843 113.036C11.7233 113.699 11.7428 114.227 11.7428 114.617C11.7428 114.656 11.6843 114.676 11.5671 114.676C11.45 114.676 11.3914 114.656 11.3914 114.617C11.3914 113.817 11.0791 113.192 10.4544 112.743C9.84915 112.274 8.97063 112.04 7.8188 112.04H5.41752V118.658C5.41752 119.224 5.5249 119.644 5.73964 119.917C5.95439 120.191 6.29604 120.327 6.76458 120.327H7.73095C9.25371 120.327 10.4739 120.015 11.3914 119.39C12.309 118.766 12.9825 117.799 13.412 116.491Z" fill="#E9E9E9"></path> <path d="M20.1402 105.803C20.1402 106.505 20.3159 107.13 20.6673 107.677C21.0383 108.223 21.4873 108.702 22.0144 109.112C22.5415 109.522 23.2541 110.019 24.1521 110.605C25.1283 111.23 25.9092 111.776 26.4948 112.245C27.0805 112.714 27.5783 113.289 27.9883 113.973C28.3983 114.636 28.6033 115.408 28.6033 116.286C28.6033 117.301 28.33 118.209 27.7833 119.01C27.2367 119.79 26.4753 120.405 25.4992 120.854C24.5426 121.284 23.4688 121.499 22.278 121.499C21.3994 121.499 20.4819 121.382 19.5253 121.147C18.5687 120.893 17.9244 120.62 17.5925 120.327C17.4949 120.249 17.4168 120.181 17.3583 120.122C17.3192 120.044 17.2997 119.927 17.2997 119.771L17.2118 115.115V115.086C17.2118 115.007 17.2606 114.968 17.3583 114.968C17.4559 114.949 17.5144 114.978 17.534 115.056C18.1196 116.247 18.6272 117.213 19.0567 117.955C19.5057 118.697 20.0621 119.351 20.7259 119.917C21.4092 120.484 22.1803 120.767 23.0393 120.767C23.8202 120.767 24.4645 120.562 24.9721 120.152C25.4797 119.722 25.7335 119 25.7335 117.985C25.7335 117.126 25.5382 116.374 25.1478 115.73C24.7768 115.086 24.3181 114.539 23.7714 114.09C23.2248 113.641 22.4732 113.104 21.5166 112.479C20.5795 111.874 19.8474 111.357 19.3203 110.927C18.8127 110.498 18.3734 109.98 18.0025 109.375C17.6316 108.77 17.4461 108.057 17.4461 107.237C17.4461 106.203 17.7389 105.334 18.3246 104.631C18.9298 103.909 19.701 103.382 20.6381 103.05C21.5751 102.698 22.561 102.523 23.5957 102.523C24.279 102.523 24.9721 102.591 25.6749 102.728C26.3777 102.845 26.9439 102.991 27.3734 103.167C27.5491 103.245 27.6662 103.333 27.7248 103.431C27.7833 103.509 27.8126 103.616 27.8126 103.753V108.057C27.8126 108.116 27.7638 108.165 27.6662 108.204C27.5686 108.223 27.51 108.204 27.4905 108.145L27.2562 107.589C26.7682 106.359 26.1922 105.314 25.5285 104.455C24.8842 103.596 23.9764 103.167 22.8051 103.167C22.0242 103.167 21.3799 103.391 20.8723 103.84C20.3843 104.29 20.1402 104.944 20.1402 105.803Z" fill="#E9E9E9"></path> <path d="M43.6266 118.775C43.6266 119.38 43.6754 119.82 43.773 120.093C43.8706 120.366 44.0561 120.552 44.3294 120.649C44.6223 120.747 45.081 120.796 45.7058 120.796C45.7643 120.796 45.7936 120.854 45.7936 120.972C45.7936 121.089 45.7643 121.147 45.7058 121.147C45.0615 121.147 44.5539 121.138 44.183 121.118L41.9574 121.089L39.7904 121.118C39.4 121.138 38.8728 121.147 38.2091 121.147C38.17 121.147 38.1505 121.089 38.1505 120.972C38.1505 120.854 38.17 120.796 38.2091 120.796C38.8338 120.796 39.2926 120.747 39.5854 120.649C39.8783 120.552 40.0735 120.366 40.1711 120.093C40.2882 119.8 40.3468 119.361 40.3468 118.775V105.217C40.3468 104.631 40.2882 104.202 40.1711 103.928C40.0735 103.655 39.8783 103.47 39.5854 103.372C39.2926 103.255 38.8338 103.196 38.2091 103.196C38.17 103.196 38.1505 103.138 38.1505 103.021C38.1505 102.903 38.17 102.845 38.2091 102.845L39.7904 102.874C40.6885 102.913 41.4108 102.933 41.9574 102.933C42.5626 102.933 43.3142 102.913 44.2123 102.874L45.7058 102.845C45.7643 102.845 45.7936 102.903 45.7936 103.021C45.7936 103.138 45.7643 103.196 45.7058 103.196C45.1006 103.196 44.6515 103.255 44.3587 103.372C44.0659 103.489 43.8706 103.694 43.773 103.987C43.6754 104.26 43.6266 104.69 43.6266 105.275V118.775Z" fill="#E9E9E9"></path> <path d="M71.3818 120.796C71.4208 120.796 71.4404 120.854 71.4404 120.972C71.4404 121.089 71.4208 121.147 71.3818 121.147C70.718 121.147 70.1909 121.138 69.8005 121.118L67.6335 121.089L65.4372 121.118C65.0662 121.138 64.5586 121.147 63.9144 121.147C63.8558 121.147 63.8265 121.089 63.8265 120.972C63.8265 120.854 63.8558 120.796 63.9144 120.796C64.7343 120.796 65.2907 120.698 65.5836 120.503C65.8764 120.308 66.0228 119.898 66.0228 119.273L65.9935 118.775L65.3786 106.798L59.3461 120.942C59.3071 121.02 59.229 121.059 59.1118 121.059C58.9947 121.059 58.9166 121.02 58.8776 120.942L51.4687 106.857L51.2345 117.428C51.2149 118.482 51.4199 119.312 51.8494 119.917C52.2984 120.503 52.9232 120.796 53.7236 120.796C53.7822 120.796 53.8114 120.854 53.8114 120.972C53.8114 121.089 53.7822 121.147 53.7236 121.147C53.1965 121.147 52.7865 121.138 52.4937 121.118L50.8831 121.089L49.0382 121.118C48.7258 121.138 48.3061 121.147 47.779 121.147C47.7204 121.147 47.6911 121.089 47.6911 120.972C47.6911 120.854 47.7204 120.796 47.779 120.796C48.5794 120.796 49.2139 120.493 49.6824 119.888C50.151 119.283 50.395 118.463 50.4145 117.428L50.6781 105.305L50.6488 105.275C50.2583 104.553 49.8484 104.026 49.4189 103.694C49.0089 103.362 48.5306 103.196 47.984 103.196C47.9254 103.196 47.8961 103.138 47.8961 103.021C47.8961 102.903 47.9254 102.845 47.984 102.845L49.3603 102.874C49.6336 102.894 49.985 102.903 50.4145 102.903L51.9666 102.874C52.1423 102.855 52.3668 102.845 52.6401 102.845C52.8939 102.845 53.0891 102.933 53.2258 103.108C53.3624 103.284 53.6162 103.704 53.9872 104.368L60.371 116.345L65.935 103.577C66.0521 103.304 66.1693 103.118 66.2864 103.021C66.423 102.903 66.5988 102.845 66.8135 102.845C66.9892 102.845 67.1844 102.855 67.3992 102.874C67.6334 102.894 67.897 102.903 68.1898 102.903L69.9176 102.874C70.1909 102.855 70.5814 102.845 71.089 102.845C71.1475 102.845 71.1768 102.903 71.1768 103.021C71.1768 103.138 71.1475 103.196 71.089 103.196C70.1714 103.196 69.5076 103.382 69.0976 103.753C68.6877 104.124 68.5022 104.699 68.5413 105.48L69.2441 118.775C69.2831 119.38 69.3514 119.82 69.449 120.093C69.5662 120.366 69.7614 120.552 70.0347 120.649C70.3276 120.747 70.7766 120.796 71.3818 120.796Z" fill="#E9E9E9"></path> <path d="M96.4904 120.796C96.5295 120.796 96.549 120.854 96.549 120.972C96.549 121.089 96.5295 121.147 96.4904 121.147C95.8267 121.147 95.2996 121.138 94.9091 121.118L92.7421 121.089L90.5458 121.118C90.1749 121.138 89.6673 121.147 89.023 121.147C88.9645 121.147 88.9352 121.089 88.9352 120.972C88.9352 120.854 88.9645 120.796 89.023 120.796C89.843 120.796 90.3994 120.698 90.6922 120.503C90.9851 120.308 91.1315 119.898 91.1315 119.273L91.1022 118.775L90.4872 106.798L84.4548 120.942C84.4157 121.02 84.3376 121.059 84.2205 121.059C84.1034 121.059 84.0253 121.02 83.9862 120.942L76.5774 106.857L76.3431 117.428C76.3236 118.482 76.5286 119.312 76.9581 119.917C77.4071 120.503 78.0318 120.796 78.8323 120.796C78.8908 120.796 78.9201 120.854 78.9201 120.972C78.9201 121.089 78.8908 121.147 78.8323 121.147C78.3051 121.147 77.8952 121.138 77.6023 121.118L75.9917 121.089L74.1468 121.118C73.8345 121.138 73.4147 121.147 72.8876 121.147C72.8291 121.147 72.7998 121.089 72.7998 120.972C72.7998 120.854 72.8291 120.796 72.8876 120.796C73.688 120.796 74.3225 120.493 74.7911 119.888C75.2596 119.283 75.5036 118.463 75.5232 117.428L75.7867 105.305L75.7574 105.275C75.367 104.553 74.957 104.026 74.5275 103.694C74.1175 103.362 73.6392 103.196 73.0926 103.196C73.034 103.196 73.0048 103.138 73.0048 103.021C73.0048 102.903 73.034 102.845 73.0926 102.845L74.4689 102.874C74.7423 102.894 75.0937 102.903 75.5232 102.903L77.0752 102.874C77.2509 102.855 77.4754 102.845 77.7487 102.845C78.0025 102.845 78.1978 102.933 78.3344 103.108C78.4711 103.284 78.7249 103.704 79.0958 104.368L85.4797 116.345L91.0436 103.577C91.1608 103.304 91.2779 103.118 91.395 103.021C91.5317 102.903 91.7074 102.845 91.9222 102.845C92.0979 102.845 92.2931 102.855 92.5078 102.874C92.7421 102.894 93.0057 102.903 93.2985 102.903L95.0262 102.874C95.2996 102.855 95.69 102.845 96.1976 102.845C96.2562 102.845 96.2855 102.903 96.2855 103.021C96.2855 103.138 96.2562 103.196 96.1976 103.196C95.28 103.196 94.6163 103.382 94.2063 103.753C93.7963 104.124 93.6109 104.699 93.6499 105.48L94.3527 118.775C94.3918 119.38 94.4601 119.82 94.5577 120.093C94.6748 120.366 94.8701 120.552 95.1434 120.649C95.4362 120.747 95.8852 120.796 96.4904 120.796Z" fill="#E9E9E9"></path> <path d="M103.853 118.775C103.853 119.38 103.902 119.82 103.999 120.093C104.097 120.366 104.283 120.552 104.556 120.649C104.849 120.747 105.307 120.796 105.932 120.796C105.991 120.796 106.02 120.854 106.02 120.972C106.02 121.089 105.991 121.147 105.932 121.147C105.288 121.147 104.78 121.138 104.409 121.118L102.184 121.089L100.017 121.118C99.6264 121.138 99.0993 121.147 98.4355 121.147C98.3965 121.147 98.377 121.089 98.377 120.972C98.377 120.854 98.3965 120.796 98.4355 120.796C99.0603 120.796 99.519 120.747 99.8119 120.649C100.105 120.552 100.3 120.366 100.398 120.093C100.515 119.8 100.573 119.361 100.573 118.775V105.217C100.573 104.631 100.515 104.202 100.398 103.928C100.3 103.655 100.105 103.47 99.8119 103.372C99.519 103.255 99.0603 103.196 98.4355 103.196C98.3965 103.196 98.377 103.138 98.377 103.021C98.377 102.903 98.3965 102.845 98.4355 102.845L100.017 102.874C100.915 102.913 101.637 102.933 102.184 102.933C102.789 102.933 103.541 102.913 104.439 102.874L105.932 102.845C105.991 102.845 106.02 102.903 106.02 103.021C106.02 103.138 105.991 103.196 105.932 103.196C105.327 103.196 104.878 103.255 104.585 103.372C104.292 103.489 104.097 103.694 103.999 103.987C103.902 104.26 103.853 104.69 103.853 105.275V118.775Z" fill="#E9E9E9"></path> <path d="M119.192 121.499C117.044 121.499 115.17 121.089 113.569 120.269C111.968 119.449 110.748 118.336 109.909 116.93C109.069 115.505 108.65 113.924 108.65 112.186C108.65 110.312 109.128 108.643 110.085 107.179C111.061 105.695 112.388 104.553 114.067 103.753C115.766 102.933 117.659 102.523 119.748 102.523C120.666 102.523 121.593 102.601 122.53 102.757C123.467 102.894 124.219 103.079 124.785 103.313C124.961 103.372 125.068 103.45 125.107 103.548C125.166 103.626 125.205 103.772 125.224 103.987L125.605 108.057C125.605 108.116 125.556 108.155 125.459 108.175C125.361 108.194 125.293 108.165 125.254 108.087C124.57 106.583 123.623 105.412 122.413 104.573C121.222 103.733 119.856 103.313 118.313 103.313C116.322 103.313 114.799 104.006 113.745 105.393C112.71 106.779 112.193 108.672 112.193 111.074C112.193 113.006 112.525 114.734 113.189 116.257C113.852 117.76 114.77 118.931 115.941 119.771C117.132 120.591 118.46 121.001 119.924 121.001C120.724 121.001 121.339 120.913 121.769 120.737C122.198 120.562 122.511 120.22 122.706 119.712C122.901 119.205 122.999 118.453 122.999 117.458C122.999 116.442 122.94 115.74 122.823 115.349C122.706 114.939 122.452 114.666 122.062 114.529C121.691 114.392 121.037 114.324 120.1 114.324C119.983 114.324 119.924 114.246 119.924 114.09C119.924 114.031 119.934 113.982 119.953 113.943C119.992 113.885 120.031 113.856 120.07 113.856C121.73 113.953 123.067 114.002 124.082 114.002C125.078 114.002 126.113 113.973 127.186 113.914C127.225 113.914 127.255 113.943 127.274 114.002C127.313 114.041 127.333 114.08 127.333 114.119C127.333 114.256 127.284 114.324 127.186 114.324C126.835 114.305 126.591 114.373 126.454 114.529C126.318 114.666 126.23 114.959 126.191 115.408C126.152 115.837 126.132 116.618 126.132 117.75C126.132 118.629 126.161 119.254 126.22 119.625C126.298 119.995 126.337 120.23 126.337 120.327C126.337 120.444 126.308 120.523 126.249 120.562C126.21 120.601 126.122 120.64 125.986 120.679C123.467 121.225 121.203 121.499 119.192 121.499Z" fill="#E9E9E9"></path> <path d="M148.996 120.796C149.035 120.796 149.054 120.854 149.054 120.972C149.054 121.089 149.035 121.147 148.996 121.147H143.783C143.354 121.147 142.553 120.347 141.382 118.746C140.21 117.126 138.795 114.871 137.136 111.981C136.979 112.001 136.755 112.011 136.462 112.011C135.701 112.011 135.164 112.001 134.851 111.981V118.775C134.851 119.38 134.9 119.82 134.998 120.093C135.095 120.366 135.281 120.552 135.554 120.649C135.847 120.747 136.306 120.796 136.931 120.796C136.97 120.796 136.989 120.854 136.989 120.972C136.989 121.089 136.97 121.147 136.931 121.147C136.286 121.147 135.779 121.138 135.408 121.118L133.182 121.089L131.045 121.118C130.654 121.138 130.127 121.147 129.463 121.147C129.405 121.147 129.375 121.089 129.375 120.972C129.375 120.854 129.405 120.796 129.463 120.796C130.088 120.796 130.537 120.747 130.81 120.649C131.103 120.552 131.298 120.366 131.396 120.093C131.513 119.8 131.572 119.361 131.572 118.775V105.217C131.572 104.631 131.523 104.202 131.425 103.928C131.328 103.655 131.132 103.47 130.84 103.372C130.547 103.255 130.098 103.196 129.492 103.196C129.453 103.196 129.434 103.138 129.434 103.021C129.434 102.903 129.453 102.845 129.492 102.845L131.045 102.874C131.943 102.913 132.655 102.933 133.182 102.933C133.748 102.933 134.373 102.903 135.056 102.845C135.271 102.825 135.544 102.806 135.876 102.786C136.228 102.767 136.638 102.757 137.106 102.757C138.902 102.757 140.288 103.089 141.265 103.753C142.26 104.397 142.758 105.305 142.758 106.476C142.758 107.374 142.485 108.233 141.938 109.053C141.391 109.873 140.679 110.537 139.8 111.044C141.362 113.504 142.67 115.427 143.724 116.813C144.798 118.199 145.745 119.215 146.565 119.859C147.404 120.484 148.215 120.796 148.996 120.796ZM134.851 111.132C135.32 111.21 135.886 111.249 136.55 111.249C137.253 111.249 137.809 111.142 138.219 110.927C138.629 110.712 138.922 110.342 139.098 109.814C139.293 109.287 139.39 108.545 139.39 107.589C139.39 105.988 139.156 104.885 138.688 104.28C138.219 103.675 137.546 103.372 136.667 103.372C136.003 103.372 135.535 103.518 135.261 103.811C134.988 104.104 134.851 104.592 134.851 105.275V111.132Z" fill="#E9E9E9"></path> <path d="M169.706 120.796C169.804 120.796 169.853 120.854 169.853 120.972C169.853 121.089 169.804 121.147 169.706 121.147C169.316 121.147 168.711 121.128 167.891 121.089C167.032 121.05 166.417 121.03 166.046 121.03C165.558 121.03 164.962 121.05 164.26 121.089C163.596 121.128 163.069 121.147 162.678 121.147C162.6 121.147 162.561 121.089 162.561 120.972C162.561 120.854 162.6 120.796 162.678 120.796C163.186 120.796 163.547 120.747 163.762 120.649C163.996 120.532 164.113 120.337 164.113 120.064C164.113 119.732 163.918 119.175 163.527 118.395L160.482 112.391H155.269L153.19 116.989C152.936 117.555 152.81 118.082 152.81 118.57C152.81 119.273 153.054 119.82 153.542 120.21C154.049 120.601 154.723 120.796 155.562 120.796C155.66 120.796 155.709 120.854 155.709 120.972C155.709 121.089 155.66 121.147 155.562 121.147C155.211 121.147 154.703 121.128 154.039 121.089C153.298 121.05 152.653 121.03 152.107 121.03C151.58 121.03 150.945 121.05 150.203 121.089C149.54 121.128 149.003 121.147 148.593 121.147C148.515 121.147 148.476 121.089 148.476 120.972C148.476 120.854 148.515 120.796 148.593 120.796C149.139 120.796 149.598 120.688 149.969 120.474C150.34 120.239 150.711 119.839 151.082 119.273C151.453 118.687 151.892 117.828 152.4 116.696L158.754 102.728C158.793 102.669 158.881 102.64 159.018 102.64C159.174 102.64 159.262 102.669 159.281 102.728L166.602 117.135C167.286 118.521 167.852 119.478 168.301 120.005C168.75 120.532 169.218 120.796 169.706 120.796ZM155.65 111.571H160.072L157.729 106.945L155.65 111.571Z" fill="#E9E9E9"></path> <path d="M174.114 103.518C171.791 103.518 170.121 105.031 169.106 108.057C169.087 108.116 169.028 108.145 168.931 108.145C168.833 108.126 168.784 108.087 168.784 108.028C168.862 107.247 168.95 106.242 169.048 105.012C169.145 103.762 169.194 102.825 169.194 102.201C169.194 102.103 169.243 102.054 169.341 102.054C169.458 102.054 169.516 102.103 169.516 102.201C169.516 102.63 170.073 102.845 171.185 102.845C172.864 102.903 174.826 102.933 177.071 102.933C178.223 102.933 179.443 102.913 180.732 102.874L182.723 102.845C183.465 102.845 184.002 102.796 184.334 102.698C184.685 102.601 184.91 102.406 185.007 102.113C185.027 102.035 185.086 101.996 185.183 101.996C185.3 101.996 185.359 102.035 185.359 102.113C185.3 102.698 185.232 103.636 185.154 104.924C185.095 106.212 185.066 107.247 185.066 108.028C185.066 108.087 185.017 108.116 184.92 108.116C184.822 108.116 184.763 108.087 184.744 108.028C184.451 106.525 183.904 105.402 183.104 104.66C182.304 103.899 181.318 103.518 180.146 103.518C179.58 103.518 179.199 103.645 179.004 103.899C178.829 104.133 178.741 104.592 178.741 105.275V118.775C178.741 119.38 178.799 119.82 178.916 120.093C179.034 120.366 179.258 120.552 179.59 120.649C179.922 120.747 180.449 120.796 181.171 120.796C181.23 120.796 181.259 120.854 181.259 120.972C181.259 121.089 181.23 121.147 181.171 121.147C180.468 121.147 179.912 121.138 179.502 121.118L177.071 121.089L174.699 121.118C174.29 121.138 173.723 121.147 173.001 121.147C172.942 121.147 172.913 121.089 172.913 120.972C172.913 120.854 172.942 120.796 173.001 120.796C173.704 120.796 174.221 120.747 174.553 120.649C174.904 120.552 175.139 120.366 175.256 120.093C175.393 119.8 175.461 119.361 175.461 118.775V105.217C175.461 104.553 175.373 104.104 175.197 103.87C175.022 103.636 174.66 103.518 174.114 103.518Z" fill="#E9E9E9"></path> <path d="M193.077 118.775C193.077 119.38 193.126 119.82 193.224 120.093C193.321 120.366 193.507 120.552 193.78 120.649C194.073 120.747 194.532 120.796 195.157 120.796C195.215 120.796 195.244 120.854 195.244 120.972C195.244 121.089 195.215 121.147 195.157 121.147C194.512 121.147 194.005 121.138 193.634 121.118L191.408 121.089L189.241 121.118C188.851 121.138 188.324 121.147 187.66 121.147C187.621 121.147 187.601 121.089 187.601 120.972C187.601 120.854 187.621 120.796 187.66 120.796C188.285 120.796 188.743 120.747 189.036 120.649C189.329 120.552 189.524 120.366 189.622 120.093C189.739 119.8 189.798 119.361 189.798 118.775V105.217C189.798 104.631 189.739 104.202 189.622 103.928C189.524 103.655 189.329 103.47 189.036 103.372C188.743 103.255 188.285 103.196 187.66 103.196C187.621 103.196 187.601 103.138 187.601 103.021C187.601 102.903 187.621 102.845 187.66 102.845L189.241 102.874C190.139 102.913 190.862 102.933 191.408 102.933C192.013 102.933 192.765 102.913 193.663 102.874L195.157 102.845C195.215 102.845 195.244 102.903 195.244 103.021C195.244 103.138 195.215 103.196 195.157 103.196C194.551 103.196 194.102 103.255 193.81 103.372C193.517 103.489 193.321 103.694 193.224 103.987C193.126 104.26 193.077 104.69 193.077 105.275V118.775Z" fill="#E9E9E9"></path> <path d="M207.157 121.499C205.341 121.499 203.721 121.079 202.296 120.239C200.89 119.38 199.797 118.229 199.016 116.784C198.255 115.32 197.874 113.729 197.874 112.011C197.874 110 198.382 108.282 199.397 106.857C200.412 105.412 201.71 104.329 203.292 103.606C204.892 102.884 206.523 102.523 208.182 102.523C210.037 102.523 211.667 102.962 213.072 103.84C214.478 104.699 215.552 105.842 216.294 107.267C217.055 108.692 217.436 110.205 217.436 111.806C217.436 113.582 216.967 115.212 216.03 116.696C215.093 118.18 213.834 119.351 212.252 120.21C210.691 121.069 208.992 121.499 207.157 121.499ZM208.123 120.767C209.217 120.767 210.193 120.454 211.052 119.83C211.93 119.185 212.614 118.258 213.102 117.048C213.59 115.818 213.834 114.353 213.834 112.655C213.834 110.859 213.56 109.258 213.014 107.852C212.467 106.427 211.677 105.314 210.642 104.514C209.607 103.714 208.397 103.313 207.011 103.313C205.234 103.313 203.867 103.987 202.911 105.334C201.954 106.662 201.476 108.526 201.476 110.927C201.476 112.821 201.759 114.519 202.325 116.023C202.911 117.506 203.702 118.668 204.697 119.507C205.712 120.347 206.854 120.767 208.123 120.767Z" fill="#E9E9E9"></path> <path d="M240.032 102.845C240.071 102.845 240.09 102.903 240.09 103.021C240.09 103.138 240.071 103.196 240.032 103.196C239.251 103.196 238.636 103.509 238.187 104.133C237.738 104.739 237.513 105.558 237.513 106.593V121.587C237.513 121.645 237.465 121.684 237.367 121.704C237.289 121.723 237.23 121.713 237.191 121.674L223.457 106.037V117.428C223.457 118.463 223.672 119.283 224.101 119.888C224.531 120.493 225.126 120.796 225.888 120.796C225.927 120.796 225.946 120.854 225.946 120.972C225.946 121.089 225.927 121.147 225.888 121.147C225.341 121.147 224.921 121.138 224.629 121.118L223.047 121.089L221.232 121.118C220.9 121.138 220.421 121.147 219.797 121.147C219.738 121.147 219.709 121.089 219.709 120.972C219.709 120.854 219.738 120.796 219.797 120.796C220.656 120.796 221.329 120.493 221.817 119.888C222.325 119.283 222.579 118.463 222.579 117.428V105.041C221.934 104.338 221.378 103.86 220.909 103.606C220.46 103.333 219.992 103.196 219.504 103.196C219.465 103.196 219.445 103.138 219.445 103.021C219.445 102.903 219.465 102.845 219.504 102.845L220.734 102.874C220.988 102.894 221.359 102.903 221.847 102.903L224.072 102.874C224.345 102.855 224.677 102.845 225.068 102.845C225.224 102.845 225.341 102.884 225.419 102.962C225.497 103.04 225.634 103.206 225.829 103.46C226.161 103.909 226.395 104.211 226.532 104.368L236.664 116.052V106.593C236.664 105.539 236.449 104.709 236.02 104.104C235.59 103.499 234.995 103.196 234.234 103.196C234.195 103.196 234.175 103.138 234.175 103.021C234.175 102.903 234.195 102.845 234.234 102.845L235.493 102.874C236.118 102.913 236.645 102.933 237.074 102.933C237.465 102.933 238.011 102.913 238.714 102.874L240.032 102.845Z" fill="#E9E9E9"></path> <path d="M42.4507 138.397H41.3223V130.061H42.4507V138.397Z" fill="#E9E9E9"></path> <path d="M55.1749 130.061V138.397H54.1861V132.272C54.1861 132.19 54.188 132.103 54.1919 132.01C54.1997 131.917 54.2074 131.822 54.2152 131.725L51.3534 136.937C51.2642 137.111 51.1285 137.198 50.9462 137.198H50.7833C50.6011 137.198 50.4654 137.111 50.3762 136.937L47.4562 131.702C47.4795 131.907 47.4911 132.097 47.4911 132.272V138.397H46.5023V130.061H47.3341C47.4349 130.061 47.5124 130.071 47.5667 130.09C47.621 130.11 47.6734 130.164 47.7238 130.253L50.603 135.384C50.6496 135.477 50.6942 135.574 50.7368 135.674C50.7833 135.775 50.826 135.878 50.8648 135.983C50.9036 135.878 50.9443 135.775 50.9869 135.674C51.0296 135.57 51.0761 135.471 51.1265 135.378L53.9534 130.253C54 130.164 54.0504 130.11 54.1047 130.09C54.1628 130.071 54.2423 130.061 54.3431 130.061H55.1749Z" fill="#E9E9E9"></path> <path d="M67.8984 130.061V138.397H66.9096V132.272C66.9096 132.19 66.9115 132.103 66.9154 132.01C66.9232 131.917 66.9309 131.822 66.9387 131.725L64.0769 136.937C63.9877 137.111 63.852 137.198 63.6697 137.198H63.5068C63.3246 137.198 63.1889 137.111 63.0997 136.937L60.1797 131.702C60.203 131.907 60.2146 132.097 60.2146 132.272V138.397H59.2258V130.061H60.0576C60.1584 130.061 60.2359 130.071 60.2902 130.09C60.3445 130.11 60.3969 130.164 60.4473 130.253L63.3265 135.384C63.3731 135.477 63.4177 135.574 63.4603 135.674C63.5068 135.775 63.5495 135.878 63.5883 135.983C63.6271 135.878 63.6678 135.775 63.7104 135.674C63.7531 135.57 63.7996 135.471 63.85 135.378L66.6769 130.253C66.7235 130.164 66.7739 130.11 66.8282 130.09C66.8863 130.071 66.9658 130.061 67.0666 130.061H67.8984Z" fill="#E9E9E9"></path> <path d="M73.0777 138.397H71.9493V130.061H73.0777V138.397Z" fill="#E9E9E9"></path> <path d="M83.8999 134.389V137.588C83.4811 137.891 83.0332 138.117 82.5562 138.269C82.0831 138.416 81.5635 138.49 80.9974 138.49C80.3265 138.49 79.7216 138.387 79.1826 138.181C78.6436 137.972 78.1821 137.681 77.7982 137.309C77.4182 136.933 77.1254 136.483 76.9199 135.959C76.7144 135.436 76.6116 134.86 76.6116 134.232C76.6116 133.596 76.7105 133.016 76.9083 132.493C77.1099 131.969 77.3949 131.521 77.7633 131.149C78.1317 130.773 78.5796 130.482 79.107 130.277C79.6343 130.071 80.2238 129.968 80.8752 129.968C81.2048 129.968 81.5112 129.993 81.7943 130.044C82.0773 130.09 82.3391 130.16 82.5795 130.253C82.8199 130.342 83.0429 130.453 83.2484 130.585C83.4539 130.713 83.6459 130.858 83.8243 131.021L83.5044 131.533C83.4539 131.611 83.388 131.661 83.3066 131.684C83.229 131.704 83.1418 131.684 83.0448 131.626C82.9518 131.572 82.8451 131.506 82.7249 131.428C82.6047 131.351 82.4574 131.277 82.2829 131.207C82.1122 131.134 81.9086 131.071 81.6721 131.021C81.4394 130.971 81.1622 130.945 80.8403 130.945C80.3711 130.945 79.9465 131.023 79.5665 131.178C79.1864 131.329 78.8627 131.548 78.5951 131.835C78.3275 132.118 78.122 132.464 77.9785 132.871C77.835 133.274 77.7633 133.728 77.7633 134.232C77.7633 134.755 77.837 135.225 77.9843 135.64C78.1356 136.051 78.3488 136.401 78.6242 136.692C78.9034 136.979 79.2407 137.198 79.6363 137.35C80.0318 137.501 80.4758 137.576 80.9683 137.576C81.3561 137.576 81.6992 137.534 81.9978 137.448C82.3003 137.359 82.595 137.237 82.882 137.082V135.25H81.5849C81.5112 135.25 81.4511 135.228 81.4045 135.186C81.3619 135.143 81.3406 135.091 81.3406 135.029V134.389H83.8999Z" fill="#E9E9E9"></path> <path d="M89.8558 134.098C90.1815 134.098 90.4685 134.059 90.7167 133.982C90.9687 133.9 91.1781 133.788 91.3449 133.644C91.5155 133.497 91.6434 133.323 91.7288 133.121C91.8141 132.919 91.8567 132.696 91.8567 132.452C91.8567 131.956 91.6939 131.581 91.3681 131.329C91.0424 131.077 90.5538 130.951 89.9023 130.951H88.6692V134.098H89.8558ZM93.7064 138.397H92.706C92.5004 138.397 92.3492 138.317 92.2523 138.158L90.0885 135.18C90.0225 135.087 89.9508 135.021 89.8732 134.982C89.7996 134.94 89.6832 134.918 89.5242 134.918H88.6692V138.397H87.5466V130.061H89.9023C90.4297 130.061 90.8853 130.116 91.2692 130.224C91.6531 130.329 91.9692 130.482 92.2174 130.684C92.4694 130.885 92.6555 131.13 92.7758 131.417C92.896 131.7 92.9561 132.018 92.9561 132.371C92.9561 132.665 92.9095 132.941 92.8165 133.197C92.7234 133.452 92.5877 133.683 92.4093 133.889C92.2348 134.09 92.0196 134.263 91.7637 134.406C91.5116 134.55 91.2246 134.658 90.9028 134.732C91.0463 134.814 91.1704 134.932 91.2751 135.087L93.7064 138.397Z" fill="#E9E9E9"></path> <path d="M101.186 135.302L99.8774 131.911C99.8386 131.81 99.7979 131.694 99.7552 131.562C99.7125 131.426 99.6718 131.283 99.633 131.132C99.5516 131.446 99.4682 131.707 99.3829 131.917L98.0742 135.302H101.186ZM103.536 138.397H102.664C102.563 138.397 102.481 138.371 102.419 138.321C102.357 138.271 102.311 138.207 102.28 138.129L101.5 136.116H97.7601L96.9806 138.129C96.9574 138.199 96.9128 138.261 96.8469 138.315C96.7809 138.369 96.6995 138.397 96.6026 138.397H95.7301L99.063 130.061H100.203L103.536 138.397Z" fill="#E9E9E9"></path> <path d="M111.37 131.009H108.672V138.397H107.549V131.009H104.844V130.061H111.37V131.009Z" fill="#E9E9E9"></path> <path d="M115.655 138.397H114.527V130.061H115.655V138.397Z" fill="#E9E9E9"></path> <path d="M127.408 134.232C127.408 134.856 127.309 135.43 127.111 135.954C126.914 136.473 126.634 136.921 126.274 137.297C125.913 137.673 125.479 137.966 124.971 138.176C124.467 138.381 123.908 138.484 123.296 138.484C122.683 138.484 122.125 138.381 121.62 138.176C121.116 137.966 120.684 137.673 120.323 137.297C119.963 136.921 119.684 136.473 119.486 135.954C119.288 135.43 119.189 134.856 119.189 134.232C119.189 133.608 119.288 133.036 119.486 132.516C119.684 131.992 119.963 131.543 120.323 131.166C120.684 130.786 121.116 130.492 121.62 130.282C122.125 130.073 122.683 129.968 123.296 129.968C123.908 129.968 124.467 130.073 124.971 130.282C125.479 130.492 125.913 130.786 126.274 131.166C126.634 131.543 126.914 131.992 127.111 132.516C127.309 133.036 127.408 133.608 127.408 134.232ZM126.251 134.232C126.251 133.72 126.181 133.26 126.041 132.853C125.902 132.446 125.704 132.103 125.448 131.824C125.192 131.541 124.882 131.324 124.517 131.172C124.153 131.021 123.746 130.945 123.296 130.945C122.85 130.945 122.445 131.021 122.08 131.172C121.716 131.324 121.403 131.541 121.144 131.824C120.888 132.103 120.69 132.446 120.55 132.853C120.411 133.26 120.341 133.72 120.341 134.232C120.341 134.744 120.411 135.203 120.55 135.61C120.69 136.014 120.888 136.357 121.144 136.64C121.403 136.919 121.716 137.134 122.08 137.286C122.445 137.433 122.85 137.507 123.296 137.507C123.746 137.507 124.153 137.433 124.517 137.286C124.882 137.134 125.192 136.919 125.448 136.64C125.704 136.357 125.902 136.014 126.041 135.61C126.181 135.203 126.251 134.744 126.251 134.232Z" fill="#E9E9E9"></path> <path d="M137.695 130.061V138.397H137.131C137.042 138.397 136.966 138.381 136.904 138.35C136.846 138.319 136.788 138.267 136.73 138.193L131.908 131.911C131.915 132.008 131.921 132.103 131.925 132.196C131.929 132.289 131.931 132.376 131.931 132.458V138.397H130.942V130.061H131.524C131.574 130.061 131.617 130.065 131.652 130.073C131.687 130.077 131.718 130.087 131.745 130.102C131.772 130.114 131.799 130.133 131.826 130.16C131.853 130.183 131.882 130.215 131.913 130.253L136.735 136.529C136.728 136.429 136.72 136.332 136.712 136.239C136.708 136.142 136.706 136.051 136.706 135.965V130.061H137.695Z" fill="#E9E9E9"></path> <path d="M152.493 136.675C152.555 136.675 152.61 136.7 152.656 136.75L153.104 137.233C152.763 137.629 152.348 137.937 151.859 138.158C151.374 138.379 150.787 138.49 150.097 138.49C149.5 138.49 148.957 138.387 148.468 138.181C147.979 137.972 147.563 137.681 147.217 137.309C146.872 136.933 146.605 136.483 146.415 135.959C146.225 135.436 146.13 134.86 146.13 134.232C146.13 133.604 146.229 133.028 146.426 132.504C146.624 131.981 146.901 131.531 147.258 131.155C147.619 130.779 148.049 130.488 148.549 130.282C149.05 130.073 149.602 129.968 150.207 129.968C150.801 129.968 151.324 130.063 151.778 130.253C152.231 130.443 152.631 130.701 152.976 131.027L152.604 131.545C152.58 131.583 152.549 131.616 152.511 131.643C152.476 131.667 152.427 131.678 152.365 131.678C152.295 131.678 152.21 131.642 152.109 131.568C152.008 131.49 151.877 131.405 151.714 131.312C151.551 131.219 151.347 131.135 151.103 131.062C150.859 130.984 150.558 130.945 150.201 130.945C149.771 130.945 149.377 131.021 149.021 131.172C148.664 131.32 148.356 131.535 148.096 131.818C147.84 132.101 147.64 132.446 147.497 132.853C147.353 133.26 147.281 133.72 147.281 134.232C147.281 134.751 147.355 135.215 147.502 135.622C147.654 136.029 147.857 136.374 148.113 136.657C148.373 136.937 148.677 137.15 149.026 137.297C149.379 137.445 149.759 137.518 150.167 137.518C150.415 137.518 150.638 137.505 150.835 137.478C151.037 137.447 151.221 137.4 151.388 137.338C151.559 137.276 151.716 137.198 151.859 137.105C152.007 137.008 152.152 136.894 152.295 136.762C152.361 136.704 152.427 136.675 152.493 136.675Z" fill="#E9E9E9"></path> <path d="M161.474 137.478L161.468 138.397H156.332V130.061H161.468V130.98H157.46V133.749H160.706V134.633H157.46V137.478H161.474Z" fill="#E9E9E9"></path> <path d="M171.719 130.061V138.397H171.154C171.065 138.397 170.99 138.381 170.928 138.35C170.869 138.319 170.811 138.267 170.753 138.193L165.931 131.911C165.939 132.008 165.945 132.103 165.948 132.196C165.952 132.289 165.954 132.376 165.954 132.458V138.397H164.965V130.061H165.547C165.598 130.061 165.64 130.065 165.675 130.073C165.71 130.077 165.741 130.087 165.768 130.102C165.795 130.114 165.822 130.133 165.85 130.16C165.877 130.183 165.906 130.215 165.937 130.253L170.759 136.529C170.751 136.429 170.743 136.332 170.736 136.239C170.732 136.142 170.73 136.051 170.73 135.965V130.061H171.719Z" fill="#E9E9E9"></path> <path d="M181.405 131.009H178.706V138.397H177.584V131.009H174.879V130.061H181.405V131.009Z" fill="#E9E9E9"></path> <path d="M189.704 137.478L189.698 138.397H184.562V130.061H189.698V130.98H185.69V133.749H188.936V134.633H185.69V137.478H189.704Z" fill="#E9E9E9"></path> <path d="M195.505 134.098C195.83 134.098 196.117 134.059 196.365 133.982C196.618 133.9 196.827 133.788 196.994 133.644C197.164 133.497 197.292 133.323 197.378 133.121C197.463 132.919 197.506 132.696 197.506 132.452C197.506 131.956 197.343 131.581 197.017 131.329C196.691 131.077 196.203 130.951 195.551 130.951H194.318V134.098H195.505ZM199.355 138.397H198.355C198.149 138.397 197.998 138.317 197.901 138.158L195.737 135.18C195.671 135.087 195.6 135.021 195.522 134.982C195.448 134.94 195.332 134.918 195.173 134.918H194.318V138.397H193.195V130.061H195.551C196.079 130.061 196.534 130.116 196.918 130.224C197.302 130.329 197.618 130.482 197.866 130.684C198.118 130.885 198.304 131.13 198.425 131.417C198.545 131.7 198.605 132.018 198.605 132.371C198.605 132.665 198.558 132.941 198.465 133.197C198.372 133.452 198.236 133.683 198.058 133.889C197.884 134.09 197.668 134.263 197.412 134.406C197.16 134.55 196.873 134.658 196.552 134.732C196.695 134.814 196.819 134.932 196.924 135.087L199.355 138.397Z" fill="#E9E9E9"></path> <g clip-path="url(#clip0_642_50)"> <path fill-rule="evenodd" clip-rule="evenodd" d="M134.746 21.6862C139.318 19.0272 141.56 15.5782 141.415 10.2506C141.395 6.83053 141.386 3.42008 141.386 0C135.451 6.10155 125.157 15.2797 115.333 23.6034C107.849 29.9434 105.297 34.9715 114.44 45.1836C109.994 39.4321 111.509 35.0775 117.76 31.5129C123.37 28.2952 129.155 24.9425 134.746 21.6862Z" fill="url(#paint0_linear_642_50)"></path> <path d="M105.102 47.3127C107.908 47.7655 112.984 48.3532 114.44 45.1836C105.297 34.9715 107.849 29.9434 115.333 23.6034C125.157 15.2797 135.451 6.10155 141.386 0C130.094 8.38803 118.824 16.7953 107.578 25.2219C103.918 28.489 101.645 33.0139 101.22 37.881C101.045 41.2722 101.957 45.3859 105.102 47.3127Z" fill="url(#paint1_linear_642_50)"></path> <path d="M114.422 45.1834C114.422 45.1834 113.742 44.6343 112.616 43.642C107.297 38.9309 100.347 31.6476 107.559 25.2217C105.245 26.9982 103.199 29.0939 101.483 31.4453C96.4061 38.218 97.3768 49.1334 97.6195 57.2645C97.7359 61.1855 102.395 62.0815 105.385 60.4822C108.617 58.7674 112.092 56.8406 115.247 55.145C120.09 52.5534 117.761 47.8039 114.422 45.1834Z" fill="url(#paint2_linear_642_50)"></path> <path fill-rule="evenodd" clip-rule="evenodd" d="M104.454 69.365C99.8826 72.0433 97.6404 75.4826 97.786 80.8102C97.8054 84.2335 97.8151 87.6504 97.8151 91.0608C104.412 84.5134 110.543 79.0224 121.926 68.8256C124.08 66.8963 127.47 64.6419 128.235 63.933C133.831 58.7451 128.555 49.6551 124.78 45.8676C129.235 51.6095 127.711 55.9737 121.47 59.5383C115.83 62.7561 110.055 66.1087 104.454 69.365Z" fill="url(#paint3_linear_642_50)"></path> <path d="M134.118 43.7385C131.322 43.276 126.236 42.6884 124.78 45.8676C128.555 49.6551 133.831 58.7451 128.235 63.933C127.47 64.6419 124.08 66.8963 121.926 68.8256C110.543 79.0224 104.412 84.5134 97.8151 91.0608C109.107 82.6728 120.383 74.2687 131.642 65.8486C135.309 62.5743 137.582 58.0379 138 53.1606C138.175 49.7694 137.263 45.6653 134.118 43.7385Z" fill="url(#paint4_linear_642_50)"></path> <path d="M124.78 45.8868C124.78 45.8868 125.459 46.4263 126.585 47.4283C131.914 52.1393 138.854 59.413 131.642 65.8486C133.952 64.0671 135.997 61.972 137.719 59.625C142.824 52.8811 141.834 41.9272 141.601 33.7961C141.485 29.8847 136.835 28.9791 133.836 30.5784C130.575 32.3028 127.1 34.2297 123.945 35.9156C119.111 38.5361 121.499 43.2567 124.78 45.8868Z" fill="url(#paint5_linear_642_50)"></path> </g> <defs> <linearGradient id="paint0_linear_642_50" x1="153.556" y1="23.7684" x2="106.809" y2="33.315" gradientUnits="userSpaceOnUse"> <stop stop-color="#6219FF"></stop> <stop offset="1" stop-color="#190050"></stop> </linearGradient> <linearGradient id="paint1_linear_642_50" x1="141.517" y1="2.43353e-06" x2="105.985" y2="33.3018" gradientUnits="userSpaceOnUse"> <stop stop-color="#1F025C"></stop> <stop offset="0.447917" stop-color="#8951FF"></stop> <stop offset="0.651042" stop-color="#AB83FF"></stop> <stop offset="1" stop-color="#4400D6"></stop> </linearGradient> <linearGradient id="paint2_linear_642_50" x1="121.789" y1="44.3549" x2="97.3591" y2="42.6924" gradientUnits="userSpaceOnUse"> <stop offset="0.06" stop-color="#DDDDDD"></stop> <stop offset="0.28" stop-color="#F7F7F7"></stop> <stop offset="0.64" stop-color="#D6D6D6"></stop> <stop offset="1" stop-color="#939393"></stop> </linearGradient> <linearGradient id="paint3_linear_642_50" x1="97.6981" y1="73.7688" x2="135.784" y2="54.0138" gradientUnits="userSpaceOnUse"> <stop stop-color="#FF0101"></stop> <stop offset="0.432292" stop-color="#FF5151"></stop> <stop offset="0.723958" stop-color="#EE3737"></stop> <stop offset="1" stop-color="#7C0101"></stop> </linearGradient> <linearGradient id="paint4_linear_642_50" x1="97.6852" y1="89.6718" x2="131.049" y2="63.7761" gradientUnits="userSpaceOnUse"> <stop stop-color="#5C0000"></stop> <stop offset="1" stop-color="#FF0000"></stop> <stop offset="1" stop-color="#FF0000"></stop> </linearGradient> <linearGradient id="paint5_linear_642_50" x1="143.583" y1="40.7711" x2="123.529" y2="53.6034" gradientUnits="userSpaceOnUse"> <stop offset="0.06" stop-color="#DFDFDF"></stop> <stop offset="0.286458" stop-color="#F7F7F7"></stop> <stop offset="0.64" stop-color="#D0D0D0"></stop> <stop offset="0.993848" stop-color="#8F8F8F"></stop> </linearGradient> <clipPath id="clip0_642_50"> <rect width="44.4464" height="91.0609" fill="white" transform="translate(97.377)"></rect> </clipPath> </defs> </svg> 