<svg width="179" height="147" viewBox="0 0 179 147" fill="none" xmlns="http://www.w3.org/2000/svg">
<path fill-rule="evenodd" clip-rule="evenodd" d="M105.853 23.7547C110.861 20.8421 113.317 17.0642 113.157 11.2284C113.136 7.48206 113.125 3.74631 113.125 0C106.625 6.68355 95.3488 16.7372 84.5872 25.8548C76.3903 32.7996 73.5945 38.3073 83.6097 49.4935C78.74 43.1933 80.3987 38.4234 87.2459 34.5188C93.3915 30.9941 99.7284 27.3216 105.853 23.7547Z" fill="url(#paint0_linear_3_238)"/>
<path d="M73.3813 51.8257C76.454 52.3216 82.0148 52.9654 83.6097 49.4935C73.5945 38.3073 76.3903 32.7996 84.5872 25.8548C95.3488 16.7372 106.625 6.68355 113.125 0C100.756 9.18812 88.412 18.3974 76.0925 27.6277C72.0839 31.2065 69.5946 36.1629 69.1283 41.4943C68.9369 45.2089 69.9364 49.7151 73.3813 51.8257Z" fill="url(#paint1_linear_3_238)"/>
<path d="M83.588 49.4935C83.588 49.4935 82.8437 48.8919 81.6103 47.805C75.7838 42.6446 68.1709 34.6665 76.0708 27.6277C73.5362 29.5737 71.2949 31.8693 69.4149 34.4449C63.8542 41.8636 64.9174 53.8202 65.1832 62.7269C65.3108 67.0219 70.4144 68.0034 73.6892 66.2516C77.2298 64.3731 81.0362 62.2626 84.4917 60.4052C89.7973 57.5665 87.2455 52.3639 83.588 49.4935Z" fill="url(#paint2_linear_3_238)"/>
<path fill-rule="evenodd" clip-rule="evenodd" d="M72.6694 75.9814C67.6616 78.9152 65.2055 82.6826 65.365 88.5184C65.3862 92.2682 65.3969 96.011 65.3969 99.7467C72.6234 92.5747 79.3385 86.56 91.8081 75.3906C94.1675 73.2772 97.8808 70.8078 98.7184 70.0313C104.848 64.3485 99.0687 54.3915 94.9338 50.2427C99.814 56.5323 98.1447 61.3128 91.3081 65.2174C85.1307 68.7421 78.8044 72.4145 72.6694 75.9814Z" fill="url(#paint3_linear_3_238)"/>
<path d="M105.162 47.9105C102.1 47.404 96.5286 46.7603 94.9338 50.2427C99.0687 54.3915 104.848 64.3485 98.7184 70.0313C97.8808 70.8078 94.1675 73.2772 91.8081 75.3906C79.3385 86.56 72.6234 92.5747 65.3969 99.7467C77.7659 90.5586 90.1173 81.3529 102.451 72.1296C106.467 68.5431 108.957 63.5739 109.415 58.2313C109.607 54.5167 108.607 50.0211 105.162 47.9105Z" fill="url(#paint4_linear_3_238)"/>
<path d="M94.9336 50.2638C94.9336 50.2638 95.6779 50.8548 96.9112 51.9523C102.748 57.1127 110.351 65.0802 102.451 72.1296C104.98 70.1782 107.221 67.8833 109.107 65.3123C114.699 57.9253 113.615 45.9265 113.36 37.0198C113.232 32.7353 108.139 31.7433 104.854 33.4951C101.281 35.3841 97.4748 37.4947 94.0192 39.3415C88.7243 42.2119 91.3398 47.3828 94.9336 50.2638Z" fill="url(#paint5_linear_3_238)"/>
<path d="M8.2256 145.159L8.21959 146.295H2.82227V137.64H8.21959V138.776H4.2347V141.385H7.42021V142.485H4.2347V145.159H8.2256Z" fill="#FF1414"/>
<path d="M17.5137 145.117V146.295H12.5131V137.64H13.9195V145.117H17.5137Z" fill="#FF1414"/>
<path d="M26.0677 143.05L24.8776 139.888C24.7815 139.644 24.6833 139.333 24.5831 138.957C24.539 139.145 24.491 139.319 24.4389 139.48C24.3868 139.636 24.3387 139.774 24.2946 139.894L23.1046 143.05H26.0677ZM28.7303 146.295H27.6424C27.5182 146.295 27.418 146.265 27.3419 146.205C27.2658 146.141 27.2077 146.063 27.1676 145.971L26.4463 144.06H22.7199L21.9987 145.971C21.9666 146.051 21.9105 146.125 21.8304 146.193C21.7502 146.261 21.6501 146.295 21.5299 146.295H20.442L23.8739 137.64H25.2984L28.7303 146.295Z" fill="#FF1414"/>
<path d="M35.6545 145.184C35.9711 145.184 36.2375 145.147 36.4539 145.075C36.6743 144.999 36.8526 144.897 36.9888 144.769C37.1291 144.641 37.2292 144.49 37.2893 144.318C37.3535 144.142 37.3855 143.953 37.3855 143.753C37.3855 143.344 37.2453 143.024 36.9648 142.791C36.6883 142.555 36.2496 142.437 35.6485 142.437H33.9115V145.184H35.6545ZM33.9115 138.74V141.445H35.3179C35.919 141.445 36.3678 141.329 36.6643 141.096C36.9608 140.864 37.109 140.529 37.109 140.093C37.109 139.616 36.9688 139.271 36.6883 139.059C36.4118 138.847 35.9771 138.74 35.3841 138.74H33.9115ZM35.3841 137.64C35.937 137.64 36.4098 137.695 36.8025 137.803C37.1952 137.907 37.5177 138.057 37.7702 138.254C38.0226 138.45 38.2069 138.69 38.3231 138.975C38.4433 139.255 38.5034 139.572 38.5034 139.924C38.5034 140.129 38.4714 140.327 38.4073 140.519C38.3472 140.708 38.251 140.886 38.1188 141.054C37.9906 141.219 37.8283 141.367 37.6319 141.499C37.4356 141.631 37.2032 141.742 36.9347 141.83C38.1608 142.09 38.7739 142.741 38.7739 143.783C38.7739 144.152 38.7038 144.49 38.5635 144.799C38.4273 145.103 38.227 145.368 37.9625 145.592C37.7021 145.813 37.3795 145.985 36.9948 146.109C36.6102 146.233 36.1714 146.295 35.6786 146.295H32.5051V137.64H35.3841Z" fill="#FF1414"/>
<path d="M51.2553 141.968C51.2553 142.609 51.1511 143.2 50.9428 143.741C50.7344 144.282 50.4399 144.749 50.0592 145.141C49.6826 145.53 49.2278 145.835 48.6949 146.055C48.166 146.275 47.577 146.386 46.9278 146.386C46.2827 146.386 45.6937 146.275 45.1608 146.055C44.6319 145.835 44.1771 145.53 43.7964 145.141C43.4158 144.749 43.1213 144.282 42.9129 143.741C42.7045 143.2 42.6004 142.609 42.6004 141.968C42.6004 141.327 42.7045 140.736 42.9129 140.195C43.1213 139.654 43.4158 139.187 43.7964 138.794C44.1771 138.402 44.6319 138.095 45.1608 137.875C45.6937 137.655 46.2827 137.544 46.9278 137.544C47.577 137.544 48.166 137.655 48.6949 137.875C49.2278 138.095 49.6826 138.402 50.0592 138.794C50.4399 139.187 50.7344 139.654 50.9428 140.195C51.1511 140.736 51.2553 141.327 51.2553 141.968ZM49.8188 141.968C49.8188 141.471 49.7507 141.024 49.6145 140.628C49.4822 140.231 49.2899 139.894 49.0375 139.618C48.789 139.341 48.4865 139.129 48.1299 138.981C47.7733 138.833 47.3726 138.758 46.9278 138.758C46.4871 138.758 46.0884 138.833 45.7318 138.981C45.3752 139.129 45.0706 139.341 44.8182 139.618C44.5658 139.894 44.3714 140.231 44.2352 140.628C44.0989 141.024 44.0308 141.471 44.0308 141.968C44.0308 142.469 44.0989 142.918 44.2352 143.314C44.3714 143.711 44.5658 144.048 44.8182 144.324C45.0706 144.596 45.3752 144.807 45.7318 144.955C46.0884 145.099 46.4871 145.171 46.9278 145.171C47.3726 145.171 47.7733 145.099 48.1299 144.955C48.4865 144.807 48.789 144.596 49.0375 144.324C49.2899 144.048 49.4822 143.711 49.6145 143.314C49.7507 142.918 49.8188 142.469 49.8188 141.968Z" fill="#FF1414"/>
<path d="M58.0733 141.788C58.3939 141.788 58.6744 141.75 58.9148 141.673C59.1552 141.593 59.3555 141.483 59.5158 141.343C59.6761 141.203 59.7963 141.036 59.8764 140.844C59.9566 140.648 59.9967 140.431 59.9967 140.195C59.9967 139.722 59.8404 139.361 59.5278 139.113C59.2153 138.865 58.7425 138.74 58.1094 138.74H56.9674V141.788H58.0733ZM62.1484 146.295H60.8922C60.6438 146.295 60.4635 146.199 60.3513 146.007L58.3318 143.092C58.2637 142.992 58.1895 142.92 58.1094 142.876C58.0293 142.831 57.909 142.809 57.7488 142.809H56.9674V146.295H55.561V137.64H58.1094C58.6784 137.64 59.1672 137.699 59.5759 137.815C59.9886 137.931 60.3272 138.097 60.5917 138.314C60.8561 138.526 61.0505 138.782 61.1747 139.083C61.3029 139.383 61.367 139.718 61.367 140.087C61.367 140.387 61.3209 140.668 61.2288 140.928C61.1406 141.189 61.0104 141.425 60.8381 141.637C60.6698 141.85 60.4615 142.034 60.213 142.19C59.9646 142.347 59.6821 142.469 59.3656 142.557C59.5379 142.661 59.6861 142.807 59.8103 142.996L62.1484 146.295Z" fill="#FF1414"/>
<path d="M70.536 143.05L69.346 139.888C69.2498 139.644 69.1516 139.333 69.0515 138.957C69.0074 139.145 68.9593 139.319 68.9072 139.48C68.8551 139.636 68.8071 139.774 68.763 139.894L67.5729 143.05H70.536ZM73.1986 146.295H72.1108C71.9865 146.295 71.8864 146.265 71.8102 146.205C71.7341 146.141 71.676 146.063 71.6359 145.971L70.9147 144.06H67.1883L66.467 145.971C66.435 146.051 66.3789 146.125 66.2987 146.193C66.2186 146.261 66.1184 146.295 65.9982 146.295H64.9103L68.3423 137.64H69.7667L73.1986 146.295Z" fill="#FF1414"/>
<path d="M82.0845 138.813H79.3859V146.295H77.9854V138.813H75.2808V137.64H82.0845V138.813Z" fill="#FF1414"/>
<path d="M91.4571 145.159L91.4511 146.295H86.0538V137.64H91.4511V138.776H87.4662V141.385H90.6517V142.485H87.4662V145.159H91.4571Z" fill="#FF1414"/>
<path d="M103.342 141.968C103.342 142.609 103.238 143.196 103.029 143.729C102.821 144.258 102.526 144.713 102.146 145.093C101.769 145.474 101.314 145.771 100.781 145.983C100.252 146.191 99.6634 146.295 99.0142 146.295H95.7446V137.64H99.0142C99.6634 137.64 100.252 137.747 100.781 137.959C101.314 138.167 101.769 138.462 102.146 138.843C102.526 139.223 102.821 139.68 103.029 140.213C103.238 140.742 103.342 141.327 103.342 141.968ZM101.905 141.968C101.905 141.471 101.837 141.024 101.701 140.628C101.569 140.231 101.376 139.896 101.124 139.624C100.875 139.351 100.573 139.143 100.216 138.999C99.8597 138.851 99.459 138.776 99.0142 138.776H97.157V145.159H99.0142C99.459 145.159 99.8597 145.087 100.216 144.943C100.573 144.799 100.875 144.59 101.124 144.318C101.376 144.042 101.569 143.707 101.701 143.314C101.837 142.918 101.905 142.469 101.905 141.968Z" fill="#FF1414"/>
<path d="M117.938 139.119C117.894 139.191 117.848 139.245 117.8 139.281C117.752 139.313 117.692 139.329 117.62 139.329C117.543 139.329 117.457 139.297 117.361 139.233C117.269 139.169 117.153 139.099 117.013 139.023C116.876 138.943 116.714 138.871 116.526 138.806C116.337 138.738 116.113 138.704 115.853 138.704C115.612 138.704 115.4 138.734 115.215 138.794C115.035 138.855 114.883 138.939 114.759 139.047C114.634 139.155 114.54 139.283 114.476 139.432C114.416 139.576 114.386 139.734 114.386 139.906C114.386 140.127 114.444 140.311 114.56 140.459C114.676 140.604 114.829 140.728 115.017 140.832C115.209 140.936 115.428 141.028 115.672 141.108C115.917 141.185 116.165 141.267 116.417 141.355C116.674 141.443 116.924 141.543 117.169 141.655C117.413 141.768 117.63 141.91 117.818 142.082C118.01 142.254 118.164 142.465 118.281 142.713C118.397 142.962 118.455 143.264 118.455 143.621C118.455 144.005 118.389 144.366 118.257 144.703C118.124 145.039 117.932 145.334 117.68 145.586C117.431 145.835 117.123 146.031 116.754 146.175C116.389 146.319 115.973 146.392 115.504 146.392C115.227 146.392 114.957 146.364 114.693 146.307C114.432 146.255 114.182 146.181 113.941 146.085C113.705 145.985 113.482 145.865 113.274 145.724C113.066 145.584 112.879 145.428 112.715 145.256L113.124 144.582C113.16 144.526 113.206 144.482 113.262 144.45C113.318 144.418 113.38 144.402 113.448 144.402C113.541 144.402 113.643 144.446 113.755 144.534C113.867 144.619 114.001 144.713 114.158 144.817C114.318 144.917 114.51 145.011 114.735 145.099C114.959 145.184 115.227 145.226 115.54 145.226C116.049 145.226 116.442 145.101 116.718 144.853C116.998 144.605 117.139 144.262 117.139 143.825C117.139 143.581 117.081 143.382 116.964 143.23C116.848 143.074 116.694 142.944 116.502 142.839C116.313 142.735 116.097 142.647 115.853 142.575C115.608 142.503 115.36 142.427 115.107 142.347C114.855 142.262 114.606 142.166 114.362 142.058C114.118 141.946 113.899 141.802 113.707 141.625C113.518 141.445 113.366 141.225 113.25 140.964C113.134 140.7 113.076 140.371 113.076 139.979C113.076 139.666 113.136 139.363 113.256 139.071C113.38 138.778 113.559 138.52 113.791 138.296C114.027 138.067 114.318 137.885 114.662 137.749C115.007 137.612 115.4 137.544 115.84 137.544C116.337 137.544 116.792 137.622 117.205 137.779C117.622 137.935 117.98 138.157 118.281 138.446L117.938 139.119Z" fill="#FF1414"/>
<path d="M128.143 145.159L128.136 146.295H122.739V137.64H128.136V138.776H124.152V141.385H127.337V142.485H124.152V145.159H128.143Z" fill="#FF1414"/>
<path d="M134.942 141.788C135.263 141.788 135.543 141.75 135.784 141.673C136.024 141.593 136.225 141.483 136.385 141.343C136.545 141.203 136.665 141.036 136.745 140.844C136.826 140.648 136.866 140.431 136.866 140.195C136.866 139.722 136.709 139.361 136.397 139.113C136.084 138.865 135.611 138.74 134.978 138.74H133.836V141.788H134.942ZM139.017 146.295H137.761C137.513 146.295 137.332 146.199 137.22 146.007L135.201 143.092C135.133 142.992 135.059 142.92 134.978 142.876C134.898 142.831 134.778 142.809 134.618 142.809H133.836V146.295H132.43V137.64H134.978C135.547 137.64 136.036 137.699 136.445 137.815C136.858 137.931 137.196 138.097 137.461 138.314C137.725 138.526 137.919 138.782 138.044 139.083C138.172 139.383 138.236 139.718 138.236 140.087C138.236 140.387 138.19 140.668 138.098 140.928C138.01 141.189 137.879 141.425 137.707 141.637C137.539 141.85 137.33 142.034 137.082 142.19C136.834 142.347 136.551 142.469 136.235 142.557C136.407 142.661 136.555 142.807 136.679 142.996L139.017 146.295Z" fill="#FF1414"/>
<path d="M149.821 137.64L146.311 146.295H145.043L141.533 137.64H142.657C142.781 137.64 142.881 137.673 142.957 137.737C143.033 137.797 143.091 137.873 143.132 137.965L145.361 143.609C145.482 143.925 145.592 144.29 145.692 144.703C145.736 144.498 145.782 144.304 145.83 144.12C145.882 143.935 145.938 143.765 145.999 143.609L148.222 137.965C148.254 137.885 148.31 137.811 148.391 137.743C148.471 137.675 148.571 137.64 148.691 137.64H149.821Z" fill="#FF1414"/>
<path d="M155.008 146.295H153.596V137.64H155.008V146.295Z" fill="#FF1414"/>
<path d="M165.834 144.366C165.91 144.366 165.976 144.396 166.032 144.456L166.591 145.063C166.239 145.488 165.806 145.817 165.293 146.049C164.78 146.277 164.167 146.392 163.454 146.392C162.821 146.392 162.248 146.283 161.735 146.067C161.226 145.847 160.791 145.542 160.431 145.153C160.07 144.761 159.792 144.294 159.595 143.753C159.403 143.212 159.307 142.617 159.307 141.968C159.307 141.319 159.409 140.724 159.613 140.183C159.822 139.638 160.112 139.171 160.485 138.782C160.861 138.39 161.31 138.085 161.831 137.869C162.356 137.652 162.933 137.544 163.562 137.544C164.187 137.544 164.738 137.646 165.215 137.851C165.696 138.051 166.113 138.32 166.465 138.656L166.002 139.311C165.97 139.355 165.932 139.394 165.888 139.426C165.844 139.458 165.784 139.474 165.708 139.474C165.628 139.474 165.536 139.438 165.431 139.365C165.331 139.289 165.201 139.207 165.041 139.119C164.884 139.027 164.686 138.945 164.446 138.873C164.209 138.796 163.913 138.758 163.556 138.758C163.143 138.758 162.765 138.831 162.42 138.975C162.076 139.119 161.779 139.329 161.531 139.606C161.282 139.882 161.088 140.219 160.948 140.616C160.811 141.012 160.743 141.463 160.743 141.968C160.743 142.477 160.815 142.932 160.96 143.332C161.104 143.729 161.302 144.066 161.555 144.342C161.807 144.615 162.104 144.823 162.444 144.967C162.785 145.111 163.151 145.184 163.544 145.184C163.785 145.184 163.999 145.171 164.187 145.147C164.38 145.119 164.556 145.077 164.716 145.021C164.876 144.961 165.027 144.887 165.167 144.799C165.311 144.711 165.453 144.603 165.594 144.474C165.674 144.402 165.754 144.366 165.834 144.366Z" fill="#FF1414"/>
<path d="M175.974 145.159L175.968 146.295H170.571V137.64H175.968V138.776H171.983V141.385H175.169V142.485H171.983V145.159H175.974Z" fill="#FF1414"/>
<path d="M17.0387 125.419C17.0387 125.375 17.0883 125.352 17.1875 125.352C17.2619 125.352 17.3239 125.375 17.3735 125.419C17.4479 125.442 17.4851 125.464 17.4851 125.486C17.2371 127.225 17.1131 128.808 17.1131 130.235C17.1131 130.414 17.0759 130.548 17.0015 130.637C16.9271 130.704 16.7783 130.737 16.555 130.737H0.111607C0.0372023 130.737 0 130.67 0 130.536C0 130.403 0.0372023 130.336 0.111607 130.336C0.905257 130.336 1.47569 130.28 1.82292 130.169C2.19494 130.057 2.44295 129.845 2.56696 129.533C2.69097 129.199 2.75297 128.697 2.75297 128.028V112.543C2.75297 111.874 2.69097 111.383 2.56696 111.071C2.44295 110.759 2.19494 110.547 1.82292 110.436C1.45089 110.302 0.880456 110.235 0.111607 110.235C0.0372023 110.235 0 110.168 0 110.034C0 109.9 0.0372023 109.834 0.111607 109.834H15.8854C16.1334 109.834 16.2574 109.934 16.2574 110.135L16.3318 114.583C16.3318 114.627 16.2574 114.661 16.1086 114.683C15.9846 114.706 15.9102 114.683 15.8854 114.616C15.4886 113.323 14.8189 112.364 13.8765 111.74C12.934 111.116 11.6939 110.804 10.1562 110.804H9.04017C8.29613 110.804 7.75049 110.948 7.40327 111.238C7.05605 111.528 6.88244 111.974 6.88244 112.576V119.399H9.97023C11.4087 119.399 12.5124 119.176 13.2812 118.73C14.0501 118.284 14.4345 117.66 14.4345 116.857C14.4345 116.79 14.4965 116.757 14.6205 116.757C14.7693 116.757 14.8437 116.79 14.8437 116.857L14.8065 119.867L14.8437 121.473C14.8933 122.231 14.9181 122.833 14.9181 123.279C14.9181 123.323 14.8437 123.346 14.6949 123.346C14.5461 123.346 14.4717 123.323 14.4717 123.279C14.4717 122.365 14.0749 121.651 13.2812 121.138C12.5124 120.603 11.3963 120.336 9.93303 120.336H6.88244V127.894C6.88244 128.541 7.01884 129.02 7.29166 129.332C7.56448 129.645 7.99851 129.801 8.59374 129.801H9.82142C11.7559 129.801 13.306 129.444 14.4717 128.73C15.6374 128.017 16.493 126.913 17.0387 125.419Z" fill="#4701DC"/>
<path d="M23.9121 113.212C23.9121 114.014 24.1353 114.728 24.5817 115.352C25.053 115.976 25.6234 116.523 26.2931 116.991C26.9627 117.459 27.868 118.028 29.0088 118.697C30.2489 119.41 31.241 120.035 31.985 120.57C32.7291 121.105 33.3615 121.763 33.8823 122.543C34.4032 123.301 34.6636 124.182 34.6636 125.185C34.6636 126.345 34.3164 127.381 33.6219 128.296C32.9275 129.187 31.9602 129.89 30.7201 130.403C29.5049 130.893 28.1408 131.138 26.6279 131.138C25.5118 131.138 24.3461 131.005 23.1309 130.737C21.9156 130.447 21.0971 130.135 20.6755 129.801C20.5515 129.711 20.4523 129.633 20.3779 129.567C20.3283 129.477 20.3035 129.344 20.3035 129.165L20.1919 123.847V123.814C20.1919 123.725 20.2539 123.68 20.3779 123.68C20.5019 123.658 20.5763 123.691 20.6011 123.78C21.3451 125.141 21.99 126.244 22.5356 127.092C23.1061 127.939 23.8129 128.686 24.6562 129.332C25.5242 129.979 26.5039 130.302 27.5951 130.302C28.5872 130.302 29.4057 130.068 30.0505 129.6C30.6953 129.109 31.0178 128.284 31.0178 127.125C31.0178 126.144 30.7697 125.285 30.2737 124.55C29.8025 123.814 29.2196 123.19 28.5252 122.677C27.8308 122.164 26.8759 121.551 25.6606 120.837C24.4701 120.146 23.5401 119.555 22.8704 119.065C22.2256 118.574 21.6676 117.983 21.1963 117.292C20.7251 116.601 20.4895 115.787 20.4895 114.85C20.4895 113.669 20.8615 112.676 21.6056 111.874C22.3744 111.049 23.3541 110.447 24.5445 110.068C25.735 109.666 26.9875 109.466 28.302 109.466C29.17 109.466 30.0505 109.544 30.9433 109.7C31.8362 109.834 32.5555 110.001 33.1011 110.202C33.3243 110.291 33.4731 110.391 33.5475 110.503C33.6219 110.592 33.6591 110.714 33.6591 110.87V115.787C33.6591 115.854 33.5971 115.91 33.4731 115.954C33.3491 115.976 33.2747 115.954 33.2499 115.887L32.9523 115.252C32.3322 113.847 31.6006 112.654 30.7573 111.673C29.9389 110.692 28.7856 110.202 27.2975 110.202C26.3055 110.202 25.487 110.458 24.8422 110.971C24.2221 111.484 23.9121 112.231 23.9121 113.212Z" fill="#4701DC"/>
<path d="M60.4085 125.419C60.4085 125.375 60.4581 125.352 60.5573 125.352C60.6317 125.352 60.6937 125.375 60.7433 125.419C60.8177 125.442 60.8549 125.464 60.8549 125.486C60.6069 127.225 60.4829 128.808 60.4829 130.235C60.4829 130.414 60.4457 130.548 60.3713 130.637C60.2969 130.704 60.1481 130.737 59.9249 130.737H43.4814C43.407 130.737 43.3698 130.67 43.3698 130.536C43.3698 130.403 43.407 130.336 43.4814 130.336C44.2751 130.336 44.8455 130.28 45.1927 130.169C45.5647 130.057 45.8128 129.845 45.9368 129.533C46.0608 129.199 46.1228 128.697 46.1228 128.028V112.543C46.1228 111.874 46.0608 111.383 45.9368 111.071C45.8128 110.759 45.5647 110.547 45.1927 110.436C44.8207 110.302 44.2503 110.235 43.4814 110.235C43.407 110.235 43.3698 110.168 43.3698 110.034C43.3698 109.9 43.407 109.834 43.4814 109.834H59.2552C59.5032 109.834 59.6272 109.934 59.6272 110.135L59.7016 114.583C59.7016 114.627 59.6272 114.661 59.4784 114.683C59.3544 114.706 59.28 114.683 59.2552 114.616C58.8584 113.323 58.1888 112.364 57.2463 111.74C56.3038 111.116 55.0637 110.804 53.5261 110.804H52.41C51.6659 110.804 51.1203 110.948 50.7731 111.238C50.4259 111.528 50.2522 111.974 50.2522 112.576V119.399H53.34C54.7785 119.399 55.8822 119.176 56.651 118.73C57.4199 118.284 57.8043 117.66 57.8043 116.857C57.8043 116.79 57.8663 116.757 57.9903 116.757C58.1391 116.757 58.2135 116.79 58.2135 116.857L58.1763 119.867L58.2135 121.473C58.2631 122.231 58.288 122.833 58.288 123.279C58.288 123.323 58.2135 123.346 58.0647 123.346C57.9159 123.346 57.8415 123.323 57.8415 123.279C57.8415 122.365 57.4447 121.651 56.651 121.138C55.8822 120.603 54.7661 120.336 53.3028 120.336H50.2522V127.894C50.2522 128.541 50.3887 129.02 50.6615 129.332C50.9343 129.645 51.3683 129.801 51.9636 129.801H53.1912C55.1258 129.801 56.6758 129.444 57.8415 128.73C59.0072 128.017 59.8629 126.913 60.4085 125.419Z" fill="#4701DC"/>
<path d="M82.0513 114.115C82.0513 112.911 81.7412 111.963 81.1212 111.272C80.5259 110.581 79.6827 110.235 78.5914 110.235C78.5418 110.235 78.517 110.168 78.517 110.034C78.517 109.9 78.5418 109.834 78.5914 109.834L80.3771 109.867C81.3196 109.912 82.076 109.934 82.6465 109.934C83.1177 109.934 83.7998 109.912 84.6926 109.867L86.4039 109.834C86.4535 109.834 86.4783 109.9 86.4783 110.034C86.4783 110.168 86.4535 110.235 86.4039 110.235C85.4367 110.235 84.6802 110.581 84.1346 111.272C83.5889 111.963 83.3161 112.911 83.3161 114.115V123.413C83.3161 124.973 82.9317 126.345 82.1628 127.526C81.394 128.708 80.3027 129.622 78.889 130.269C77.5002 130.893 75.8881 131.205 74.0527 131.205C72.2174 131.205 70.5929 130.893 69.1792 130.269C67.7655 129.645 66.6495 128.742 65.831 127.56C65.0374 126.356 64.6405 124.951 64.6405 123.346V112.543C64.6405 111.874 64.5661 111.383 64.4173 111.071C64.2933 110.759 64.0453 110.547 63.6733 110.436C63.3261 110.302 62.768 110.235 61.9992 110.235C61.9248 110.235 61.8876 110.168 61.8876 110.034C61.8876 109.9 61.9248 109.834 61.9992 109.834L63.9709 109.867C65.1118 109.912 66.017 109.934 66.6867 109.934C67.4307 109.934 68.3732 109.912 69.5141 109.867L71.4114 109.834C71.4858 109.834 71.523 109.9 71.523 110.034C71.523 110.168 71.4858 110.235 71.4114 110.235C70.6425 110.235 70.0721 110.302 69.7001 110.436C69.3528 110.569 69.1048 110.804 68.956 111.138C68.832 111.45 68.77 111.941 68.77 112.61V122.175C68.77 124.828 69.3528 126.791 70.5185 128.061C71.6842 129.332 73.3335 129.968 75.4664 129.968C77.525 129.968 79.1371 129.41 80.3027 128.296C81.4684 127.158 82.0513 125.542 82.0513 123.446V114.115Z" fill="#4701DC"/>
<path d="M111.632 130.336C111.681 130.336 111.706 130.403 111.706 130.536C111.706 130.67 111.681 130.737 111.632 130.737H105.01C104.464 130.737 103.447 129.823 101.959 127.995C100.471 126.144 98.6729 123.569 96.5648 120.269C96.3664 120.291 96.0812 120.302 95.7092 120.302C94.7419 120.302 94.0599 120.291 93.663 120.269V128.028C93.663 128.719 93.725 129.221 93.849 129.533C93.9731 129.845 94.2087 130.057 94.5559 130.169C94.9279 130.28 95.5107 130.336 96.3044 130.336C96.354 130.336 96.3788 130.403 96.3788 130.536C96.3788 130.67 96.354 130.737 96.3044 130.737C95.4859 130.737 94.8411 130.726 94.3699 130.704L91.5425 130.67L88.8267 130.704C88.3307 130.726 87.6611 130.737 86.8178 130.737C86.7434 130.737 86.7062 130.67 86.7062 130.536C86.7062 130.403 86.7434 130.336 86.8178 130.336C87.6115 130.336 88.1819 130.28 88.5291 130.169C88.9011 130.057 89.1491 129.845 89.2732 129.533C89.422 129.199 89.4964 128.697 89.4964 128.028V112.543C89.4964 111.874 89.4344 111.383 89.3104 111.071C89.1864 110.759 88.9383 110.547 88.5663 110.436C88.1943 110.302 87.6238 110.235 86.855 110.235C86.8054 110.235 86.7806 110.168 86.7806 110.034C86.7806 109.9 86.8054 109.834 86.855 109.834L88.8267 109.867C89.9676 109.912 90.8729 109.934 91.5425 109.934C92.2617 109.934 93.0554 109.9 93.9234 109.834C94.1963 109.811 94.5435 109.789 94.9651 109.767C95.4115 109.744 95.9324 109.733 96.5276 109.733C98.8094 109.733 100.57 110.112 101.81 110.87C103.075 111.606 103.708 112.643 103.708 113.981C103.708 115.007 103.36 115.988 102.666 116.924C101.972 117.861 101.066 118.619 99.9502 119.198C101.934 122.008 103.596 124.204 104.935 125.787C106.299 127.37 107.502 128.53 108.544 129.266C109.61 129.979 110.64 130.336 111.632 130.336ZM93.663 119.299C94.2583 119.388 94.9775 119.432 95.8208 119.432C96.7136 119.432 97.4205 119.31 97.9413 119.065C98.4621 118.819 98.8342 118.396 99.0574 117.794C99.3054 117.192 99.4294 116.344 99.4294 115.252C99.4294 113.423 99.1318 112.164 98.5365 111.472C97.9413 110.781 97.0856 110.436 95.9696 110.436C95.1263 110.436 94.5311 110.603 94.1839 110.937C93.8366 111.272 93.663 111.829 93.663 112.61V119.299Z" fill="#4701DC"/>
<path d="M121.467 131.138C119.16 131.138 117.102 130.659 115.291 129.7C113.506 128.719 112.117 127.404 111.125 125.754C110.157 124.081 109.674 122.264 109.674 120.302C109.674 118.005 110.319 116.043 111.608 114.416C112.898 112.766 114.547 111.528 116.556 110.703C118.59 109.878 120.661 109.466 122.769 109.466C125.125 109.466 127.196 109.967 128.982 110.971C130.767 111.952 132.132 113.256 133.074 114.884C134.041 116.512 134.525 118.24 134.525 120.068C134.525 122.097 133.93 123.959 132.739 125.653C131.549 127.348 129.949 128.686 127.94 129.667C125.956 130.648 123.798 131.138 121.467 131.138ZM122.695 130.302C124.083 130.302 125.323 129.946 126.415 129.232C127.531 128.496 128.399 127.437 129.019 126.055C129.639 124.65 129.949 122.978 129.949 121.038C129.949 118.987 129.602 117.158 128.907 115.553C128.213 113.925 127.208 112.654 125.894 111.74C124.579 110.826 123.042 110.369 121.281 110.369C119.024 110.369 117.288 111.138 116.073 112.676C114.857 114.193 114.25 116.322 114.25 119.065C114.25 121.227 114.609 123.167 115.328 124.884C116.073 126.579 117.077 127.905 118.342 128.864C119.632 129.823 121.082 130.302 122.695 130.302Z" fill="#4701DC"/>
<path d="M142.695 127.894C142.695 128.608 142.782 129.132 142.956 129.466C143.129 129.778 143.452 130.001 143.923 130.135C144.419 130.269 145.2 130.336 146.267 130.336C146.341 130.336 146.378 130.403 146.378 130.536C146.378 130.67 146.341 130.737 146.267 130.737C145.25 130.737 144.456 130.726 143.886 130.704L140.649 130.67L137.934 130.704C137.438 130.726 136.768 130.737 135.925 130.737C135.85 130.737 135.813 130.67 135.813 130.536C135.813 130.403 135.85 130.336 135.925 130.336C136.718 130.336 137.289 130.28 137.636 130.169C138.008 130.057 138.256 129.845 138.38 129.533C138.504 129.199 138.566 128.697 138.566 128.028V112.543C138.566 111.874 138.504 111.383 138.38 111.071C138.256 110.759 138.008 110.547 137.636 110.436C137.264 110.302 136.693 110.235 135.925 110.235C135.85 110.235 135.813 110.168 135.813 110.034C135.813 109.9 135.85 109.834 135.925 109.834L137.896 109.867C139.037 109.912 139.942 109.934 140.612 109.934C141.207 109.934 141.914 109.9 142.733 109.834C143.055 109.811 143.464 109.789 143.96 109.767C144.456 109.744 145.027 109.733 145.672 109.733C148.201 109.733 150.198 110.213 151.661 111.171C153.124 112.108 153.856 113.568 153.856 115.553C153.856 116.935 153.459 118.106 152.666 119.065C151.872 120.023 150.843 120.748 149.578 121.239C148.338 121.729 147.061 121.974 145.746 121.974C145.076 121.974 144.494 121.919 143.998 121.807C143.948 121.807 143.923 121.751 143.923 121.64C143.923 121.573 143.936 121.506 143.96 121.439C144.01 121.372 144.06 121.35 144.109 121.372C144.481 121.462 144.903 121.506 145.374 121.506C146.515 121.506 147.457 121.027 148.201 120.068C148.97 119.109 149.355 117.749 149.355 115.988C149.355 114.226 148.933 112.866 148.09 111.907C147.271 110.948 146.068 110.469 144.481 110.469C143.787 110.469 143.315 110.614 143.067 110.904C142.819 111.194 142.695 111.762 142.695 112.61V127.894Z" fill="#4701DC"/>
<path d="M178.079 130.336C178.203 130.336 178.265 130.403 178.265 130.536C178.265 130.67 178.203 130.737 178.079 130.737C177.583 130.737 176.814 130.715 175.773 130.67C174.681 130.626 173.9 130.603 173.429 130.603C172.809 130.603 172.052 130.626 171.16 130.67C170.316 130.715 169.647 130.737 169.151 130.737C169.051 130.737 169.002 130.67 169.002 130.536C169.002 130.403 169.051 130.336 169.151 130.336C169.796 130.336 170.254 130.28 170.527 130.169C170.825 130.035 170.974 129.812 170.974 129.5C170.974 129.121 170.726 128.485 170.23 127.593L166.361 120.737H159.739L157.097 125.988C156.775 126.634 156.613 127.236 156.613 127.794C156.613 128.597 156.924 129.221 157.544 129.667C158.188 130.113 159.044 130.336 160.111 130.336C160.235 130.336 160.297 130.403 160.297 130.536C160.297 130.67 160.235 130.737 160.111 130.737C159.664 130.737 159.019 130.715 158.176 130.67C157.234 130.626 156.415 130.603 155.721 130.603C155.051 130.603 154.245 130.626 153.302 130.67C152.459 130.715 151.777 130.737 151.256 130.737C151.157 130.737 151.108 130.67 151.108 130.536C151.108 130.403 151.157 130.336 151.256 130.336C151.951 130.336 152.534 130.213 153.005 129.968C153.476 129.7 153.947 129.243 154.419 128.597C154.89 127.928 155.448 126.947 156.093 125.653L164.166 109.7C164.215 109.633 164.327 109.599 164.5 109.599C164.699 109.599 164.81 109.633 164.835 109.7L174.136 126.155C175.004 127.738 175.723 128.831 176.294 129.433C176.864 130.035 177.459 130.336 178.079 130.336ZM160.222 119.8H165.84L162.863 114.516L160.222 119.8Z" fill="#4701DC"/>
<defs>
<linearGradient id="paint0_linear_3_238" x1="126.456" y1="26.0356" x2="75.2504" y2="36.4927" gradientUnits="userSpaceOnUse">
<stop stop-color="#6219FF"/>
<stop offset="1" stop-color="#190050"/>
</linearGradient>
<linearGradient id="paint1_linear_3_238" x1="113.269" y1="2.66566e-06" x2="74.3483" y2="36.4782" gradientUnits="userSpaceOnUse">
<stop stop-color="#1F025C"/>
<stop offset="0.447917" stop-color="#8951FF"/>
<stop offset="0.651042" stop-color="#AB83FF"/>
<stop offset="1" stop-color="#4400D6"/>
</linearGradient>
<linearGradient id="paint2_linear_3_238" x1="91.658" y1="48.5859" x2="64.898" y2="46.7649" gradientUnits="userSpaceOnUse">
<stop offset="0.06" stop-color="#DDDDDD"/>
<stop offset="0.28" stop-color="#F7F7F7"/>
<stop offset="0.64" stop-color="#D6D6D6"/>
<stop offset="1" stop-color="#939393"/>
</linearGradient>
<linearGradient id="paint3_linear_3_238" x1="65.2687" y1="80.8053" x2="106.987" y2="59.166" gradientUnits="userSpaceOnUse">
<stop stop-color="#FF0101"/>
<stop offset="0.432292" stop-color="#FF5151"/>
<stop offset="0.723958" stop-color="#EE3737"/>
<stop offset="1" stop-color="#7C0101"/>
</linearGradient>
<linearGradient id="paint4_linear_3_238" x1="65.2546" y1="98.2253" x2="101.801" y2="69.8595" gradientUnits="userSpaceOnUse">
<stop stop-color="#5C0000"/>
<stop offset="1" stop-color="#FF0000"/>
<stop offset="1" stop-color="#FF0000"/>
</linearGradient>
<linearGradient id="paint5_linear_3_238" x1="115.53" y1="44.6601" x2="93.5629" y2="58.7164" gradientUnits="userSpaceOnUse">
<stop offset="0.06" stop-color="#DFDFDF"/>
<stop offset="0.286458" stop-color="#F7F7F7"/>
<stop offset="0.64" stop-color="#D0D0D0"/>
<stop offset="0.993848" stop-color="#8F8F8F"/>
</linearGradient>
</defs>
</svg>
