<?xml version="1.0" encoding="UTF-8"?> <svg xmlns="http://www.w3.org/2000/svg" width="159" height="139" viewBox="0 0 159 139" fill="none"> <path d="M19.4152 102.845C19.4738 102.845 19.5031 102.903 19.5031 103.02C19.5031 103.137 19.4738 103.196 19.4152 103.196C18.7124 103.196 18.0389 103.508 17.3946 104.133C16.7504 104.758 16.233 105.597 15.8426 106.651L10.4251 121.118C10.4055 121.196 10.2982 121.235 10.1029 121.235C9.90772 121.235 9.80034 121.196 9.78082 121.118L2.31343 105.275C1.96202 104.572 1.61061 104.055 1.25921 103.723C0.907801 103.372 0.517349 103.196 0.0878517 103.196C0.0292839 103.196 0 103.137 0 103.02C0 102.903 0.0292839 102.845 0.0878517 102.845C0.380691 102.845 0.585678 102.854 0.702814 102.874C1.09327 102.913 1.60085 102.932 2.22558 102.932C3.90452 102.932 5.32967 102.913 6.50103 102.874C6.81339 102.854 7.20384 102.845 7.67238 102.845C7.73095 102.845 7.76023 102.903 7.76023 103.02C7.76023 103.137 7.73095 103.196 7.67238 103.196C7.0867 103.196 6.62792 103.323 6.29604 103.577C5.98368 103.811 5.8275 104.153 5.8275 104.602C5.8275 104.934 5.93487 105.334 6.14962 105.802L11.2157 116.608L15.0226 106.564C15.2179 106.017 15.3155 105.548 15.3155 105.158C15.3155 104.553 15.13 104.075 14.7591 103.723C14.4077 103.372 13.8903 103.196 13.207 103.196C13.1485 103.196 13.1192 103.137 13.1192 103.02C13.1192 102.903 13.1485 102.845 13.207 102.845L14.6419 102.874C15.4619 102.913 16.194 102.932 16.8382 102.932C17.2092 102.932 17.668 102.913 18.2146 102.874L19.4152 102.845Z" fill="#E9E9E9"></path> <path d="M30.744 102.522C31.603 102.522 32.501 102.601 33.4381 102.757C34.3752 102.893 35.1073 103.079 35.6344 103.313C35.8101 103.372 35.9175 103.45 35.9565 103.547C36.0151 103.625 36.0639 103.772 36.1029 103.987L36.4543 108.057C36.4543 108.116 36.4055 108.155 36.3079 108.174C36.2103 108.194 36.1517 108.164 36.1322 108.086C35.4684 106.544 34.5802 105.353 33.4674 104.514C32.3546 103.674 31.0661 103.255 29.6019 103.255C27.6692 103.255 26.1757 103.967 25.1215 105.392C24.0672 106.817 23.5401 108.731 23.5401 111.132C23.5401 112.928 23.8232 114.568 24.3894 116.052C24.975 117.535 25.7852 118.716 26.8199 119.595C27.8742 120.454 29.065 120.883 30.3926 120.883C31.642 120.883 32.7548 120.473 33.7309 119.654C34.7266 118.814 35.6149 117.545 36.3958 115.847C36.4153 115.769 36.4739 115.739 36.5715 115.759C36.6886 115.778 36.7472 115.817 36.7472 115.876L36.3079 119.859C36.2689 120.093 36.2201 120.249 36.1615 120.327C36.1225 120.386 36.0151 120.454 35.8394 120.532C34.1019 121.176 32.3155 121.498 30.4804 121.498C28.0987 121.498 26.1074 121.03 24.5065 120.093C22.9057 119.136 21.7245 117.936 20.9632 116.491C20.2213 115.027 19.8504 113.504 19.8504 111.923C19.8504 110.068 20.3482 108.428 21.3438 107.003C22.359 105.578 23.6963 104.475 25.3557 103.694C27.0347 102.913 28.8308 102.522 30.744 102.522Z" fill="#E9E9E9"></path> <path d="M59.393 116.491C59.393 116.452 59.4321 116.432 59.5101 116.432C59.5687 116.432 59.6175 116.452 59.6566 116.491C59.7151 116.51 59.7444 116.53 59.7444 116.549C59.5492 118.072 59.4516 119.458 59.4516 120.708C59.4516 120.864 59.4223 120.981 59.3637 121.059C59.3052 121.118 59.188 121.147 59.0123 121.147H46.0688C46.0103 121.147 45.981 121.088 45.981 120.971C45.981 120.854 46.0103 120.796 46.0688 120.796C46.6936 120.796 47.1426 120.747 47.4159 120.649C47.7087 120.552 47.904 120.366 48.0016 120.093C48.0992 119.8 48.148 119.361 48.148 118.775V105.217C48.148 104.631 48.0992 104.201 48.0016 103.928C47.904 103.655 47.7087 103.469 47.4159 103.372C47.1231 103.255 46.674 103.196 46.0688 103.196C46.0103 103.196 45.981 103.137 45.981 103.02C45.981 102.903 46.0103 102.845 46.0688 102.845H58.4852C58.6804 102.845 58.778 102.932 58.778 103.108L58.8366 107.003C58.8366 107.042 58.778 107.071 58.6609 107.091C58.5633 107.11 58.5047 107.091 58.4852 107.032C58.1728 105.9 57.6457 105.06 56.9039 104.514C56.162 103.967 55.1859 103.694 53.9755 103.694H53.097C52.5113 103.694 52.0818 103.821 51.8085 104.075C51.5352 104.328 51.3985 104.719 51.3985 105.246V111.22H53.8291C54.9614 111.22 55.8301 111.025 56.4353 110.634C57.0405 110.244 57.3431 109.697 57.3431 108.994C57.3431 108.936 57.3919 108.906 57.4896 108.906C57.6067 108.906 57.6653 108.936 57.6653 108.994L57.636 111.63L57.6653 113.035C57.7043 113.699 57.7238 114.226 57.7238 114.617C57.7238 114.656 57.6653 114.675 57.5481 114.675C57.431 114.675 57.3724 114.656 57.3724 114.617C57.3724 113.816 57.0601 113.192 56.4353 112.743C55.8301 112.274 54.9516 112.04 53.7998 112.04H51.3985V118.658C51.3985 119.224 51.5059 119.644 51.7206 119.917C51.9354 120.19 52.277 120.327 52.7456 120.327H53.7119C55.2347 120.327 56.4549 120.015 57.3724 119.39C58.29 118.765 58.9635 117.799 59.393 116.491Z" fill="#E9E9E9"></path> <path d="M77.7469 106.593C77.7469 105.539 77.5029 104.709 77.0148 104.104C76.5463 103.499 75.8825 103.196 75.0235 103.196C74.9845 103.196 74.9649 103.137 74.9649 103.02C74.9649 102.903 74.9845 102.845 75.0235 102.845L76.4291 102.874C77.171 102.913 77.7664 102.932 78.2155 102.932C78.5864 102.932 79.1233 102.913 79.8261 102.874L81.1731 102.845C81.2122 102.845 81.2317 102.903 81.2317 103.02C81.2317 103.137 81.2122 103.196 81.1731 103.196C80.4118 103.196 79.8163 103.499 79.3868 104.104C78.9573 104.709 78.7426 105.539 78.7426 106.593V114.734C78.7426 116.1 78.44 117.301 77.8348 118.336C77.2296 119.37 76.3706 120.171 75.2578 120.737C74.1645 121.284 72.8955 121.557 71.4509 121.557C70.0062 121.557 68.7275 121.284 67.6147 120.737C66.5019 120.19 65.6234 119.4 64.9791 118.365C64.3544 117.311 64.0421 116.081 64.0421 114.675V105.217C64.0421 104.631 63.9835 104.201 63.8663 103.928C63.7687 103.655 63.5735 103.469 63.2807 103.372C63.0074 103.255 62.5681 103.196 61.9629 103.196C61.9043 103.196 61.875 103.137 61.875 103.02C61.875 102.903 61.9043 102.845 61.9629 102.845L63.5149 102.874C64.413 102.913 65.1256 102.932 65.6527 102.932C66.2383 102.932 66.9802 102.913 67.8782 102.874L69.3717 102.845C69.4303 102.845 69.4596 102.903 69.4596 103.02C69.4596 103.137 69.4303 103.196 69.3717 103.196C68.7665 103.196 68.3175 103.255 68.0247 103.372C67.7513 103.489 67.5561 103.694 67.439 103.987C67.3414 104.26 67.2926 104.689 67.2926 105.275V113.65C67.2926 115.974 67.7513 117.692 68.6689 118.804C69.5865 119.917 70.8847 120.473 72.5637 120.473C74.184 120.473 75.453 119.985 76.3706 119.009C77.2881 118.014 77.7469 116.598 77.7469 114.763V106.593Z" fill="#E9E9E9"></path> <path d="M102.349 120.796C102.388 120.796 102.408 120.854 102.408 120.971C102.408 121.088 102.388 121.147 102.349 121.147H97.1365C96.707 121.147 95.9066 120.347 94.7352 118.746C93.5639 117.125 92.1485 114.871 90.4891 111.981C90.3329 112.001 90.1084 112.01 89.8155 112.01C89.0542 112.01 88.5173 112.001 88.2049 111.981V118.775C88.2049 119.38 88.2537 119.819 88.3513 120.093C88.449 120.366 88.6344 120.552 88.9077 120.649C89.2006 120.747 89.6594 120.796 90.2841 120.796C90.3231 120.796 90.3427 120.854 90.3427 120.971C90.3427 121.088 90.3231 121.147 90.2841 121.147C89.6398 121.147 89.1323 121.137 88.7613 121.118L86.5357 121.088L84.398 121.118C84.0076 121.137 83.4805 121.147 82.8167 121.147C82.7581 121.147 82.7288 121.088 82.7288 120.971C82.7288 120.854 82.7581 120.796 82.8167 120.796C83.4414 120.796 83.8904 120.747 84.1638 120.649C84.4566 120.552 84.6518 120.366 84.7494 120.093C84.8666 119.8 84.9251 119.361 84.9251 118.775V105.217C84.9251 104.631 84.8763 104.201 84.7787 103.928C84.6811 103.655 84.4859 103.469 84.193 103.372C83.9002 103.255 83.4512 103.196 82.846 103.196C82.8069 103.196 82.7874 103.137 82.7874 103.02C82.7874 102.903 82.8069 102.845 82.846 102.845L84.398 102.874C85.2961 102.913 86.0086 102.932 86.5357 102.932C87.1019 102.932 87.7266 102.903 88.4099 102.845C88.6247 102.825 88.898 102.806 89.2299 102.786C89.5813 102.766 89.9912 102.757 90.4598 102.757C92.2559 102.757 93.642 103.089 94.6181 103.752C95.6138 104.397 96.1116 105.304 96.1116 106.476C96.1116 107.374 95.8383 108.233 95.2916 109.053C94.745 109.873 94.0324 110.536 93.1539 111.044C94.7157 113.504 96.0237 115.427 97.0779 116.813C98.1517 118.199 99.0985 119.214 99.9185 119.859C100.758 120.483 101.568 120.796 102.349 120.796ZM88.2049 111.132C88.6735 111.21 89.2396 111.249 89.9034 111.249C90.6062 111.249 91.1626 111.142 91.5726 110.927C91.9825 110.712 92.2754 110.341 92.4511 109.814C92.6463 109.287 92.7439 108.545 92.7439 107.589C92.7439 105.988 92.5097 104.885 92.0411 104.279C91.5726 103.674 90.899 103.372 90.0205 103.372C89.3568 103.372 88.8882 103.518 88.6149 103.811C88.3416 104.104 88.2049 104.592 88.2049 105.275V111.132Z" fill="#E9E9E9"></path> <path d="M111.409 121.498C109.593 121.498 107.973 121.079 106.547 120.239C105.142 119.38 104.049 118.228 103.268 116.784C102.506 115.32 102.126 113.728 102.126 112.01C102.126 110 102.633 108.282 103.648 106.856C104.663 105.412 105.962 104.328 107.543 103.606C109.144 102.884 110.774 102.522 112.433 102.522C114.288 102.522 115.918 102.962 117.324 103.84C118.729 104.699 119.803 105.841 120.545 107.266C121.306 108.692 121.687 110.205 121.687 111.805C121.687 113.582 121.219 115.212 120.282 116.696C119.344 118.18 118.085 119.351 116.504 120.21C114.942 121.069 113.244 121.498 111.409 121.498ZM112.375 120.766C113.468 120.766 114.444 120.454 115.303 119.829C116.182 119.185 116.865 118.258 117.353 117.047C117.841 115.817 118.085 114.353 118.085 112.655C118.085 110.859 117.812 109.258 117.265 107.852C116.719 106.427 115.928 105.314 114.893 104.514C113.859 103.713 112.648 103.313 111.262 103.313C109.486 103.313 108.119 103.987 107.162 105.334C106.206 106.661 105.727 108.526 105.727 110.927C105.727 112.821 106.011 114.519 106.577 116.022C107.162 117.506 107.953 118.668 108.949 119.507C109.964 120.347 111.106 120.766 112.375 120.766Z" fill="#E9E9E9"></path> <path d="M129.436 118.658C129.436 119.283 129.505 119.741 129.641 120.034C129.778 120.308 130.032 120.503 130.403 120.62C130.793 120.737 131.408 120.796 132.248 120.796C132.306 120.796 132.336 120.854 132.336 120.971C132.336 121.088 132.306 121.147 132.248 121.147C131.447 121.147 130.823 121.137 130.374 121.118L127.826 121.088L125.688 121.118C125.298 121.137 124.771 121.147 124.107 121.147C124.048 121.147 124.019 121.088 124.019 120.971C124.019 120.854 124.048 120.796 124.107 120.796C124.731 120.796 125.18 120.747 125.454 120.649C125.747 120.552 125.942 120.366 126.039 120.093C126.137 119.8 126.186 119.361 126.186 118.775V105.217C126.186 104.631 126.137 104.201 126.039 103.928C125.942 103.655 125.747 103.469 125.454 103.372C125.161 103.255 124.712 103.196 124.107 103.196C124.048 103.196 124.019 103.137 124.019 103.02C124.019 102.903 124.048 102.845 124.107 102.845L125.659 102.874C126.557 102.913 127.269 102.932 127.797 102.932C128.265 102.932 128.821 102.903 129.466 102.845C129.72 102.825 130.042 102.806 130.432 102.786C130.823 102.766 131.272 102.757 131.779 102.757C133.77 102.757 135.342 103.176 136.494 104.016C137.646 104.836 138.222 106.115 138.222 107.852C138.222 109.063 137.909 110.087 137.285 110.927C136.66 111.766 135.85 112.401 134.854 112.83C133.878 113.26 132.872 113.475 131.838 113.475C131.311 113.475 130.852 113.426 130.461 113.328C130.422 113.328 130.403 113.279 130.403 113.182C130.403 113.123 130.413 113.065 130.432 113.006C130.471 112.948 130.51 112.928 130.549 112.948C130.842 113.026 131.174 113.065 131.545 113.065C132.443 113.065 133.185 112.645 133.77 111.805C134.376 110.966 134.678 109.775 134.678 108.233C134.678 106.691 134.346 105.5 133.683 104.66C133.038 103.821 132.092 103.401 130.842 103.401C130.295 103.401 129.924 103.528 129.729 103.782C129.534 104.035 129.436 104.533 129.436 105.275V118.658Z" fill="#E9E9E9"></path> <path d="M158.607 120.796C158.704 120.796 158.753 120.854 158.753 120.971C158.753 121.088 158.704 121.147 158.607 121.147C158.216 121.147 157.611 121.127 156.791 121.088C155.932 121.049 155.317 121.03 154.946 121.03C154.458 121.03 153.863 121.049 153.16 121.088C152.496 121.127 151.969 121.147 151.578 121.147C151.5 121.147 151.461 121.088 151.461 120.971C151.461 120.854 151.5 120.796 151.578 120.796C152.086 120.796 152.447 120.747 152.662 120.649C152.896 120.532 153.013 120.337 153.013 120.064C153.013 119.732 152.818 119.175 152.428 118.394L149.382 112.391H144.17L142.091 116.989C141.837 117.555 141.71 118.082 141.71 118.57C141.71 119.273 141.954 119.819 142.442 120.21C142.949 120.6 143.623 120.796 144.462 120.796C144.56 120.796 144.609 120.854 144.609 120.971C144.609 121.088 144.56 121.147 144.462 121.147C144.111 121.147 143.604 121.127 142.94 121.088C142.198 121.049 141.554 121.03 141.007 121.03C140.48 121.03 139.845 121.049 139.104 121.088C138.44 121.127 137.903 121.147 137.493 121.147C137.415 121.147 137.376 121.088 137.376 120.971C137.376 120.854 137.415 120.796 137.493 120.796C138.04 120.796 138.498 120.688 138.869 120.473C139.24 120.239 139.611 119.839 139.982 119.273C140.353 118.687 140.792 117.828 141.3 116.696L147.654 102.727C147.693 102.669 147.781 102.64 147.918 102.64C148.074 102.64 148.162 102.669 148.182 102.727L155.503 117.135C156.186 118.521 156.752 119.478 157.201 120.005C157.65 120.532 158.119 120.796 158.607 120.796ZM144.55 111.571H148.972L146.63 106.944L144.55 111.571Z" fill="#E9E9E9"></path> <path d="M38.0032 130.061L34.6063 138.397H33.5942L30.1973 130.061H31.0988C31.1997 130.061 31.2811 130.087 31.3431 130.137C31.4052 130.187 31.4517 130.251 31.4827 130.329L33.8327 136.21C33.8831 136.341 33.9316 136.485 33.9781 136.64C34.0285 136.795 34.0731 136.958 34.1119 137.129C34.1507 136.958 34.1914 136.795 34.234 136.64C34.2767 136.485 34.3232 136.341 34.3736 136.21L36.7177 130.329C36.741 130.263 36.7856 130.203 36.8515 130.149C36.9213 130.09 37.0047 130.061 37.1016 130.061H38.0032Z" fill="#E9E9E9"></path> <path d="M42.8457 138.397H41.7173V130.061H42.8457V138.397Z" fill="#E9E9E9"></path> <path d="M51.8589 131.364C51.824 131.422 51.7852 131.467 51.7426 131.498C51.7038 131.525 51.6553 131.539 51.5971 131.539C51.5312 131.539 51.4537 131.506 51.3645 131.44C51.2753 131.374 51.1628 131.302 51.0271 131.225C50.8953 131.143 50.7343 131.07 50.5443 131.004C50.3582 130.938 50.1313 130.905 49.8638 130.905C49.6117 130.905 49.3887 130.94 49.1949 131.009C49.0048 131.075 48.8439 131.166 48.7121 131.283C48.5841 131.399 48.4872 131.537 48.4212 131.696C48.3553 131.851 48.3224 132.02 48.3224 132.202C48.3224 132.435 48.3786 132.628 48.491 132.784C48.6074 132.935 48.7586 133.065 48.9447 133.173C49.1348 133.282 49.348 133.377 49.5846 133.458C49.825 133.536 50.0693 133.617 50.3175 133.703C50.5695 133.788 50.8138 133.885 51.0504 133.993C51.2908 134.098 51.5041 134.232 51.6902 134.395C51.8802 134.558 52.0315 134.757 52.1439 134.994C52.2602 135.23 52.3184 135.521 52.3184 135.866C52.3184 136.231 52.2564 136.574 52.1323 136.896C52.0082 137.214 51.8259 137.491 51.5855 137.728C51.349 137.964 51.0562 138.15 50.7072 138.286C50.3621 138.422 49.9685 138.49 49.5264 138.49C48.9835 138.49 48.491 138.393 48.049 138.199C47.6069 138.001 47.2288 137.735 46.9147 137.402L47.2405 136.867C47.2715 136.824 47.3083 136.789 47.351 136.762C47.3975 136.731 47.4479 136.716 47.5022 136.716C47.5526 136.716 47.6088 136.737 47.6709 136.78C47.7368 136.818 47.8105 136.869 47.8919 136.931C47.9734 136.993 48.0664 137.061 48.1711 137.134C48.2758 137.208 48.3941 137.276 48.5259 137.338C48.6617 137.4 48.8148 137.452 48.9855 137.495C49.1561 137.534 49.348 137.553 49.5613 137.553C49.8289 137.553 50.0674 137.516 50.2768 137.443C50.4862 137.369 50.6626 137.266 50.8061 137.134C50.9534 136.999 51.0659 136.838 51.1434 136.652C51.221 136.465 51.2598 136.258 51.2598 136.029C51.2598 135.777 51.2016 135.572 51.0853 135.413C50.9728 135.25 50.8235 135.114 50.6374 135.005C50.4513 134.897 50.238 134.806 49.9976 134.732C49.7571 134.655 49.5128 134.577 49.2647 134.499C49.0165 134.418 48.7722 134.325 48.5318 134.22C48.2913 134.116 48.0781 133.98 47.8919 133.813C47.7058 133.646 47.5546 133.439 47.4382 133.191C47.3258 132.939 47.2695 132.628 47.2695 132.26C47.2695 131.965 47.3258 131.68 47.4382 131.405C47.5546 131.13 47.7213 130.885 47.9385 130.672C48.1595 130.459 48.429 130.288 48.747 130.16C49.0688 130.032 49.4372 129.968 49.8521 129.968C50.3175 129.968 50.7402 130.042 51.1202 130.189C51.5041 130.337 51.8414 130.55 52.1323 130.829L51.8589 131.364Z" fill="#E9E9E9"></path> <path d="M60.8081 135.302L59.4994 131.911C59.4606 131.81 59.4199 131.694 59.3772 131.562C59.3345 131.426 59.2938 131.283 59.255 131.132C59.1736 131.446 59.0902 131.707 59.0049 131.917L57.6962 135.302H60.8081ZM63.158 138.397H62.2855C62.1847 138.397 62.1033 138.371 62.0412 138.321C61.9792 138.271 61.9327 138.207 61.9016 138.129L61.1222 136.116H57.3821L56.6027 138.129C56.5794 138.199 56.5348 138.261 56.4689 138.315C56.4029 138.369 56.3215 138.397 56.2246 138.397H55.3521L58.685 130.061H59.8251L63.158 138.397Z" fill="#E9E9E9"></path> <path d="M77.9314 136.675C77.9934 136.675 78.0477 136.7 78.0942 136.75L78.5421 137.233C78.2009 137.629 77.7859 137.937 77.2973 138.158C76.8126 138.379 76.2251 138.49 75.5349 138.49C74.9377 138.49 74.3948 138.387 73.9062 138.181C73.4176 137.972 73.0008 137.681 72.6556 137.309C72.3105 136.933 72.043 136.483 71.8529 135.959C71.6629 135.436 71.5679 134.86 71.5679 134.232C71.5679 133.604 71.6668 133.028 71.8646 132.504C72.0623 131.981 72.3396 131.531 72.6964 131.155C73.057 130.779 73.4874 130.488 73.9877 130.282C74.4879 130.073 75.0405 129.968 75.6454 129.968C76.2387 129.968 76.7622 130.063 77.2159 130.253C77.6696 130.443 78.069 130.701 78.4141 131.027L78.0419 131.545C78.0186 131.583 77.9876 131.616 77.9488 131.643C77.9139 131.667 77.8654 131.678 77.8034 131.678C77.7336 131.678 77.6483 131.642 77.5475 131.568C77.4466 131.49 77.3148 131.405 77.1519 131.312C76.9891 131.219 76.7855 131.135 76.5412 131.062C76.2969 130.984 75.9964 130.945 75.6396 130.945C75.2092 130.945 74.8156 131.021 74.4588 131.172C74.1021 131.32 73.7938 131.535 73.534 131.818C73.278 132.101 73.0783 132.446 72.9348 132.853C72.7914 133.26 72.7196 133.72 72.7196 134.232C72.7196 134.751 72.7933 135.215 72.9407 135.622C73.0919 136.029 73.2955 136.374 73.5514 136.657C73.8112 136.937 74.1156 137.15 74.4646 137.297C74.8175 137.445 75.1975 137.518 75.6047 137.518C75.8529 137.518 76.0758 137.505 76.2736 137.478C76.4753 137.447 76.6595 137.4 76.8262 137.338C76.9968 137.276 77.1539 137.198 77.2973 137.105C77.4447 137.008 77.5901 136.894 77.7336 136.762C77.7995 136.704 77.8654 136.675 77.9314 136.675Z" fill="#E9E9E9"></path> <path d="M87.6099 137.478L87.6041 138.397H82.468V130.061H87.6041V130.98H83.5964V133.749H86.8421V134.633H83.5964V137.478H87.6099Z" fill="#E9E9E9"></path> <path d="M98.5528 130.061V138.397H97.9886C97.8994 138.397 97.8238 138.381 97.7617 138.35C97.7036 138.319 97.6454 138.267 97.5872 138.193L92.7652 131.911C92.773 132.008 92.7788 132.103 92.7827 132.196C92.7865 132.289 92.7885 132.376 92.7885 132.458V138.397H91.7997V130.061H92.3813C92.4317 130.061 92.4744 130.065 92.5093 130.073C92.5442 130.077 92.5752 130.087 92.6024 130.102C92.6295 130.114 92.6566 130.133 92.6838 130.16C92.7109 130.183 92.74 130.215 92.771 130.253L97.5931 136.529C97.5853 136.429 97.5775 136.332 97.5698 136.239C97.5659 136.142 97.564 136.051 97.564 135.965V130.061H98.5528Z" fill="#E9E9E9"></path> <path d="M108.938 131.009H106.239V138.397H105.116V131.009H102.411V130.061H108.938V131.009Z" fill="#E9E9E9"></path> <path d="M117.934 137.478L117.928 138.397H112.792V130.061H117.928V130.98H113.92V133.749H117.166V134.633H113.92V137.478H117.934Z" fill="#E9E9E9"></path> <path d="M124.433 134.098C124.759 134.098 125.045 134.059 125.294 133.982C125.546 133.9 125.755 133.788 125.922 133.644C126.092 133.497 126.22 133.323 126.306 133.121C126.391 132.919 126.434 132.696 126.434 132.452C126.434 131.956 126.271 131.581 125.945 131.329C125.619 131.077 125.131 130.951 124.479 130.951H123.246V134.098H124.433ZM128.283 138.397H127.283C127.077 138.397 126.926 138.317 126.829 138.158L124.665 135.18C124.6 135.087 124.528 135.021 124.45 134.982C124.377 134.94 124.26 134.918 124.101 134.918H123.246V138.397H122.124V130.061H124.479C125.007 130.061 125.462 130.116 125.846 130.224C126.23 130.329 126.546 130.482 126.794 130.684C127.046 130.885 127.233 131.13 127.353 131.417C127.473 131.7 127.533 132.018 127.533 132.371C127.533 132.665 127.487 132.941 127.393 133.197C127.3 133.452 127.165 133.683 126.986 133.889C126.812 134.09 126.597 134.263 126.341 134.406C126.089 134.55 125.802 134.658 125.48 134.732C125.623 134.814 125.747 134.932 125.852 135.087L128.283 138.397Z" fill="#E9E9E9"></path> <g clip-path="url(#clip0_642_78)"> <path fill-rule="evenodd" clip-rule="evenodd" d="M94.5626 21.6862C99.1344 19.0272 101.377 15.5782 101.231 10.2506C101.212 6.83053 101.202 3.42008 101.202 0C95.2678 6.10155 84.9734 15.2797 75.1489 23.6034C67.6657 29.9434 65.1134 34.9715 74.2565 45.1836C69.8109 39.4321 71.3251 35.0775 77.5761 31.5129C83.1865 28.2952 88.9716 24.9425 94.5626 21.6862Z" fill="url(#paint0_linear_642_78)"></path> <path d="M64.9188 47.3127C67.724 47.7655 72.8005 48.3532 74.2565 45.1836C65.1134 34.9715 67.6657 29.9434 75.1489 23.6034C84.9734 15.2797 95.2678 6.10155 101.202 0C89.9099 8.38803 78.6406 16.7953 67.3939 25.2219C63.7344 28.489 61.4618 33.0139 61.0361 37.881C60.8614 41.2722 61.7738 45.3859 64.9188 47.3127Z" fill="url(#paint1_linear_642_78)"></path> <path d="M74.2379 45.1834C74.2379 45.1834 73.5585 44.6343 72.4325 43.642C67.1133 38.9309 60.1634 31.6476 67.3754 25.2217C65.0615 26.9982 63.0153 29.0939 61.2991 31.4453C56.2226 38.218 57.1932 49.1334 57.4359 57.2645C57.5524 61.1855 62.2115 62.0815 65.2011 60.4822C68.4334 58.7674 71.9084 56.8406 75.063 55.145C79.9066 52.5534 77.577 47.8039 74.2379 45.1834Z" fill="url(#paint2_linear_642_78)"></path> <path fill-rule="evenodd" clip-rule="evenodd" d="M64.2708 69.365C59.699 72.0433 57.4568 75.4826 57.6024 80.8102C57.6218 84.2335 57.6315 87.6504 57.6315 91.0608C64.2288 84.5134 70.3591 79.0224 81.7429 68.8256C83.8968 66.8963 87.2867 64.6419 88.0514 63.933C93.6472 58.7451 88.3712 49.6551 84.5963 45.8676C89.0516 51.6095 87.5277 55.9737 81.2864 59.5383C75.6469 62.7561 69.8715 66.1087 64.2708 69.365Z" fill="url(#paint3_linear_642_78)"></path> <path d="M93.934 43.7385C91.1386 43.276 86.0523 42.6884 84.5963 45.8676C88.3712 49.6551 93.6472 58.7451 88.0514 63.933C87.2867 64.6419 83.8968 66.8963 81.7429 68.8256C70.3591 79.0224 64.2288 84.5134 57.6315 91.0608C68.9235 82.6728 80.1993 74.2687 91.4589 65.8486C95.125 62.5743 97.3982 58.0379 97.8167 53.1606C97.9914 49.7694 97.079 45.6653 93.934 43.7385Z" fill="url(#paint4_linear_642_78)"></path> <path d="M84.5963 45.8868C84.5963 45.8868 85.2757 46.4263 86.4017 47.4283C91.7306 52.1393 98.6708 59.413 91.4588 65.8486C93.7683 64.0671 95.8138 61.972 97.5351 59.625C102.641 52.8811 101.651 41.9272 101.418 33.7961C101.301 29.8847 96.6518 28.9791 93.6525 30.5784C90.3911 32.3028 86.9162 34.2297 83.7615 35.9156C78.9277 38.5361 81.3155 43.2567 84.5963 45.8868Z" fill="url(#paint5_linear_642_78)"></path> </g> <defs> <linearGradient id="paint0_linear_642_78" x1="113.372" y1="23.7684" x2="66.6251" y2="33.315" gradientUnits="userSpaceOnUse"> <stop stop-color="#6219FF"></stop> <stop offset="1" stop-color="#190050"></stop> </linearGradient> <linearGradient id="paint1_linear_642_78" x1="101.333" y1="2.43353e-06" x2="65.8016" y2="33.3018" gradientUnits="userSpaceOnUse"> <stop stop-color="#1F025C"></stop> <stop offset="0.447917" stop-color="#8951FF"></stop> <stop offset="0.651042" stop-color="#AB83FF"></stop> <stop offset="1" stop-color="#4400D6"></stop> </linearGradient> <linearGradient id="paint2_linear_642_78" x1="81.6052" y1="44.3549" x2="57.1755" y2="42.6924" gradientUnits="userSpaceOnUse"> <stop offset="0.06" stop-color="#DDDDDD"></stop> <stop offset="0.28" stop-color="#F7F7F7"></stop> <stop offset="0.64" stop-color="#D6D6D6"></stop> <stop offset="1" stop-color="#939393"></stop> </linearGradient> <linearGradient id="paint3_linear_642_78" x1="57.5145" y1="73.7688" x2="95.6001" y2="54.0138" gradientUnits="userSpaceOnUse"> <stop stop-color="#FF0101"></stop> <stop offset="0.432292" stop-color="#FF5151"></stop> <stop offset="0.723958" stop-color="#EE3737"></stop> <stop offset="1" stop-color="#7C0101"></stop> </linearGradient> <linearGradient id="paint4_linear_642_78" x1="57.5017" y1="89.6718" x2="90.8652" y2="63.7761" gradientUnits="userSpaceOnUse"> <stop stop-color="#5C0000"></stop> <stop offset="1" stop-color="#FF0000"></stop> <stop offset="1" stop-color="#FF0000"></stop> </linearGradient> <linearGradient id="paint5_linear_642_78" x1="103.4" y1="40.7711" x2="83.345" y2="53.6034" gradientUnits="userSpaceOnUse"> <stop offset="0.06" stop-color="#DFDFDF"></stop> <stop offset="0.286458" stop-color="#F7F7F7"></stop> <stop offset="0.64" stop-color="#D0D0D0"></stop> <stop offset="0.993848" stop-color="#8F8F8F"></stop> </linearGradient> <clipPath id="clip0_642_78"> <rect width="44.4464" height="91.0609" fill="white" transform="translate(57.1934)"></rect> </clipPath> </defs> </svg> 